{
.appVersion = "1038";
copyright = "Copyright (c) 2010, Sebastian Kosch (sebastian@aldusleaf.org),\012with Reserved Font Name \"Crimson\".\012This Font Software is licensed under the SIL Open Font License, Version 1.1.\012This license is available with a FAQ at: http://scripts.sil.org/OFL";
customParameters = (
{
name = note;
value = "2011-10-23: Created.";
},
{
name = openTypeNameLicense;

glyphs = (
{
glyphname = A;
lastChange = "2017-07-12 19:24:34 +0000";
layers = (
{
layerId = "AF37C979-5169-4EE5-B183-132B179D5F1C";
paths = (
{
closed = 1;
nodes = (
"63 136 CURVE SMOOTH",
"348 629 LINE SMOOTH",
"356 643 OFFCURVE",
"380 662 OFFCURVE",
"389 662 CURVE SMOOTH",
"395 662 OFFCURVE",
"398 660 OFFCURVE",
"400 658 CURVE",
"490 137 LINE",
"496 103 OFFCURVE",
"499 80 OFFCURVE",
"501 68 CURVE SMOOTH",
"507 36 OFFCURVE",
"555 30 OFFCURVE",
"562 30 CURVE",
"565 22 OFFCURVE",
"560 0 OFFCURVE",
"557 -4 CURVE",
"520 -2 OFFCURVE",
"486 3 OFFCURVE",
"445 3 CURVE SMOOTH",
"402 3 OFFCURVE",
"358 -2 OFFCURVE",
"320 -4 CURVE",
"316 1 OFFCURVE",
"321 28 OFFCURVE",
"327 30 CURVE",
"341 30 OFFCURVE",
"371 35 OFFCURVE",
"383 45 CURVE SMOOTH",
"388 49 OFFCURVE",
"391 54 OFFCURVE",
"392 60 CURVE SMOOTH",
"396 80 OFFCURVE",
"367 234 OFFCURVE",
"367 234 CURVE",
"367 234 OFFCURVE",
"365 238 OFFCURVE",
"362 238 CURVE SMOOTH",
"332 240 OFFCURVE",
"294 238 OFFCURVE",
"271 238 CURVE SMOOTH",
"233 238 OFFCURVE",
"211 238 OFFCURVE",
"173 236 CURVE SMOOTH",
"171 236 OFFCURVE",
"166 233 OFFCURVE",
"166 232 CURVE",
"166 232 OFFCURVE",
"128 168 OFFCURVE",
"108 130 CURVE SMOOTH",
"92 100 OFFCURVE",
"80 70 OFFCURVE",
"78 60 CURVE SMOOTH",
"73 35 OFFCURVE",
"132 30 OFFCURVE",
"139 30 CURVE",
"142 25 OFFCURVE",
"138 1 OFFCURVE",
"134 -4 CURVE",
"100 -1 OFFCURVE",
"81 3 OFFCURVE",
"40 3 CURVE SMOOTH",
"-3 3 OFFCURVE",
"-22 -1 OFFCURVE",
"-60 -4 CURVE",
"-62 0 OFFCURVE",
"-60 19 OFFCURVE",
"-55 28 CURVE",
"-44 28 OFFCURVE",
"-3 40 OFFCURVE",
"9 54 CURVE SMOOTH",
"31 81 OFFCURVE",
"45 104 OFFCURVE"
);
},
{
closed = 1;
nodes = (
"321 506 LINE",
"197 290 LINE",
"197 290 OFFCURVE",
"197 286 OFFCURVE",
"199 286 CURVE SMOOTH",
"220 284 OFFCURVE",
"256 283 OFFCURVE",
"277 283 CURVE SMOOTH",
"306 283 OFFCURVE",
"325 284 OFFCURVE",
"354 286 CURVE SMOOTH",
"356 286 OFFCURVE",
"358 291 OFFCURVE",
"358 291 CURVE"
);
}
);
width = 601;
}
);
unicode = 0041;
userData = {
com.fontlab.hintData = {
hhints = (
{
position = -4;
width = 34;
},
{
position = 238;
width = 45;
},
{
position = 642;
width = 20;
}
);
};
};
},
{
glyphname = Aogonek;
lastChange = "2017-07-12 19:24:34 +0000";
layers = (
{
layerId = "AF37C979-5169-4EE5-B183-132B179D5F1C";
paths = (
{
closed = 1;
nodes = (
"557 -4 CURVE",
"520 -2 OFFCURVE",
"510 2 OFFCURVE",
"472 2 CURVE SMOOTH",
"386 2 OFFCURVE",
"306 -81 OFFCURVE",
"306 -130 CURVE SMOOTH",
"306 -150 OFFCURVE",
"314 -164 OFFCURVE",
"339 -164 CURVE SMOOTH",
"383 -164 OFFCURVE",
"412 -128 OFFCURVE",
"418 -126 CURVE",
"426 -127 OFFCURVE",
"419 -151 OFFCURVE",
"416 -154 CURVE SMOOTH",
"392 -188 OFFCURVE",
"346 -224 OFFCURVE",
"304 -224 CURVE SMOOTH",
"270 -224 OFFCURVE",
"248 -196 OFFCURVE",
"248 -169 CURVE SMOOTH",
"248 -109 OFFCURVE",
"301 -55 OFFCURVE",
"345 -9 CURVE SMOOTH",
"369 17 OFFCURVE",
"392 28 OFFCURVE",
"392 67 CURVE SMOOTH",
"392 91 OFFCURVE",
"367 234 OFFCURVE",
"367 234 CURVE",
"367 234 OFFCURVE",
"365 238 OFFCURVE",
"362 238 CURVE SMOOTH",
"332 240 OFFCURVE",
"294 238 OFFCURVE",
"271 238 CURVE SMOOTH",
"233 238 OFFCURVE",
"211 238 OFFCURVE",
"173 236 CURVE SMOOTH",
"171 236 OFFCURVE",
"166 233 OFFCURVE",
"166 232 CURVE",
"166 232 OFFCURVE",
"128 168 OFFCURVE",
"108 130 CURVE SMOOTH",
"92 100 OFFCURVE",
"80 70 OFFCURVE",
"78 60 CURVE SMOOTH",
"73 35 OFFCURVE",
"132 30 OFFCURVE",
"139 30 CURVE",
"142 25 OFFCURVE",
"138 1 OFFCURVE",
"134 -4 CURVE",
"100 -1 OFFCURVE",
"81 3 OFFCURVE",
"40 3 CURVE SMOOTH",
"-3 3 OFFCURVE",
"-22 -1 OFFCURVE",
"-60 -4 CURVE",
"-62 0 OFFCURVE",
"-60 19 OFFCURVE",
"-55 28 CURVE",
"-44 28 OFFCURVE",
"-3 40 OFFCURVE",
"9 54 CURVE SMOOTH",
"31 81 OFFCURVE",
"45 104 OFFCURVE",
"63 136 CURVE SMOOTH",
"348 629 LINE SMOOTH",
"356 643 OFFCURVE",
"380 662 OFFCURVE",
"389 662 CURVE SMOOTH",
"395 662 OFFCURVE",
"398 660 OFFCURVE",
"400 658 CURVE",
"400 658 OFFCURVE",
"488 147 OFFCURVE",
"490 137 CURVE",
"496 103 OFFCURVE",
"499 80 OFFCURVE",
"501 68 CURVE SMOOTH",
"507 36 OFFCURVE",
"555 30 OFFCURVE",
"562 30 CURVE",
"565 22 OFFCURVE",
"560 0 OFFCURVE"
);
},
{
closed = 1;
nodes = (
"321 506 LINE",
"197 290 LINE",
"197 290 OFFCURVE",
"197 286 OFFCURVE",
"199 286 CURVE SMOOTH",
"220 284 OFFCURVE",
"256 283 OFFCURVE",
"277 283 CURVE SMOOTH",
"306 283 OFFCURVE",
"325 284 OFFCURVE",
"354 286 CURVE SMOOTH",
"356 286 OFFCURVE",
"358 291 OFFCURVE",
"358 291 CURVE"
);
}
);
width = 601;
}
);
unicode = 0104;
userData = {
com.fontlab.hintData = {
hhints = (
{
position = -224;
width = 60;
},
{
position = -4;
width = 34;
},
{
position = 238;
width = 45;
},
{
position = 642;
width = 20;
}
);
vhints = (
{
position = 248;
width = 58;
}
);
};
};
},
{
glyphname = AE;
lastChange = "2017-07-12 19:24:34 +0000";
layers = (
{
layerId = "AF37C979-5169-4EE5-B183-132B179D5F1C";
paths = (
{
closed = 1;
nodes = (
"485 656 CURVE",
"548 656 OFFCURVE",
"709 664 OFFCURVE",
"787 664 CURVE",
"787 614 OFFCURVE",
"786 567 OFFCURVE",
"787 523 CURVE",
"784 520 OFFCURVE",
"775 518 OFFCURVE",
"768 518 CURVE SMOOTH",
"762 518 OFFCURVE",
"755 521 OFFCURVE",
"755 526 CURVE SMOOTH",
"746 592 OFFCURVE",
"714 618 OFFCURVE",
"669 618 CURVE SMOOTH",
"601 618 LINE SMOOTH",
"571 618 OFFCURVE",
"541 618 OFFCURVE",
"536 606 CURVE SMOOTH",
"529 586 OFFCURVE",
"527 560 OFFCURVE",
"523 526 CURVE SMOOTH",
"507 353 LINE SMOOTH",
"507 347 OFFCURVE",
"523 345 OFFCURVE",
"542 345 CURVE SMOOTH",
"583 345 LINE SMOOTH",
"653 345 OFFCURVE",
"658 351 OFFCURVE",
"684 415 CURVE SMOOTH",
"686 420 OFFCURVE",
"691 422 OFFCURVE",
"697 422 CURVE SMOOTH",
"704 422 OFFCURVE",
"711 421 OFFCURVE",
"713 418 CURVE",
"705 386 OFFCURVE",
"692 258 OFFCURVE",
"690 226 CURVE",
"688 224 OFFCURVE",
"681 222 OFFCURVE",
"675 222 CURVE SMOOTH",
"669 222 OFFCURVE",
"662 224 OFFCURVE",
"662 229 CURVE SMOOTH",
"658 281 OFFCURVE",
"648 287 OFFCURVE",
"640 292 CURVE SMOOTH",
"630 298 OFFCURVE",
"591 299 OFFCURVE",
"556 299 CURVE SMOOTH",
"530 299 OFFCURVE",
"502 297 OFFCURVE",
"501 287 CURVE SMOOTH",
"487 148 LINE SMOOTH",
"487 144 OFFCURVE",
"479 76 OFFCURVE",
"482 62 CURVE SMOOTH",
"484 50 OFFCURVE",
"502 43 OFFCURVE",
"542 43 CURVE SMOOTH",
"580 43 LINE SMOOTH",
"615 43 OFFCURVE",
"655 50 OFFCURVE",
"681 68 CURVE SMOOTH",
"702 84 OFFCURVE",
"723 117 OFFCURVE",
"746 166 CURVE SMOOTH",
"748 170 OFFCURVE",
"753 172 OFFCURVE",
"760 172 CURVE SMOOTH",
"769 172 OFFCURVE",
"782 169 OFFCURVE",
"784 166 CURVE",
"758 112 OFFCURVE",
"727 41 OFFCURVE",
"714 -3 CURVE",
"651 -3 OFFCURVE",
"519 0 OFFCURVE",
"414 0 CURVE SMOOTH",
"351 0 OFFCURVE",
"294 -3 OFFCURVE",
"288 -3 CURVE",
"285 3 OFFCURVE",
"288 28 OFFCURVE",
"293 32 CURVE",
"305 32 OFFCURVE",
"354 39 OFFCURVE",
"360 50 CURVE SMOOTH",
"371 69 OFFCURVE",
"376 109 OFFCURVE",
"381 158 CURVE",
"383 177 OFFCURVE",
"390 256 OFFCURVE",
"392 275 CURVE",
"392 278 OFFCURVE",
"390 281 OFFCURVE",
"387 281 CURVE SMOOTH",
"357 283 OFFCURVE",
"325 282 OFFCURVE",
"313 282 CURVE",
"294 282 OFFCURVE",
"266 282 OFFCURVE",
"236 281 CURVE SMOOTH",
"233 281 OFFCURVE",
"231 279 OFFCURVE",
"229 277 CURVE SMOOTH",
"229 277 OFFCURVE",
"139 147 OFFCURVE",
"129 133 CURVE",
"103 95 OFFCURVE",
"88 67 OFFCURVE",
"87 58 CURVE SMOOTH",
"83 37 OFFCURVE",
"136 28 OFFCURVE",
"144 28 CURVE",
"146 24 OFFCURVE",
"145 0 OFFCURVE",
"141 -4 CURVE",
"107 -1 OFFCURVE",
"79 3 OFFCURVE",
"38 3 CURVE SMOOTH",
"-5 3 OFFCURVE",
"-23 -1 OFFCURVE",
"-61 -4 CURVE",
"-63 -2 OFFCURVE",
"-65 22 OFFCURVE",
"-59 28 CURVE",
"-48 28 OFFCURVE",
"-6 40 OFFCURVE",
"8 54 CURVE SMOOTH",
"34 81 OFFCURVE",
"51 104 OFFCURVE",
"73 136 CURVE SMOOTH",
"387 588 LINE",
"389 590 OFFCURVE",
"394 598 OFFCURVE",
"394 604 CURVE SMOOTH",
"394 614 OFFCURVE",
"380 624 OFFCURVE",
"366 624 CURVE",
"363 628 OFFCURVE",
"366 652 OFFCURVE",
"369 658 CURVE",
"389 656 OFFCURVE",
"465 656 OFFCURVE"
);
},
{
closed = 1;
nodes = (
"421 557 CURVE",
"265 334 LINE",
"265 334 OFFCURVE",
"265 330 OFFCURVE",
"267 330 CURVE SMOOTH",
"285 328 OFFCURVE",
"307 328 OFFCURVE",
"325 328 CURVE SMOOTH",
"349 328 OFFCURVE",
"369 328 OFFCURVE",
"393 330 CURVE",
"394 330 OFFCURVE",
"398 336 OFFCURVE",
"398 336 CURVE",
"398 336 OFFCURVE",
"421 549 OFFCURVE"
);
}
);
width = 827;
}
);
unicode = 00C6;
userData = {
com.fontlab.hintData = {
hhints = (
{
position = -4;
width = 32;
},
{
position = 0;
width = 43;
},
{
position = 282;
width = 46;
},
{
position = 299;
width = 46;
},
{
position = 618;
width = 46;
},
{
position = 618;
width = 38;
}
);
vhints = (
{
position = 392;
width = 90;
},
{
position = 662;
width = 28;
},
{
position = 755;
width = 32;
}
);
};
};
},
{
glyphname = B;
lastChange = "2017-07-12 19:24:34 +0000";
layers = (
{
layerId = "AF37C979-5169-4EE5-B183-132B179D5F1C";
paths = (
{
closed = 1;
nodes = (
"240 371 LINE",
"311 371 LINE SMOOTH",
"367 371 OFFCURVE",
"410 421 OFFCURVE",
"423 487 CURVE SMOOTH",
"441 579 OFFCURVE",
"405 622 OFFCURVE",
"339 622 CURVE SMOOTH",
"323 622 OFFCURVE",
"296 621 OFFCURVE",
"290 611 CURVE SMOOTH",
"283 599 OFFCURVE",
"279 573 OFFCURVE",
"273 543 CURVE SMOOTH"
);
},
{
closed = 1;
nodes = (
"232 333 LINE",
"189 114 LINE SMOOTH",
"187 104 OFFCURVE",
"180 60 OFFCURVE",
"185 50 CURVE SMOOTH",
"193 36 OFFCURVE",
"219 35 OFFCURVE",
"248 35 CURVE SMOOTH",
"304 35 OFFCURVE",
"376 64 OFFCURVE",
"398 176 CURVE SMOOTH",
"413 251 OFFCURVE",
"400 333 OFFCURVE",
"284 333 CURVE SMOOTH"
);
},
{
closed = 1;
nodes = (
"380 660 CURVE SMOOTH",
"466 660 OFFCURVE",
"560 621 OFFCURVE",
"538 506 CURVE SMOOTH",
"522 428 OFFCURVE",
"445 380 OFFCURVE",
"414 368 CURVE SMOOTH",
"409 366 OFFCURVE",
"408 363 OFFCURVE",
"410 362 CURVE",
"455 358 OFFCURVE",
"541 298 OFFCURVE",
"521 196 CURVE SMOOTH",
"509 134 OFFCURVE",
"461 72 OFFCURVE",
"405 38 CURVE SMOOTH",
"347 2 OFFCURVE",
"278 -3 OFFCURVE",
"208 -3 CURVE SMOOTH",
"188 -3 OFFCURVE",
"11 -3 OFFCURVE",
"-7 -3 CURVE",
"-10 3 OFFCURVE",
"-5 24 OFFCURVE",
"0 30 CURVE",
"12 30 OFFCURVE",
"59 34 OFFCURVE",
"65 46 CURVE SMOOTH",
"75 64 OFFCURVE",
"80 94 OFFCURVE",
"87 130 CURVE SMOOTH",
"164 528 LINE SMOOTH",
"171 564 OFFCURVE",
"178 594 OFFCURVE",
"175 612 CURVE SMOOTH",
"173 624 OFFCURVE",
"128 628 OFFCURVE",
"116 628 CURVE",
"113 634 OFFCURVE",
"116 655 OFFCURVE",
"122 661 CURVE",
"162 659 OFFCURVE",
"205 657 OFFCURVE",
"243 657 CURVE SMOOTH",
"281 657 OFFCURVE",
"326 660 OFFCURVE"
);
}
);
width = 578;
}
);
unicode = 0042;
userData = {
com.fontlab.hintData = {
hhints = (
{
position = -3;
width = 38;
},
{
position = 333;
width = 38;
},
{
position = 622;
width = 38;
}
);
};
};
},
{
glyphname = C;
lastChange = "2017-07-12 19:24:34 +0000";
layers = (
{
layerId = "AF37C979-5169-4EE5-B183-132B179D5F1C";
paths = (
{
closed = 1;
nodes = (
"439 628 CURVE SMOOTH",
"295 628 OFFCURVE",
"175 489 OFFCURVE",
"175 275 CURVE SMOOTH",
"175 169 OFFCURVE",
"221 32 OFFCURVE",
"361 32 CURVE SMOOTH",
"413 32 OFFCURVE",
"458 52 OFFCURVE",
"490 79 CURVE SMOOTH",
"530 112 OFFCURVE",
"562 169 OFFCURVE",
"571 188 CURVE",
"585 188 OFFCURVE",
"597 182 OFFCURVE",
"600 178 CURVE",
"597 162 OFFCURVE",
"544 44 OFFCURVE",
"530 34 CURVE",
"475 4 OFFCURVE",
"419 -8 OFFCURVE",
"333 -8 CURVE SMOOTH",
"155 -8 OFFCURVE",
"55 129 OFFCURVE",
"55 270 CURVE SMOOTH",
"55 521 OFFCURVE",
"262 669 OFFCURVE",
"454 667 CURVE SMOOTH",
"513 666 OFFCURVE",
"581 651 OFFCURVE",
"632 639 CURVE",
"631 615 OFFCURVE",
"622 515 OFFCURVE",
"620 494 CURVE SMOOTH",
"619 487 OFFCURVE",
"611 483 OFFCURVE",
"604 483 CURVE",
"600 483 OFFCURVE",
"592 483 OFFCURVE",
"588 489 CURVE",
"590 549 OFFCURVE",
"540 628 OFFCURVE"
);
}
);
width = 645;
}
);
unicode = 0043;
userData = {
com.fontlab.hintData = {
hhints = (
{
position = -8;
width = 40;
},
{
position = 628;
width = 39;
}
);
vhints = (
{
position = 55;
width = 120;
},
{
position = 588;
width = 32;
}
);
};
};
},
{
glyphname = D;
lastChange = "2017-07-12 19:24:34 +0000";
layers = (
{
layerId = "AF37C979-5169-4EE5-B183-132B179D5F1C";
paths = (
{
closed = 1;
nodes = (
"273 543 CURVE SMOOTH",
"193 130 LINE SMOOTH",
"191 120 OFFCURVE",
"181 67 OFFCURVE",
"185 54 CURVE SMOOTH",
"189 42 OFFCURVE",
"219 35 OFFCURVE",
"248 35 CURVE SMOOTH",
"396 35 OFFCURVE",
"505 119 OFFCURVE",
"543 314 CURVE SMOOTH",
"584 525 OFFCURVE",
"495 622 OFFCURVE",
"349 622 CURVE SMOOTH",
"333 622 OFFCURVE",
"297 620 OFFCURVE",
"291 610 CURVE SMOOTH",
"283 596 OFFCURVE",
"279 572 OFFCURVE"
);
},
{
closed = 1;
nodes = (
"382 659 CURVE SMOOTH",
"597 659 OFFCURVE",
"703 521 OFFCURVE",
"665 326 CURVE SMOOTH",
"626 124 OFFCURVE",
"480 -3 OFFCURVE",
"244 -3 CURVE",
"224 -3 OFFCURVE",
"11 -3 OFFCURVE",
"-7 -3 CURVE",
"-10 3 OFFCURVE",
"-5 24 OFFCURVE",
"0 30 CURVE",
"12 30 OFFCURVE",
"59 34 OFFCURVE",
"65 46 CURVE SMOOTH",
"75 64 OFFCURVE",
"80 94 OFFCURVE",
"87 130 CURVE SMOOTH",
"164 528 LINE SMOOTH",
"171 564 OFFCURVE",
"178 594 OFFCURVE",
"175 612 CURVE SMOOTH",
"173 624 OFFCURVE",
"128 628 OFFCURVE",
"116 628 CURVE",
"113 634 OFFCURVE",
"116 655 OFFCURVE",
"122 661 CURVE",
"162 659 OFFCURVE",
"205 657 OFFCURVE",
"243 657 CURVE SMOOTH",
"281 657 OFFCURVE",
"334 659 OFFCURVE"
);
}
);
width = 701;
}
);
unicode = 0044;
userData = {
com.fontlab.hintData = {
hhints = (
{
position = -3;
width = 38;
},
{
position = 622;
width = 37;
}
);
};
};
},
{
glyphname = Eth;
lastChange = "2017-07-12 19:24:34 +0000";
layers = (
{
components = (
{
name = D;
}
);
layerId = "AF37C979-5169-4EE5-B183-132B179D5F1C";
paths = (
{
closed = 1;
nodes = (
"69 346 CURVE",
"97 346 OFFCURVE",
"386 346 OFFCURVE",
"399 346 CURVE SMOOTH",
"403 346 OFFCURVE",
"405 342 OFFCURVE",
"404 338 CURVE SMOOTH",
"403 333 OFFCURVE",
"399 315 OFFCURVE",
"394 308 CURVE",
"366 308 OFFCURVE",
"76 308 OFFCURVE",
"63 308 CURVE SMOOTH",
"59 308 OFFCURVE",
"59 316 OFFCURVE",
"60 320 CURVE SMOOTH",
"61 325 OFFCURVE",
"62 339 OFFCURVE"
);
}
);
width = 701;
}
);
unicode = 00D0;
userData = {
com.fontlab.hintData = {
hhints = (
{
position = -3;
width = 38;
},
{
position = 308;
width = 38;
},
{
position = 622;
width = 37;
}
);
};
};
},
{
glyphname = E;
lastChange = "2017-07-12 19:24:34 +0000";
layers = (
{
layerId = "AF37C979-5169-4EE5-B183-132B179D5F1C";
paths = (
{
closed = 1;
nodes = (
"244 656 CURVE SMOOTH",
"307 656 OFFCURVE",
"468 664 OFFCURVE",
"546 664 CURVE",
"543 614 OFFCURVE",
"546 567 OFFCURVE",
"546 522 CURVE",
"543 519 OFFCURVE",
"532 517 OFFCURVE",
"525 517 CURVE SMOOTH",
"518 517 OFFCURVE",
"513 519 OFFCURVE",
"513 524 CURVE SMOOTH",
"506 592 OFFCURVE",
"480 620 OFFCURVE",
"427 620 CURVE SMOOTH",
"348 620 LINE",
"332 620 OFFCURVE",
"297 619 OFFCURVE",
"291 609 CURVE SMOOTH",
"283 595 OFFCURVE",
"280 571 OFFCURVE",
"274 543 CURVE SMOOTH",
"238 362 LINE SMOOTH",
"237 356 OFFCURVE",
"257 353 OFFCURVE",
"277 353 CURVE SMOOTH",
"326 353 LINE SMOOTH",
"398 353 OFFCURVE",
"404 362 OFFCURVE",
"432 424 CURVE SMOOTH",
"434 429 OFFCURVE",
"439 432 OFFCURVE",
"446 432 CURVE SMOOTH",
"453 432 OFFCURVE",
"459 429 OFFCURVE",
"461 426 CURVE",
"425 236 LINE",
"423 234 OFFCURVE",
"415 232 OFFCURVE",
"408 232 CURVE SMOOTH",
"401 232 OFFCURVE",
"396 235 OFFCURVE",
"396 240 CURVE SMOOTH",
"394 292 OFFCURVE",
"387 299 OFFCURVE",
"379 304 CURVE SMOOTH",
"369 310 OFFCURVE",
"331 311 OFFCURVE",
"296 311 CURVE SMOOTH",
"270 311 OFFCURVE",
"228 310 OFFCURVE",
"226 300 CURVE SMOOTH",
"193 128 LINE SMOOTH",
"191 118 OFFCURVE",
"181 66 OFFCURVE",
"185 54 CURVE SMOOTH",
"191 42 OFFCURVE",
"213 40 OFFCURVE",
"245 40 CURVE",
"298 40 LINE SMOOTH",
"333 40 OFFCURVE",
"378 49 OFFCURVE",
"406 68 CURVE SMOOTH",
"428 84 OFFCURVE",
"454 117 OFFCURVE",
"479 166 CURVE SMOOTH",
"481 170 OFFCURVE",
"487 172 OFFCURVE",
"494 172 CURVE SMOOTH",
"503 172 OFFCURVE",
"516 169 OFFCURVE",
"518 166 CURVE",
"490 112 OFFCURVE",
"450 41 OFFCURVE",
"435 -3 CURVE",
"372 -3 OFFCURVE",
"239 -1 OFFCURVE",
"114 -1 CURVE SMOOTH",
"60 -1 OFFCURVE",
"18 -3 OFFCURVE",
"-6 -3 CURVE",
"-9 3 OFFCURVE",
"-6 24 OFFCURVE",
"0 30 CURVE",
"12 30 OFFCURVE",
"60 34 OFFCURVE",
"66 46 CURVE SMOOTH",
"76 64 OFFCURVE",
"81 94 OFFCURVE",
"88 130 CURVE SMOOTH",
"165 528 LINE SMOOTH",
"172 564 OFFCURVE",
"178 594 OFFCURVE",
"175 612 CURVE SMOOTH",
"173 624 OFFCURVE",
"128 628 OFFCURVE",
"116 628 CURVE",
"113 634 OFFCURVE",
"117 655 OFFCURVE",
"123 661 CURVE",
"163 659 OFFCURVE",
"206 656 OFFCURVE"
);
}
);
width = 565;
}
);
unicode = 0045;
userData = {
com.fontlab.hintData = {
hhints = (
{
position = -1;
width = 41;
},
{
position = -1;
width = 31;
},
{
position = 311;
width = 42;
},
{
position = 620;
width = 44;
},
{
position = 620;
width = 36;
},
{
position = 628;
width = 33;
}
);
vhints = (
{
position = 396;
width = 29;
},
{
position = 513;
width = 33;
}
);
};
};
},
{
glyphname = Eogonek;
lastChange = "2017-07-12 19:24:34 +0000";
layers = (
{
layerId = "AF37C979-5169-4EE5-B183-132B179D5F1C";
paths = (
{
closed = 1;
nodes = (
"215 -170 CURVE SMOOTH",
"215 -114 OFFCURVE",
"272 -30 OFFCURVE",
"336 -2 CURVE",
"272 -2 OFFCURVE",
"191 -1 OFFCURVE",
"116 -1 CURVE SMOOTH",
"61 -1 OFFCURVE",
"18 -3 OFFCURVE",
"-6 -3 CURVE",
"-9 3 OFFCURVE",
"-6 24 OFFCURVE",
"0 30 CURVE",
"12 30 OFFCURVE",
"60 34 OFFCURVE",
"66 46 CURVE SMOOTH",
"76 64 OFFCURVE",
"81 94 OFFCURVE",
"88 130 CURVE SMOOTH",
"165 528 LINE SMOOTH",
"172 564 OFFCURVE",
"178 594 OFFCURVE",
"175 612 CURVE SMOOTH",
"173 624 OFFCURVE",
"128 628 OFFCURVE",
"116 628 CURVE",
"113 634 OFFCURVE",
"117 655 OFFCURVE",
"123 661 CURVE",
"163 659 OFFCURVE",
"206 656 OFFCURVE",
"244 656 CURVE SMOOTH",
"307 656 OFFCURVE",
"468 664 OFFCURVE",
"546 664 CURVE",
"543 614 OFFCURVE",
"546 567 OFFCURVE",
"546 522 CURVE",
"543 519 OFFCURVE",
"532 517 OFFCURVE",
"525 517 CURVE SMOOTH",
"518 517 OFFCURVE",
"513 519 OFFCURVE",
"513 524 CURVE SMOOTH",
"506 592 OFFCURVE",
"480 620 OFFCURVE",
"427 620 CURVE SMOOTH",
"348 620 LINE SMOOTH",
"332 620 OFFCURVE",
"297 619 OFFCURVE",
"291 609 CURVE SMOOTH",
"283 595 OFFCURVE",
"280 571 OFFCURVE",
"274 543 CURVE SMOOTH",
"238 362 LINE SMOOTH",
"237 356 OFFCURVE",
"257 353 OFFCURVE",
"277 353 CURVE SMOOTH",
"326 353 LINE SMOOTH",
"398 353 OFFCURVE",
"404 362 OFFCURVE",
"432 424 CURVE SMOOTH",
"434 429 OFFCURVE",
"439 432 OFFCURVE",
"446 432 CURVE SMOOTH",
"453 432 OFFCURVE",
"459 429 OFFCURVE",
"461 426 CURVE",
"425 236 LINE",
"423 234 OFFCURVE",
"415 232 OFFCURVE",
"408 232 CURVE SMOOTH",
"401 232 OFFCURVE",
"396 235 OFFCURVE",
"396 240 CURVE SMOOTH",
"394 292 OFFCURVE",
"387 299 OFFCURVE",
"379 304 CURVE SMOOTH",
"369 310 OFFCURVE",
"331 311 OFFCURVE",
"296 311 CURVE SMOOTH",
"270 311 OFFCURVE",
"228 310 OFFCURVE",
"226 300 CURVE SMOOTH",
"193 128 LINE SMOOTH",
"191 118 OFFCURVE",
"181 66 OFFCURVE",
"185 54 CURVE SMOOTH",
"191 42 OFFCURVE",
"213 39 OFFCURVE",
"245 39 CURVE SMOOTH",
"298 39 LINE SMOOTH",
"333 39 OFFCURVE",
"378 49 OFFCURVE",
"406 68 CURVE SMOOTH",
"428 84 OFFCURVE",
"454 117 OFFCURVE",
"479 166 CURVE SMOOTH",
"481 170 OFFCURVE",
"487 172 OFFCURVE",
"494 172 CURVE SMOOTH",
"503 172 OFFCURVE",
"516 169 OFFCURVE",
"518 166 CURVE",
"490 112 OFFCURVE",
"450 41 OFFCURVE",
"435 -3 CURVE",
"353 -3 OFFCURVE",
"273 -78 OFFCURVE",
"273 -130 CURVE SMOOTH",
"273 -150 OFFCURVE",
"281 -164 OFFCURVE",
"306 -164 CURVE SMOOTH",
"350 -164 OFFCURVE",
"378 -128 OFFCURVE",
"384 -126 CURVE",
"392 -127 OFFCURVE",
"386 -151 OFFCURVE",
"383 -154 CURVE SMOOTH",
"359 -188 OFFCURVE",
"312 -224 OFFCURVE",
"270 -224 CURVE SMOOTH",
"235 -224 OFFCURVE",
"215 -197 OFFCURVE"
);
}
);
width = 565;
}
);
unicode = 0118;
userData = {
com.fontlab.hintData = {
hhints = (
{
position = -224;
width = 60;
},
{
position = -3;
width = 42;
},
{
position = -1;
width = 31;
},
{
position = 311;
width = 42;
},
{
position = 620;
width = 44;
},
{
position = 620;
width = 36;
},
{
position = 628;
width = 33;
}
);
vhints = (
{
position = 215;
width = 58;
},
{
position = 396;
width = 29;
},
{
position = 513;
width = 33;
}
);
};
};
},
{
glyphname = F;
lastChange = "2017-07-12 19:24:34 +0000";
layers = (
{
layerId = "AF37C979-5169-4EE5-B183-132B179D5F1C";
paths = (
{
closed = 1;
nodes = (
"243 656 CURVE SMOOTH",
"306 656 OFFCURVE",
"467 664 OFFCURVE",
"545 664 CURVE",
"542 614 OFFCURVE",
"545 567 OFFCURVE",
"545 522 CURVE",
"542 519 OFFCURVE",
"531 517 OFFCURVE",
"524 517 CURVE SMOOTH",
"517 517 OFFCURVE",
"512 519 OFFCURVE",
"512 524 CURVE SMOOTH",
"505 592 OFFCURVE",
"479 620 OFFCURVE",
"426 620 CURVE SMOOTH",
"348 620 LINE",
"332 620 OFFCURVE",
"296 619 OFFCURVE",
"290 609 CURVE SMOOTH",
"282 595 OFFCURVE",
"279 571 OFFCURVE",
"273 543 CURVE SMOOTH",
"237 360 LINE SMOOTH",
"236 354 OFFCURVE",
"256 351 OFFCURVE",
"276 351 CURVE SMOOTH",
"325 351 LINE SMOOTH",
"397 351 OFFCURVE",
"403 360 OFFCURVE",
"431 422 CURVE SMOOTH",
"433 427 OFFCURVE",
"438 430 OFFCURVE",
"445 430 CURVE SMOOTH",
"452 430 OFFCURVE",
"458 427 OFFCURVE",
"460 424 CURVE",
"424 234 LINE",
"422 232 OFFCURVE",
"414 230 OFFCURVE",
"407 230 CURVE SMOOTH",
"400 230 OFFCURVE",
"395 233 OFFCURVE",
"395 238 CURVE SMOOTH",
"393 290 OFFCURVE",
"386 297 OFFCURVE",
"378 302 CURVE SMOOTH",
"368 308 OFFCURVE",
"330 309 OFFCURVE",
"295 309 CURVE SMOOTH",
"269 309 OFFCURVE",
"227 308 OFFCURVE",
"225 298 CURVE SMOOTH",
"193 130 LINE SMOOTH",
"186 94 OFFCURVE",
"180 64 OFFCURVE",
"183 46 CURVE SMOOTH",
"185 34 OFFCURVE",
"238 29 OFFCURVE",
"250 29 CURVE",
"253 23 OFFCURVE",
"249 2 OFFCURVE",
"243 -4 CURVE",
"207 -1 OFFCURVE",
"153 2 OFFCURVE",
"115 2 CURVE SMOOTH",
"74 2 OFFCURVE",
"30 -2 OFFCURVE",
"-7 -4 CURVE",
"-10 2 OFFCURVE",
"-5 23 OFFCURVE",
"0 29 CURVE",
"12 29 OFFCURVE",
"59 34 OFFCURVE",
"65 46 CURVE SMOOTH",
"75 64 OFFCURVE",
"80 94 OFFCURVE",
"87 130 CURVE SMOOTH",
"165 528 LINE SMOOTH",
"172 564 OFFCURVE",
"178 594 OFFCURVE",
"175 612 CURVE SMOOTH",
"173 624 OFFCURVE",
"128 628 OFFCURVE",
"116 628 CURVE",
"113 634 OFFCURVE",
"117 655 OFFCURVE",
"123 661 CURVE",
"163 659 OFFCURVE",
"205 656 OFFCURVE"
);
}
);
width = 517;
}
);
unicode = 0046;
userData = {
com.fontlab.hintData = {
hhints = (
{
position = -4;
width = 33;
},
{
position = 309;
width = 42;
},
{
position = 620;
width = 44;
},
{
position = 620;
width = 36;
},
{
position = 628;
width = 33;
}
);
vhints = (
{
position = 395;
width = 29;
},
{
position = 512;
width = 33;
}
);
};
};
},
{
glyphname = G;
lastChange = "2017-07-12 19:24:34 +0000";
layers = (
{
layerId = "AF37C979-5169-4EE5-B183-132B179D5F1C";
paths = (
{
closed = 1;
nodes = (
"454 667 CURVE SMOOTH",
"513 666 OFFCURVE",
"581 651 OFFCURVE",
"632 639 CURVE",
"631 615 OFFCURVE",
"622 515 OFFCURVE",
"620 494 CURVE SMOOTH",
"619 487 OFFCURVE",
"611 483 OFFCURVE",
"604 483 CURVE",
"600 483 OFFCURVE",
"592 483 OFFCURVE",
"588 489 CURVE",
"590 549 OFFCURVE",
"549 628 OFFCURVE",
"449 628 CURVE SMOOTH",
"305 628 OFFCURVE",
"175 489 OFFCURVE",
"175 275 CURVE SMOOTH",
"175 169 OFFCURVE",
"222 32 OFFCURVE",
"358 32 CURVE SMOOTH",
"399 32 OFFCURVE",
"426 42 OFFCURVE",
"444 54 CURVE SMOOTH",
"449 57 OFFCURVE",
"452 62 OFFCURVE",
"454 70 CURVE SMOOTH",
"458 91 OFFCURVE",
"472 162 OFFCURVE",
"476 186 CURVE",
"481 211 OFFCURVE",
"486 229 OFFCURVE",
"484 248 CURVE SMOOTH",
"482 266 OFFCURVE",
"431 270 OFFCURVE",
"420 270 CURVE",
"416 272 OFFCURVE",
"420 298 OFFCURVE",
"426 303 CURVE",
"468 301 OFFCURVE",
"513 297 OFFCURVE",
"555 297 CURVE SMOOTH",
"593 297 OFFCURVE",
"626 301 OFFCURVE",
"664 303 CURVE",
"666 294 OFFCURVE",
"661 272 OFFCURVE",
"657 270 CURVE",
"648 270 OFFCURVE",
"610 264 OFFCURVE",
"602 255 CURVE SMOOTH",
"595 245 OFFCURVE",
"587 220 OFFCURVE",
"582 196 CURVE",
"578 178 OFFCURVE",
"568 118 OFFCURVE",
"564 101 CURVE",
"561 86 OFFCURVE",
"565 76 OFFCURVE",
"565 68 CURVE SMOOTH",
"564 59 OFFCURVE",
"552 49 OFFCURVE",
"536 41 CURVE SMOOTH",
"488 17 OFFCURVE",
"434 -8 OFFCURVE",
"330 -8 CURVE SMOOTH",
"156 -8 OFFCURVE",
"55 129 OFFCURVE",
"55 270 CURVE SMOOTH",
"55 521 OFFCURVE",
"262 669 OFFCURVE"
);
}
);
width = 682;
}
);
unicode = 0047;
userData = {
com.fontlab.hintData = {
hhints = (
{
position = -8;
width = 40;
},
{
position = 270;
width = 33;
},
{
position = 628;
width = 39;
}
);
vhints = (
{
position = 55;
width = 120;
},
{
position = 484;
width = 81;
},
{
position = 588;
width = 32;
}
);
};
};
},
{
glyphname = H;
lastChange = "2017-07-12 19:24:34 +0000";
layers = (
{
layerId = "AF37C979-5169-4EE5-B183-132B179D5F1C";
paths = (
{
closed = 1;
nodes = (
"243 656 CURVE SMOOTH",
"280 656 OFFCURVE",
"326 659 OFFCURVE",
"364 662 CURVE",
"368 656 OFFCURVE",
"364 635 OFFCURVE",
"358 629 CURVE",
"346 629 OFFCURVE",
"299 624 OFFCURVE",
"293 612 CURVE SMOOTH",
"283 594 OFFCURVE",
"277 564 OFFCURVE",
"270 528 CURVE SMOOTH",
"239 368 LINE",
"239 366 OFFCURVE",
"240 365 OFFCURVE",
"240 365 CURVE",
"280 364 OFFCURVE",
"322 362 OFFCURVE",
"369 362 CURVE SMOOTH",
"408 362 OFFCURVE",
"457 364 OFFCURVE",
"495 365 CURVE",
"495 365 OFFCURVE",
"498 367 OFFCURVE",
"498 369 CURVE",
"528 528 LINE SMOOTH",
"535 564 OFFCURVE",
"541 594 OFFCURVE",
"538 612 CURVE SMOOTH",
"536 624 OFFCURVE",
"492 629 OFFCURVE",
"480 629 CURVE",
"477 635 OFFCURVE",
"480 656 OFFCURVE",
"486 662 CURVE",
"523 659 OFFCURVE",
"569 656 OFFCURVE",
"607 656 CURVE SMOOTH",
"645 656 OFFCURVE",
"690 659 OFFCURVE",
"728 662 CURVE",
"732 656 OFFCURVE",
"727 635 OFFCURVE",
"721 629 CURVE",
"709 629 OFFCURVE",
"662 624 OFFCURVE",
"656 612 CURVE SMOOTH",
"646 594 OFFCURVE",
"641 564 OFFCURVE",
"634 528 CURVE SMOOTH",
"557 130 LINE SMOOTH",
"550 94 OFFCURVE",
"543 64 OFFCURVE",
"546 46 CURVE SMOOTH",
"548 34 OFFCURVE",
"593 29 OFFCURVE",
"605 29 CURVE",
"608 23 OFFCURVE",
"604 2 OFFCURVE",
"598 -4 CURVE",
"562 -1 OFFCURVE",
"516 2 OFFCURVE",
"478 2 CURVE SMOOTH",
"440 2 OFFCURVE",
"395 -1 OFFCURVE",
"357 -4 CURVE",
"353 2 OFFCURVE",
"357 23 OFFCURVE",
"363 29 CURVE",
"375 29 OFFCURVE",
"423 34 OFFCURVE",
"429 46 CURVE SMOOTH",
"439 64 OFFCURVE",
"444 94 OFFCURVE",
"451 130 CURVE SMOOTH",
"487 314 LINE",
"487 316 OFFCURVE",
"486 318 OFFCURVE",
"486 318 CURVE",
"447 319 OFFCURVE",
"403 320 OFFCURVE",
"361 320 CURVE SMOOTH",
"245 320 OFFCURVE",
"234 318 OFFCURVE",
"230 316 CURVE",
"229 315 OFFCURVE",
"228 313 OFFCURVE",
"228 313 CURVE",
"193 130 LINE SMOOTH",
"186 94 OFFCURVE",
"180 64 OFFCURVE",
"183 46 CURVE SMOOTH",
"185 34 OFFCURVE",
"229 29 OFFCURVE",
"241 29 CURVE",
"244 23 OFFCURVE",
"241 2 OFFCURVE",
"235 -4 CURVE",
"199 -1 OFFCURVE",
"153 2 OFFCURVE",
"115 2 CURVE SMOOTH",
"78 2 OFFCURVE",
"31 -1 OFFCURVE",
"-7 -4 CURVE",
"-10 2 OFFCURVE",
"-5 23 OFFCURVE",
"0 29 CURVE",
"12 29 OFFCURVE",
"59 34 OFFCURVE",
"65 46 CURVE SMOOTH",
"75 64 OFFCURVE",
"80 94 OFFCURVE",
"87 130 CURVE SMOOTH",
"165 528 LINE SMOOTH",
"172 564 OFFCURVE",
"178 594 OFFCURVE",
"175 612 CURVE SMOOTH",
"173 624 OFFCURVE",
"128 629 OFFCURVE",
"116 629 CURVE",
"113 635 OFFCURVE",
"117 656 OFFCURVE",
"123 662 CURVE",
"160 659 OFFCURVE",
"205 656 OFFCURVE"
);
}
);
width = 696;
}
);
unicode = 0048;
userData = {
com.fontlab.hintData = {
hhints = (
{
position = -4;
width = 33;
},
{
position = 320;
width = 45;
},
{
position = 629;
width = 33;
}
);
};
};
},
{
glyphname = Hbar;
lastChange = "2017-07-12 19:24:34 +0000";
layers = (
{
components = (
{
name = H;
transform = "{1, 0, 0, 1, 1, 0}";
}
);
layerId = "AF37C979-5169-4EE5-B183-132B179D5F1C";
paths = (
{
closed = 1;
nodes = (
"106 510 CURVE",
"131 510 OFFCURVE",
"665 510 OFFCURVE",
"677 510 CURVE SMOOTH",
"680 510 OFFCURVE",
"681 507 OFFCURVE",
"680 503 CURVE SMOOTH",
"679 498 OFFCURVE",
"674 482 OFFCURVE",
"669 474 CURVE",
"644 474 OFFCURVE",
"108 474 OFFCURVE",
"96 474 CURVE SMOOTH",
"93 474 OFFCURVE",
"93 482 OFFCURVE",
"94 486 CURVE SMOOTH",
"95 491 OFFCURVE",
"99 502 OFFCURVE"
);
}
);
width = 696;
}
);
unicode = 0126;
userData = {
com.fontlab.hintData = {
hhints = (
{
position = -4;
width = 33;
},
{
position = 320;
width = 45;
},
{
position = 474;
width = 36;
},
{
position = 629;
width = 33;
}
);
};
};
},
{
glyphname = I;
lastChange = "2017-07-12 19:24:34 +0000";
layers = (
{
layerId = "AF37C979-5169-4EE5-B183-132B179D5F1C";
paths = (
{
closed = 1;
nodes = (
"243 656 CURVE SMOOTH",
"280 656 OFFCURVE",
"326 659 OFFCURVE",
"364 662 CURVE",
"368 656 OFFCURVE",
"364 635 OFFCURVE",
"358 629 CURVE",
"346 629 OFFCURVE",
"299 624 OFFCURVE",
"293 612 CURVE SMOOTH",
"283 594 OFFCURVE",
"277 564 OFFCURVE",
"270 528 CURVE SMOOTH",
"193 130 LINE SMOOTH",
"186 94 OFFCURVE",
"180 64 OFFCURVE",
"183 46 CURVE SMOOTH",
"185 34 OFFCURVE",
"229 29 OFFCURVE",
"241 29 CURVE",
"244 23 OFFCURVE",
"241 2 OFFCURVE",
"235 -4 CURVE",
"199 -1 OFFCURVE",
"153 2 OFFCURVE",
"115 2 CURVE SMOOTH",
"78 2 OFFCURVE",
"31 -1 OFFCURVE",
"-7 -4 CURVE",
"-10 2 OFFCURVE",
"-5 23 OFFCURVE",
"0 29 CURVE",
"12 29 OFFCURVE",
"59 34 OFFCURVE",
"65 46 CURVE SMOOTH",
"75 64 OFFCURVE",
"80 94 OFFCURVE",
"87 130 CURVE SMOOTH",
"165 528 LINE SMOOTH",
"172 564 OFFCURVE",
"178 594 OFFCURVE",
"175 612 CURVE SMOOTH",
"173 624 OFFCURVE",
"128 629 OFFCURVE",
"116 629 CURVE",
"113 635 OFFCURVE",
"117 656 OFFCURVE",
"123 662 CURVE",
"160 659 OFFCURVE",
"205 656 OFFCURVE"
);
}
);
width = 333;
}
);
unicode = 0049;
userData = {
com.fontlab.hintData = {
hhints = (
{
position = -4;
width = 33;
},
{
position = 629;
width = 33;
}
);
};
};
},
{
glyphname = Iogonek;
lastChange = "2017-07-12 19:24:34 +0000";
layers = (
{
layerId = "AF37C979-5169-4EE5-B183-132B179D5F1C";
paths = (
{
closed = 1;
nodes = (
"241 29 CURVE",
"243 23 OFFCURVE",
"239 1 OFFCURVE",
"235 -4 CURVE",
"223 -4 OFFCURVE",
"199 -4 OFFCURVE",
"179 -8 CURVE SMOOTH",
"117 -22 OFFCURVE",
"57 -82 OFFCURVE",
"57 -130 CURVE SMOOTH",
"57 -150 OFFCURVE",
"65 -164 OFFCURVE",
"90 -164 CURVE SMOOTH",
"134 -164 OFFCURVE",
"163 -128 OFFCURVE",
"169 -126 CURVE",
"177 -127 OFFCURVE",
"170 -151 OFFCURVE",
"167 -154 CURVE SMOOTH",
"143 -188 OFFCURVE",
"97 -224 OFFCURVE",
"55 -224 CURVE SMOOTH",
"21 -224 OFFCURVE",
"0 -197 OFFCURVE",
"0 -170 CURVE SMOOTH",
"0 -100 OFFCURVE",
"72 -20 OFFCURVE",
"119 3 CURVE",
"82 3 OFFCURVE",
"30 -1 OFFCURVE",
"-7 -4 CURVE",
"-10 2 OFFCURVE",
"-5 23 OFFCURVE",
"0 29 CURVE",
"12 29 OFFCURVE",
"59 34 OFFCURVE",
"65 46 CURVE SMOOTH",
"75 64 OFFCURVE",
"80 94 OFFCURVE",
"87 130 CURVE SMOOTH",
"165 528 LINE SMOOTH",
"172 564 OFFCURVE",
"178 594 OFFCURVE",
"175 612 CURVE SMOOTH",
"173 624 OFFCURVE",
"128 629 OFFCURVE",
"116 629 CURVE",
"113 635 OFFCURVE",
"117 656 OFFCURVE",
"123 662 CURVE",
"160 659 OFFCURVE",
"205 656 OFFCURVE",
"243 656 CURVE SMOOTH",
"280 656 OFFCURVE",
"326 659 OFFCURVE",
"364 662 CURVE",
"368 656 OFFCURVE",
"364 635 OFFCURVE",
"358 629 CURVE",
"346 629 OFFCURVE",
"299 624 OFFCURVE",
"293 612 CURVE SMOOTH",
"283 594 OFFCURVE",
"277 564 OFFCURVE",
"270 528 CURVE SMOOTH",
"193 130 LINE SMOOTH",
"186 94 OFFCURVE",
"180 64 OFFCURVE",
"183 46 CURVE SMOOTH",
"185 34 OFFCURVE",
"229 29 OFFCURVE"
);
}
);
width = 333;
}
);
unicode = 012E;
userData = {
com.fontlab.hintData = {
hhints = (
{
position = -224;
width = 60;
},
{
position = -4;
width = 33;
},
{
position = 629;
width = 33;
}
);
vhints = (
{
position = 0;
width = 57;
}
);
};
};
},
{
glyphname = J;
lastChange = "2017-07-12 19:24:34 +0000";
layers = (
{
layerId = "AF37C979-5169-4EE5-B183-132B179D5F1C";
paths = (
{
closed = 1;
nodes = (
"234 654 CURVE SMOOTH",
"274 654 OFFCURVE",
"314 657 OFFCURVE",
"352 660 CURVE",
"354 657 OFFCURVE",
"352 635 OFFCURVE",
"347 628 CURVE",
"337 628 OFFCURVE",
"292 620 OFFCURVE",
"286 608 CURVE SMOOTH",
"274 584 OFFCURVE",
"266 550 OFFCURVE",
"260 514 CURVE SMOOTH",
"187 130 LINE SMOOTH",
"140 -116 OFFCURVE",
"-32 -217 OFFCURVE",
"-102 -226 CURVE",
"-106 -223 OFFCURVE",
"-109 -215 OFFCURVE",
"-109 -210 CURVE SMOOTH",
"-109 -208 OFFCURVE",
"-108 -204 OFFCURVE",
"-108 -204 CURVE",
"0 -158 OFFCURVE",
"48 -57 OFFCURVE",
"82 122 CURVE SMOOTH",
"156 512 LINE SMOOTH",
"163 551 OFFCURVE",
"168 578 OFFCURVE",
"166 606 CURVE SMOOTH",
"165 621 OFFCURVE",
"119 628 OFFCURVE",
"107 628 CURVE",
"105 632 OFFCURVE",
"110 655 OFFCURVE",
"114 660 CURVE",
"152 657 OFFCURVE",
"193 654 OFFCURVE"
);
}
);
width = 317;
}
);
unicode = 004A;
userData = {
com.fontlab.hintData = {
hhints = (
{
position = -226;
width = 22;
},
{
position = 628;
width = 32;
}
);
};
};
},
{
glyphname = K;
lastChange = "2017-07-12 19:24:34 +0000";
layers = (
{
layerId = "AF37C979-5169-4EE5-B183-132B179D5F1C";
paths = (
{
closed = 1;
nodes = (
"501 106 CURVE SMOOTH",
"549 37 OFFCURVE",
"588 30 OFFCURVE",
"616 28 CURVE",
"620 22 OFFCURVE",
"612 0 OFFCURVE",
"611 -2 CURVE",
"567 -3 OFFCURVE",
"541 -3 OFFCURVE",
"513 1 CURVE SMOOTH",
"457 3 OFFCURVE",
"425 22 OFFCURVE",
"391 72 CURVE SMOOTH",
"372 100 OFFCURVE",
"302 209 OFFCURVE",
"244 303 CURVE SMOOTH",
"242 306 OFFCURVE",
"239 306 OFFCURVE",
"236 306 CURVE SMOOTH",
"232 306 OFFCURVE",
"228 304 OFFCURVE",
"226 302 CURVE",
"193 130 LINE SMOOTH",
"186 94 OFFCURVE",
"180 64 OFFCURVE",
"183 46 CURVE SMOOTH",
"185 34 OFFCURVE",
"229 29 OFFCURVE",
"241 29 CURVE",
"244 23 OFFCURVE",
"241 2 OFFCURVE",
"235 -4 CURVE",
"199 -1 OFFCURVE",
"153 2 OFFCURVE",
"115 2 CURVE SMOOTH",
"78 2 OFFCURVE",
"31 -1 OFFCURVE",
"-7 -4 CURVE",
"-10 2 OFFCURVE",
"-5 23 OFFCURVE",
"0 29 CURVE",
"12 29 OFFCURVE",
"59 34 OFFCURVE",
"65 46 CURVE SMOOTH",
"75 64 OFFCURVE",
"80 94 OFFCURVE",
"87 130 CURVE SMOOTH",
"164 528 LINE SMOOTH",
"171 564 OFFCURVE",
"178 594 OFFCURVE",
"175 612 CURVE SMOOTH",
"173 624 OFFCURVE",
"128 629 OFFCURVE",
"116 629 CURVE",
"113 635 OFFCURVE",
"117 656 OFFCURVE",
"123 662 CURVE",
"160 659 OFFCURVE",
"205 656 OFFCURVE",
"243 656 CURVE SMOOTH",
"280 656 OFFCURVE",
"326 659 OFFCURVE",
"364 662 CURVE",
"368 656 OFFCURVE",
"364 635 OFFCURVE",
"358 629 CURVE",
"346 629 OFFCURVE",
"298 624 OFFCURVE",
"292 612 CURVE SMOOTH",
"282 594 OFFCURVE",
"277 564 OFFCURVE",
"270 528 CURVE SMOOTH",
"233 338 LINE",
"268 362 OFFCURVE",
"316 402 OFFCURVE",
"352 434 CURVE SMOOTH",
"430 503 OFFCURVE",
"446 515 OFFCURVE",
"499 573 CURVE SMOOTH",
"509 583 OFFCURVE",
"515 597 OFFCURVE",
"517 605 CURVE SMOOTH",
"521 628 OFFCURVE",
"479 629 OFFCURVE",
"469 629 CURVE",
"467 636 OFFCURVE",
"470 653 OFFCURVE",
"475 662 CURVE",
"509 660 OFFCURVE",
"553 656 OFFCURVE",
"587 656 CURVE SMOOTH",
"628 656 OFFCURVE",
"660 659 OFFCURVE",
"696 662 CURVE",
"697 656 OFFCURVE",
"694 633 OFFCURVE",
"688 630 CURVE",
"679 629 OFFCURVE",
"621 625 OFFCURVE",
"582 589 CURVE",
"533 542 OFFCURVE",
"432 453 OFFCURVE",
"341 371 CURVE SMOOTH",
"334 365 OFFCURVE",
"334 360 OFFCURVE",
"337 355 CURVE SMOOTH",
"398 256 OFFCURVE",
"446 182 OFFCURVE"
);
}
);
width = 650;
}
);
unicode = 004B;
userData = {
com.fontlab.hintData = {
hhints = (
{
position = -4;
width = 33;
},
{
position = 629;
width = 33;
}
);
};
};
},
{
glyphname = L;
lastChange = "2017-07-12 19:24:34 +0000";
layers = (
{
layerId = "AF37C979-5169-4EE5-B183-132B179D5F1C";
paths = (
{
closed = 1;
nodes = (
"192 130 LINE SMOOTH",
"190 120 OFFCURVE",
"180 66 OFFCURVE",
"184 54 CURVE SMOOTH",
"190 42 OFFCURVE",
"212 39 OFFCURVE",
"244 39 CURVE",
"302 39 LINE SMOOTH",
"337 39 OFFCURVE",
"377 47 OFFCURVE",
"405 68 CURVE SMOOTH",
"431 87 OFFCURVE",
"453 117 OFFCURVE",
"478 166 CURVE SMOOTH",
"480 170 OFFCURVE",
"486 172 OFFCURVE",
"493 172 CURVE SMOOTH",
"502 172 OFFCURVE",
"515 169 OFFCURVE",
"517 166 CURVE",
"489 112 OFFCURVE",
"449 41 OFFCURVE",
"434 -3 CURVE",
"370 -3 OFFCURVE",
"240 -1 OFFCURVE",
"115 -1 CURVE SMOOTH",
"60 -1 OFFCURVE",
"18 -3 OFFCURVE",
"-7 -3 CURVE",
"-10 3 OFFCURVE",
"-5 24 OFFCURVE",
"0 30 CURVE",
"12 30 OFFCURVE",
"59 34 OFFCURVE",
"65 46 CURVE SMOOTH",
"75 64 OFFCURVE",
"80 94 OFFCURVE",
"87 130 CURVE SMOOTH",
"164 528 LINE SMOOTH",
"171 564 OFFCURVE",
"178 594 OFFCURVE",
"175 612 CURVE SMOOTH",
"173 624 OFFCURVE",
"128 629 OFFCURVE",
"116 629 CURVE",
"113 635 OFFCURVE",
"116 656 OFFCURVE",
"122 662 CURVE",
"159 659 OFFCURVE",
"205 656 OFFCURVE",
"243 656 CURVE SMOOTH",
"281 656 OFFCURVE",
"326 659 OFFCURVE",
"364 662 CURVE",
"368 656 OFFCURVE",
"363 635 OFFCURVE",
"357 629 CURVE",
"345 629 OFFCURVE",
"298 624 OFFCURVE",
"292 612 CURVE SMOOTH",
"282 594 OFFCURVE",
"277 564 OFFCURVE",
"270 528 CURVE SMOOTH"
);
}
);
width = 538;
}
);
unicode = 004C;
userData = {
com.fontlab.hintData = {
hhints = (
{
position = -1;
width = 40;
},
{
position = -1;
width = 31;
},
{
position = 629;
width = 33;
}
);
};
};
},
{
glyphname = Lslash;
lastChange = "2017-07-12 19:24:34 +0000";
layers = (
{
components = (
{
name = L;
transform = "{1, 0, 0, 1, 1, 0}";
}
);
layerId = "AF37C979-5169-4EE5-B183-132B179D5F1C";
paths = (
{
closed = 1;
nodes = (
"22 207 LINE SMOOTH",
"17 203 OFFCURVE",
"27 247 OFFCURVE",
"32 252 CURVE SMOOTH",
"167 325.637 LINE",
"198 334.546 LINE",
"417 454 LINE SMOOTH",
"423 458 OFFCURVE",
"412 413 OFFCURVE",
"407 409 CURVE SMOOTH",
"193 289.272 LINE",
"161 280.818 LINE"
);
}
);
width = 539;
}
);
unicode = 0141;
userData = {
com.fontlab.hintData = {
vhints = (
{
position = 50;
width = 256;
}
);
};
};
},
{
glyphname = M;
lastChange = "2017-07-12 19:24:34 +0000";
layers = (
{
layerId = "AF37C979-5169-4EE5-B183-132B179D5F1C";
paths = (
{
closed = 1;
nodes = (
"235 656 CURVE SMOOTH",
"267 656 OFFCURVE",
"292 660 OFFCURVE",
"322 662 CURVE",
"332 598 OFFCURVE",
"384 366 OFFCURVE",
"418 192 CURVE",
"418 191 OFFCURVE",
"420 190 OFFCURVE",
"421 190 CURVE SMOOTH",
"422 190 OFFCURVE",
"425 193 OFFCURVE",
"426 195 CURVE SMOOTH",
"426 195 OFFCURVE",
"588 484 OFFCURVE",
"620 544 CURVE",
"644 588 OFFCURVE",
"678 660 OFFCURVE",
"678 660 CURVE",
"696 658 OFFCURVE",
"746 656 OFFCURVE",
"764 656 CURVE SMOOTH",
"796 656 OFFCURVE",
"841 660 OFFCURVE",
"872 662 CURVE",
"874 658 OFFCURVE",
"872 632 OFFCURVE",
"869 628 CURVE",
"859 628 OFFCURVE",
"818 622 OFFCURVE",
"809 614 CURVE",
"801 606 OFFCURVE",
"795 594 OFFCURVE",
"792 574 CURVE",
"786 539 OFFCURVE",
"730 210 OFFCURVE",
"720 146 CURVE",
"714 107 OFFCURVE",
"709 72 OFFCURVE",
"713 47 CURVE SMOOTH",
"715 33 OFFCURVE",
"764 30 OFFCURVE",
"771 30 CURVE",
"773 21 OFFCURVE",
"771 2 OFFCURVE",
"767 -4 CURVE",
"730 -2 OFFCURVE",
"691 3 OFFCURVE",
"650 3 CURVE SMOOTH",
"607 3 OFFCURVE",
"562 -2 OFFCURVE",
"519 -4 CURVE",
"517 -1 OFFCURVE",
"521 22 OFFCURVE",
"525 30 CURVE",
"536 30 OFFCURVE",
"579 34 OFFCURVE",
"591 44 CURVE SMOOTH",
"597 50 OFFCURVE",
"604 71 OFFCURVE",
"606 83 CURVE SMOOTH",
"608 95 OFFCURVE",
"613 126 OFFCURVE",
"616 142 CURVE SMOOTH",
"681 531 LINE SMOOTH",
"682 535 OFFCURVE",
"685 554 OFFCURVE",
"678 554 CURVE SMOOTH",
"676 554 OFFCURVE",
"675 552 OFFCURVE",
"672 547 CURVE SMOOTH",
"394 44 LINE SMOOTH",
"389 35 OFFCURVE",
"362 -1 OFFCURVE",
"348 -2 CURVE SMOOTH",
"345 -2 OFFCURVE",
"343 -1 OFFCURVE",
"340 0 CURVE",
"230 554 LINE",
"184 341 OFFCURVE",
"150 188 OFFCURVE",
"131 104 CURVE SMOOTH",
"128 88 OFFCURVE",
"125 62 OFFCURVE",
"125 54 CURVE SMOOTH",
"127 36 OFFCURVE",
"190 30 OFFCURVE",
"197 30 CURVE",
"199 24 OFFCURVE",
"196 2 OFFCURVE",
"192 -4 CURVE",
"155 -2 OFFCURVE",
"128 3 OFFCURVE",
"87 3 CURVE SMOOTH",
"44 3 OFFCURVE",
"16 -2 OFFCURVE",
"-27 -4 CURVE",
"-29 0 OFFCURVE",
"-26 19 OFFCURVE",
"-21 28 CURVE",
"-10 28 OFFCURVE",
"48 36 OFFCURVE",
"61 56 CURVE SMOOTH",
"69 68 OFFCURVE",
"82 107 OFFCURVE",
"86 125 CURVE SMOOTH",
"128 303 OFFCURVE",
"181 544 OFFCURVE",
"188 576 CURVE SMOOTH",
"190 586 OFFCURVE",
"192 599 OFFCURVE",
"190 608 CURVE",
"187 620 OFFCURVE",
"145 629 OFFCURVE",
"131 629 CURVE",
"128 633 OFFCURVE",
"136 660 OFFCURVE",
"138 662 CURVE",
"180 660 OFFCURVE",
"192 656 OFFCURVE"
);
}
);
width = 855;
}
);
unicode = 004D;
userData = {
com.fontlab.hintData = {
hhints = (
{
position = -4;
width = 34;
},
{
position = 629;
width = 33;
}
);
};
};
},
{
glyphname = N;
lastChange = "2017-07-12 19:24:34 +0000";
layers = (
{
layerId = "AF37C979-5169-4EE5-B183-132B179D5F1C";
paths = (
{
closed = 1;
nodes = (
"217 658 CURVE SMOOTH",
"247 658 OFFCURVE",
"282 660 OFFCURVE",
"304 662 CURVE",
"330 583 OFFCURVE",
"468 361 OFFCURVE",
"547 207 CURVE",
"549 211 OFFCURVE",
"552 232 OFFCURVE",
"554 239 CURVE",
"607 510 LINE",
"614 547 OFFCURVE",
"622 593 OFFCURVE",
"617 609 CURVE SMOOTH",
"613 623 OFFCURVE",
"561 630 OFFCURVE",
"548 630 CURVE",
"546 634 OFFCURVE",
"549 655 OFFCURVE",
"553 663 CURVE",
"593 661 OFFCURVE",
"620 656 OFFCURVE",
"662 656 CURVE SMOOTH",
"704 656 OFFCURVE",
"733 661 OFFCURVE",
"773 663 CURVE",
"775 657 OFFCURVE",
"773 640 OFFCURVE",
"765 630 CURVE",
"756 630 OFFCURVE",
"696 624 OFFCURVE",
"686 608 CURVE SMOOTH",
"677 594 OFFCURVE",
"665 549 OFFCURVE",
"658 512 CURVE SMOOTH",
"586 139 LINE SMOOTH",
"575 81 OFFCURVE",
"570 51 OFFCURVE",
"562 -1 CURVE",
"559 -4 OFFCURVE",
"544 -5 OFFCURVE",
"541 -5 CURVE SMOOTH",
"533 -5 OFFCURVE",
"523 4 OFFCURVE",
"516 18 CURVE SMOOTH",
"226 544 LINE",
"147 136 LINE SMOOTH",
"140 100 OFFCURVE",
"136 68 OFFCURVE",
"140 53 CURVE SMOOTH",
"144 39 OFFCURVE",
"199 30 OFFCURVE",
"210 30 CURVE",
"214 22 OFFCURVE",
"208 2 OFFCURVE",
"205 -4 CURVE",
"168 -2 OFFCURVE",
"135 3 OFFCURVE",
"94 3 CURVE SMOOTH",
"51 3 OFFCURVE",
"28 -2 OFFCURVE",
"-15 -4 CURVE",
"-17 3 OFFCURVE",
"-12 23 OFFCURVE",
"-8 29 CURVE",
"3 29 OFFCURVE",
"59 37 OFFCURVE",
"69 52 CURVE SMOOTH",
"79 67 OFFCURVE",
"89 99 OFFCURVE",
"96 137 CURVE",
"108 203 OFFCURVE",
"160 466 OFFCURVE",
"173 531 CURVE",
"182 577 OFFCURVE",
"181 593 OFFCURVE",
"175 610 CURVE SMOOTH",
"170 622 OFFCURVE",
"123 630 OFFCURVE",
"112 630 CURVE",
"108 636 OFFCURVE",
"112 658 OFFCURVE",
"117 663 CURVE",
"152 661 OFFCURVE",
"180 658 OFFCURVE"
);
}
);
width = 724;
}
);
unicode = 004E;
userData = {
com.fontlab.hintData = {
hhints = (
{
position = -5;
width = 21;
},
{
position = -4;
width = 33;
},
{
position = 630;
width = 33;
}
);
};
};
},
{
glyphname = Eng;
lastChange = "2017-07-12 19:24:34 +0000";
layers = (
{
layerId = "AF37C979-5169-4EE5-B183-132B179D5F1C";
paths = (
{
closed = 1;
nodes = (
"288 -204 CURVE",
"338 -187 OFFCURVE",
"459 -66 OFFCURVE",
"494 56 CURVE",
"226 544 LINE",
"147 136 LINE SMOOTH",
"140 100 OFFCURVE",
"136 68 OFFCURVE",
"140 53 CURVE SMOOTH",
"144 39 OFFCURVE",
"199 30 OFFCURVE",
"210 30 CURVE",
"214 22 OFFCURVE",
"208 2 OFFCURVE",
"205 -4 CURVE",
"168 -2 OFFCURVE",
"135 3 OFFCURVE",
"94 3 CURVE SMOOTH",
"51 3 OFFCURVE",
"28 -2 OFFCURVE",
"-15 -4 CURVE",
"-17 3 OFFCURVE",
"-12 23 OFFCURVE",
"-8 29 CURVE",
"3 29 OFFCURVE",
"59 37 OFFCURVE",
"69 52 CURVE SMOOTH",
"79 67 OFFCURVE",
"89 99 OFFCURVE",
"96 137 CURVE",
"108 203 OFFCURVE",
"161 465 OFFCURVE",
"173 531 CURVE",
"179 564 OFFCURVE",
"181 593 OFFCURVE",
"175 610 CURVE SMOOTH",
"170 622 OFFCURVE",
"123 630 OFFCURVE",
"112 630 CURVE",
"108 636 OFFCURVE",
"112 658 OFFCURVE",
"117 663 CURVE",
"152 661 OFFCURVE",
"180 658 OFFCURVE",
"217 658 CURVE SMOOTH",
"247 658 OFFCURVE",
"282 660 OFFCURVE",
"304 662 CURVE",
"330 583 OFFCURVE",
"467 361 OFFCURVE",
"547 207 CURVE",
"549 211 OFFCURVE",
"552 232 OFFCURVE",
"554 239 CURVE",
"607 510 LINE",
"614 547 OFFCURVE",
"622 593 OFFCURVE",
"617 609 CURVE SMOOTH",
"613 623 OFFCURVE",
"561 630 OFFCURVE",
"548 630 CURVE",
"546 634 OFFCURVE",
"549 655 OFFCURVE",
"553 663 CURVE",
"593 661 OFFCURVE",
"620 656 OFFCURVE",
"662 656 CURVE SMOOTH",
"704 656 OFFCURVE",
"733 661 OFFCURVE",
"773 663 CURVE",
"775 657 OFFCURVE",
"773 640 OFFCURVE",
"765 630 CURVE",
"756 630 OFFCURVE",
"696 624 OFFCURVE",
"686 608 CURVE SMOOTH",
"677 594 OFFCURVE",
"665 548 OFFCURVE",
"658 512 CURVE SMOOTH",
"658 512 OFFCURVE",
"614 280 OFFCURVE",
"584 130 CURVE SMOOTH",
"535 -116 OFFCURVE",
"365 -217 OFFCURVE",
"295 -226 CURVE",
"291 -223 OFFCURVE",
"287 -212 OFFCURVE"
);
}
);
width = 724;
}
);
unicode = 014A;
userData = {
com.fontlab.hintData = {
hhints = (
{
position = -226;
width = 22;
},
{
position = -4;
width = 33;
},
{
position = 630;
width = 33;
}
);
};
};
},
{
glyphname = O;
lastChange = "2017-07-12 19:24:34 +0000";
layers = (
{
layerId = "AF37C979-5169-4EE5-B183-132B179D5F1C";
paths = (
{
closed = 1;
nodes = (
"404 626 CURVE",
"272 626 OFFCURVE",
"174 444 OFFCURVE",
"174 256 CURVE SMOOTH",
"174 141 OFFCURVE",
"211 30 OFFCURVE",
"327 30 CURVE",
"471 30 OFFCURVE",
"556 230 OFFCURVE",
"556 402 CURVE SMOOTH",
"556 508 OFFCURVE",
"520 626 OFFCURVE"
);
},
{
closed = 1;
nodes = (
"420 666 CURVE SMOOTH",
"581 666 OFFCURVE",
"675 530 OFFCURVE",
"675 386 CURVE SMOOTH",
"675 141 OFFCURVE",
"486 -10 OFFCURVE",
"307 -10 CURVE SMOOTH",
"156 -10 OFFCURVE",
"55 117 OFFCURVE",
"55 269 CURVE SMOOTH",
"55 509 OFFCURVE",
"246 666 OFFCURVE"
);
}
);
width = 707;
}
);
unicode = 004F;
userData = {
com.fontlab.hintData = {
hhints = (
{
position = -10;
width = 40;
},
{
position = 626;
width = 40;
}
);
vhints = (
{
position = 55;
width = 119;
},
{
position = 556;
width = 119;
}
);
};
};
},
{
glyphname = Oslash;
lastChange = "2017-07-12 19:24:34 +0000";
layers = (
{
components = (
{
name = O;
}
);
layerId = "AF37C979-5169-4EE5-B183-132B179D5F1C";
paths = (
{
closed = 1;
nodes = (
"106 -13 LINE",
"98 -10 OFFCURVE",
"78 5 OFFCURVE",
"83 11 CURVE",
"599 668 LINE",
"607 666 OFFCURVE",
"628 651 OFFCURVE",
"623 645 CURVE"
);
}
);
width = 707;
}
);
unicode = 00D8;
userData = {
com.fontlab.hintData = {
hhints = (
{
position = -10;
width = 40;
},
{
position = 626;
width = 40;
},
{
position = 648;
width = 20;
}
);
vhints = (
{
position = 55;
width = 119;
},
{
position = 556;
width = 119;
}
);
};
};
},
{
glyphname = OE;
lastChange = "2017-07-12 19:24:34 +0000";
layers = (
{
layerId = "AF37C979-5169-4EE5-B183-132B179D5F1C";
paths = (
{
closed = 1;
nodes = (
"415 628 CURVE SMOOTH",
"269 628 OFFCURVE",
"173 423 OFFCURVE",
"173 255 CURVE",
"173 133 OFFCURVE",
"217 32 OFFCURVE",
"320 32 CURVE",
"414 32 OFFCURVE",
"460 58 OFFCURVE",
"495 114 CURVE SMOOTH",
"516 133 OFFCURVE",
"552 322 OFFCURVE",
"571 422 CURVE SMOOTH",
"581 475 OFFCURVE",
"586 544 OFFCURVE",
"561 578 CURVE SMOOTH",
"533 619 OFFCURVE",
"459 628 OFFCURVE"
);
},
{
closed = 1;
nodes = (
"552 0 CURVE SMOOTH",
"532 0 OFFCURVE",
"487 1 OFFCURVE",
"437 -2 CURVE SMOOTH",
"389 -5 OFFCURVE",
"338 -10 OFFCURVE",
"295 -10 CURVE",
"153 -10 OFFCURVE",
"53 112 OFFCURVE",
"53 260 CURVE",
"53 492 OFFCURVE",
"237 668 OFFCURVE",
"436 668 CURVE",
"522 668 OFFCURVE",
"592 656 OFFCURVE",
"658 656 CURVE SMOOTH",
"720 656 OFFCURVE",
"894 664 OFFCURVE",
"972 664 CURVE",
"971 648 OFFCURVE",
"971 634 OFFCURVE",
"971 618 CURVE SMOOTH",
"971 585 OFFCURVE",
"972 553 OFFCURVE",
"972 522 CURVE",
"969 519 OFFCURVE",
"959 517 OFFCURVE",
"952 517 CURVE SMOOTH",
"946 517 OFFCURVE",
"940 519 OFFCURVE",
"940 524 CURVE SMOOTH",
"932 592 OFFCURVE",
"906 620 OFFCURVE",
"844 620 CURVE SMOOTH",
"779 620 LINE",
"751 620 OFFCURVE",
"724 620 OFFCURVE",
"718 608 CURVE SMOOTH",
"710 588 OFFCURVE",
"706 570 OFFCURVE",
"700 542 CURVE SMOOTH",
"666 362 LINE SMOOTH",
"665 356 OFFCURVE",
"683 353 OFFCURVE",
"703 353 CURVE SMOOTH",
"750 353 LINE SMOOTH",
"822 353 OFFCURVE",
"831 360 OFFCURVE",
"859 424 CURVE SMOOTH",
"861 429 OFFCURVE",
"866 432 OFFCURVE",
"872 432 CURVE SMOOTH",
"878 432 OFFCURVE",
"886 429 OFFCURVE",
"888 426 CURVE",
"851 236 LINE",
"849 234 OFFCURVE",
"842 232 OFFCURVE",
"836 232 CURVE SMOOTH",
"829 232 OFFCURVE",
"822 234 OFFCURVE",
"822 240 CURVE SMOOTH",
"820 292 OFFCURVE",
"814 299 OFFCURVE",
"806 304 CURVE SMOOTH",
"796 310 OFFCURVE",
"757 311 OFFCURVE",
"722 311 CURVE SMOOTH",
"696 311 OFFCURVE",
"655 310 OFFCURVE",
"653 300 CURVE SMOOTH",
"623 146 LINE SMOOTH",
"619 126 OFFCURVE",
"610 80 OFFCURVE",
"612 58 CURVE SMOOTH",
"614 44 OFFCURVE",
"636 39 OFFCURVE",
"672 39 CURVE",
"726 39 LINE SMOOTH",
"761 39 OFFCURVE",
"804 49 OFFCURVE",
"832 68 CURVE SMOOTH",
"854 84 OFFCURVE",
"880 117 OFFCURVE",
"906 166 CURVE SMOOTH",
"908 170 OFFCURVE",
"913 172 OFFCURVE",
"920 172 CURVE SMOOTH",
"929 172 OFFCURVE",
"942 169 OFFCURVE",
"944 166 CURVE",
"916 112 OFFCURVE",
"877 41 OFFCURVE",
"862 -3 CURVE",
"800 -3 OFFCURVE",
"657 0 OFFCURVE"
);
}
);
width = 992;
}
);
unicode = 0152;
userData = {
com.fontlab.hintData = {
hhints = (
{
position = -10;
width = 42;
},
{
position = 0;
width = 32;
},
{
position = 311;
width = 42;
},
{
position = 620;
width = 44;
},
{
position = 620;
width = 36;
},
{
position = 628;
width = 40;
}
);
vhints = (
{
position = 53;
width = 120;
},
{
position = 822;
width = 29;
},
{
position = 859;
width = 29;
},
{
position = 940;
width = 32;
}
);
};
};
},
{
glyphname = P;
lastChange = "2017-07-12 19:24:34 +0000";
layers = (
{
layerId = "AF37C979-5169-4EE5-B183-132B179D5F1C";
paths = (
{
closed = 1;
nodes = (
"549 490 CURVE SMOOTH",
"537 362 OFFCURVE",
"420 282 OFFCURVE",
"312 282 CURVE SMOOTH",
"285 282 OFFCURVE",
"269 290 OFFCURVE",
"264 296 CURVE SMOOTH",
"261 299 OFFCURVE",
"257 309 OFFCURVE",
"257 314 CURVE SMOOTH",
"257 318 OFFCURVE",
"260 322 OFFCURVE",
"262 322 CURVE",
"272 319 OFFCURVE",
"280 318 OFFCURVE",
"294 318 CURVE SMOOTH",
"354 318 OFFCURVE",
"427 388 OFFCURVE",
"433 472 CURVE SMOOTH",
"441 544 OFFCURVE",
"421 622 OFFCURVE",
"339 622 CURVE SMOOTH",
"323 622 OFFCURVE",
"297 621 OFFCURVE",
"291 611 CURVE SMOOTH",
"284 599 OFFCURVE",
"279 573 OFFCURVE",
"273 543 CURVE SMOOTH",
"193 130 LINE SMOOTH",
"186 94 OFFCURVE",
"180 64 OFFCURVE",
"183 46 CURVE SMOOTH",
"185 34 OFFCURVE",
"229 29 OFFCURVE",
"241 29 CURVE",
"244 23 OFFCURVE",
"241 2 OFFCURVE",
"235 -4 CURVE",
"199 -1 OFFCURVE",
"153 2 OFFCURVE",
"115 2 CURVE SMOOTH",
"78 2 OFFCURVE",
"31 -1 OFFCURVE",
"-7 -4 CURVE",
"-10 2 OFFCURVE",
"-5 23 OFFCURVE",
"0 29 CURVE",
"12 29 OFFCURVE",
"59 34 OFFCURVE",
"65 46 CURVE SMOOTH",
"75 64 OFFCURVE",
"80 94 OFFCURVE",
"87 130 CURVE SMOOTH",
"165 528 LINE SMOOTH",
"172 564 OFFCURVE",
"178 594 OFFCURVE",
"175 612 CURVE SMOOTH",
"173 624 OFFCURVE",
"128 628 OFFCURVE",
"116 628 CURVE",
"113 634 OFFCURVE",
"117 655 OFFCURVE",
"123 661 CURVE",
"163 659 OFFCURVE",
"206 657 OFFCURVE",
"244 657 CURVE SMOOTH",
"281 657 OFFCURVE",
"328 660 OFFCURVE",
"383 660 CURVE SMOOTH",
"483 660 OFFCURVE",
"559 584 OFFCURVE"
);
}
);
width = 533;
}
);
unicode = 0050;
userData = {
com.fontlab.hintData = {
hhints = (
{
position = -4;
width = 33;
},
{
position = 282;
width = 36;
},
{
position = 622;
width = 38;
}
);
};
};
},
{
glyphname = Thorn;
lastChange = "2017-07-12 19:24:34 +0000";
layers = (
{
layerId = "AF37C979-5169-4EE5-B183-132B179D5F1C";
paths = (
{
closed = 1;
nodes = (
"351 512 CURVE SMOOTH",
"449 512 OFFCURVE",
"537 429 OFFCURVE",
"515 314 CURVE SMOOTH",
"496 217 OFFCURVE",
"397 134 OFFCURVE",
"285 134 CURVE SMOOTH",
"258 134 OFFCURVE",
"237 146 OFFCURVE",
"229 156 CURVE SMOOTH",
"227 159 OFFCURVE",
"226 170 OFFCURVE",
"226 176 CURVE SMOOTH",
"226 180 OFFCURVE",
"227 183 OFFCURVE",
"229 183 CURVE",
"240 177 OFFCURVE",
"251 175 OFFCURVE",
"271 175 CURVE SMOOTH",
"325 175 OFFCURVE",
"385 222 OFFCURVE",
"400 300 CURVE SMOOTH",
"417 389 OFFCURVE",
"389 470 OFFCURVE",
"319 470 CURVE SMOOTH",
"303 470 OFFCURVE",
"280 467 OFFCURVE",
"268 457 CURVE SMOOTH",
"258 449 OFFCURVE",
"252 434 OFFCURVE",
"247 408 CURVE SMOOTH",
"193 130 LINE SMOOTH",
"186 94 OFFCURVE",
"180 64 OFFCURVE",
"183 46 CURVE SMOOTH",
"185 34 OFFCURVE",
"229 29 OFFCURVE",
"241 29 CURVE",
"244 23 OFFCURVE",
"241 2 OFFCURVE",
"235 -4 CURVE",
"199 -1 OFFCURVE",
"153 2 OFFCURVE",
"115 2 CURVE SMOOTH",
"78 2 OFFCURVE",
"31 -1 OFFCURVE",
"-7 -4 CURVE",
"-10 2 OFFCURVE",
"-5 23 OFFCURVE",
"0 29 CURVE",
"12 29 OFFCURVE",
"59 34 OFFCURVE",
"65 46 CURVE SMOOTH",
"75 64 OFFCURVE",
"80 94 OFFCURVE",
"87 130 CURVE SMOOTH",
"165 528 LINE SMOOTH",
"172 564 OFFCURVE",
"178 594 OFFCURVE",
"175 612 CURVE SMOOTH",
"173 624 OFFCURVE",
"128 628 OFFCURVE",
"116 628 CURVE",
"113 634 OFFCURVE",
"117 655 OFFCURVE",
"123 661 CURVE",
"163 659 OFFCURVE",
"205 657 OFFCURVE",
"243 657 CURVE SMOOTH",
"280 657 OFFCURVE",
"326 660 OFFCURVE",
"364 663 CURVE",
"368 657 OFFCURVE",
"364 636 OFFCURVE",
"358 630 CURVE",
"346 630 OFFCURVE",
"299 625 OFFCURVE",
"293 613 CURVE SMOOTH",
"284 593 OFFCURVE",
"275 555 OFFCURVE",
"269 520 CURVE SMOOTH",
"268 516 OFFCURVE",
"268 506 OFFCURVE",
"268 504 CURVE SMOOTH",
"268 502 OFFCURVE",
"269 502 OFFCURVE",
"271 502 CURVE SMOOTH",
"290 508 OFFCURVE",
"316 512 OFFCURVE"
);
}
);
width = 531;
}
);
unicode = 00DE;
userData = {
com.fontlab.hintData = {
hhints = (
{
position = -4;
width = 33;
},
{
position = 134;
width = 41;
},
{
position = 470;
width = 42;
},
{
position = 628;
width = 33;
}
);
vhints = (
{
position = 175;
width = 93;
}
);
};
};
},
{
glyphname = Q;
lastChange = "2017-07-12 19:24:34 +0000";
layers = (
{
layerId = "AF37C979-5169-4EE5-B183-132B179D5F1C";
paths = (
{
closed = 1;
nodes = (
"425 667 CURVE SMOOTH",
"589 667 OFFCURVE",
"691 524 OFFCURVE",
"671 360 CURVE SMOOTH",
"656 176 OFFCURVE",
"525 51 OFFCURVE",
"395 7 CURVE",
"475 -39 OFFCURVE",
"501 -77 OFFCURVE",
"597 -77 CURVE SMOOTH",
"627 -77 OFFCURVE",
"649 -72 OFFCURVE",
"656 -70 CURVE",
"663 -70 OFFCURVE",
"671 -74 OFFCURVE",
"673 -80 CURVE",
"639 -100 OFFCURVE",
"569 -138 OFFCURVE",
"512 -138 CURVE SMOOTH",
"409 -138 OFFCURVE",
"345 -45 OFFCURVE",
"228 -4 CURVE SMOOTH",
"109 38 OFFCURVE",
"38 150 OFFCURVE",
"54 294 CURVE SMOOTH",
"72 512 OFFCURVE",
"261 667 OFFCURVE"
);
},
{
closed = 1;
nodes = (
"404 627 CURVE SMOOTH",
"265 627 OFFCURVE",
"187 447 OFFCURVE",
"174 297 CURVE SMOOTH",
"159 162 OFFCURVE",
"201 30 OFFCURVE",
"321 30 CURVE SMOOTH",
"459 30 OFFCURVE",
"539 210 OFFCURVE",
"552 360 CURVE SMOOTH",
"567 495 OFFCURVE",
"521 627 OFFCURVE"
);
}
);
width = 701;
}
);
unicode = 0051;
userData = {
com.fontlab.hintData = {
hhints = (
{
position = -138;
width = 61;
},
{
position = 627;
width = 40;
}
);
};
};
},
{
glyphname = R;
lastChange = "2017-07-12 19:24:34 +0000";
layers = (
{
layerId = "AF37C979-5169-4EE5-B183-132B179D5F1C";
paths = (
{
closed = 1;
nodes = (
"245 657 CURVE SMOOTH",
"282 657 OFFCURVE",
"328 660 OFFCURVE",
"383 660 CURVE SMOOTH",
"483 660 OFFCURVE",
"564 591 OFFCURVE",
"541 472 CURVE SMOOTH",
"525 392 OFFCURVE",
"433 337 OFFCURVE",
"379 320 CURVE",
"419 227 OFFCURVE",
"437 186 OFFCURVE",
"481 108 CURVE SMOOTH",
"519 46 OFFCURVE",
"566 29 OFFCURVE",
"598 27 CURVE",
"602 21 OFFCURVE",
"595 -2 OFFCURVE",
"594 -4 CURVE",
"550 -5 OFFCURVE",
"532 -4 OFFCURVE",
"504 0 CURVE SMOOTH",
"422 2 OFFCURVE",
"391 44 OFFCURVE",
"375 76 CURVE SMOOTH",
"370 86 OFFCURVE",
"297 238 OFFCURVE",
"277 287 CURVE SMOOTH",
"275 291 OFFCURVE",
"267 300 OFFCURVE",
"257 300 CURVE",
"226 300 LINE",
"193 130 LINE SMOOTH",
"186 94 OFFCURVE",
"180 64 OFFCURVE",
"183 46 CURVE SMOOTH",
"185 34 OFFCURVE",
"229 29 OFFCURVE",
"241 29 CURVE",
"244 23 OFFCURVE",
"241 2 OFFCURVE",
"235 -4 CURVE",
"199 -1 OFFCURVE",
"153 2 OFFCURVE",
"115 2 CURVE SMOOTH",
"78 2 OFFCURVE",
"31 -1 OFFCURVE",
"-7 -4 CURVE",
"-10 2 OFFCURVE",
"-5 23 OFFCURVE",
"0 29 CURVE",
"12 29 OFFCURVE",
"59 34 OFFCURVE",
"65 46 CURVE SMOOTH",
"75 64 OFFCURVE",
"80 94 OFFCURVE",
"87 130 CURVE SMOOTH",
"165 528 LINE SMOOTH",
"172 564 OFFCURVE",
"178 594 OFFCURVE",
"175 612 CURVE SMOOTH",
"173 624 OFFCURVE",
"128 628 OFFCURVE",
"116 628 CURVE",
"113 634 OFFCURVE",
"117 655 OFFCURVE",
"123 661 CURVE",
"163 659 OFFCURVE",
"207 657 OFFCURVE"
);
},
{
closed = 1;
nodes = (
"233 335 LINE",
"279 335 LINE",
"345 335 OFFCURVE",
"408 379 OFFCURVE",
"426 455 CURVE SMOOTH",
"444 535 OFFCURVE",
"430 622 OFFCURVE",
"340 622 CURVE SMOOTH",
"324 622 OFFCURVE",
"297 621 OFFCURVE",
"291 611 CURVE SMOOTH",
"284 599 OFFCURVE",
"279 573 OFFCURVE",
"273 543 CURVE SMOOTH"
);
}
);
width = 613;
}
);
unicode = 0052;
userData = {
com.fontlab.hintData = {
hhints = (
{
position = -4;
width = 33;
},
{
position = 300;
width = 35;
},
{
position = 622;
width = 38;
}
);
};
};
},
{
glyphname = S;
lastChange = "2017-07-12 19:24:34 +0000";
layers = (
{
layerId = "AF37C979-5169-4EE5-B183-132B179D5F1C";
paths = (
{
closed = 1;
nodes = (
"321 668 CURVE SMOOTH",
"377 668 OFFCURVE",
"416 654 OFFCURVE",
"468 642 CURVE",
"462 598 OFFCURVE",
"452 531 OFFCURVE",
"444 487 CURVE",
"441 482 OFFCURVE",
"436 480 OFFCURVE",
"432 480 CURVE SMOOTH",
"428 480 OFFCURVE",
"411 480 OFFCURVE",
"409 488 CURVE",
"413 556 OFFCURVE",
"390 630 OFFCURVE",
"312 630 CURVE SMOOTH",
"253 630 OFFCURVE",
"211 589 OFFCURVE",
"205 530 CURVE SMOOTH",
"199 458 OFFCURVE",
"264 414 OFFCURVE",
"315 372 CURVE SMOOTH",
"368 329 OFFCURVE",
"438 290 OFFCURVE",
"426 184 CURVE SMOOTH",
"416 67 OFFCURVE",
"294 -10 OFFCURVE",
"193 -10 CURVE SMOOTH",
"134 -10 OFFCURVE",
"79 9 OFFCURVE",
"33 25 CURVE",
"26 74 OFFCURVE",
"30 165 OFFCURVE",
"33 185 CURVE",
"37 190 OFFCURVE",
"54 195 OFFCURVE",
"60 195 CURVE SMOOTH",
"66 195 OFFCURVE",
"70 193 OFFCURVE",
"71 188 CURVE",
"70 139 OFFCURVE",
"107 30 OFFCURVE",
"200 30 CURVE SMOOTH",
"252 30 OFFCURVE",
"309 63 OFFCURVE",
"316 138 CURVE SMOOTH",
"323 210 OFFCURVE",
"261 253 OFFCURVE",
"216 290 CURVE SMOOTH",
"157 339 OFFCURVE",
"90 379 OFFCURVE",
"100 482 CURVE SMOOTH",
"110 591 OFFCURVE",
"227 668 OFFCURVE"
);
}
);
width = 486;
}
);
unicode = 0053;
userData = {
com.fontlab.hintData = {
hhints = (
{
position = -10;
width = 40;
},
{
position = 630;
width = 38;
}
);
vhints = (
{
position = 33;
width = 38;
}
);
};
};
},
{
glyphname = T;
lastChange = "2017-07-12 19:24:34 +0000";
layers = (
{
layerId = "AF37C979-5169-4EE5-B183-132B179D5F1C";
paths = (
{
closed = 1;
nodes = (
"366 658 LINE",
"538 658 LINE",
"579 658 OFFCURVE",
"604 673 OFFCURVE",
"618 676 CURVE SMOOTH",
"626 678 OFFCURVE",
"628 678 OFFCURVE",
"632 676 CURVE",
"630 646 OFFCURVE",
"622 524 OFFCURVE",
"622 498 CURVE",
"619 495 OFFCURVE",
"606 490 OFFCURVE",
"598 490 CURVE SMOOTH",
"593 490 OFFCURVE",
"588 492 OFFCURVE",
"588 496 CURVE",
"590 564 OFFCURVE",
"564 618 OFFCURVE",
"518 618 CURVE SMOOTH",
"416 618 LINE",
"321 130 LINE SMOOTH",
"314 94 OFFCURVE",
"307 64 OFFCURVE",
"310 46 CURVE SMOOTH",
"312 34 OFFCURVE",
"357 29 OFFCURVE",
"369 29 CURVE",
"372 23 OFFCURVE",
"369 2 OFFCURVE",
"363 -4 CURVE",
"327 -1 OFFCURVE",
"282 2 OFFCURVE",
"244 2 CURVE SMOOTH",
"206 2 OFFCURVE",
"160 -1 OFFCURVE",
"122 -4 CURVE",
"118 2 OFFCURVE",
"122 23 OFFCURVE",
"128 29 CURVE",
"140 29 OFFCURVE",
"187 34 OFFCURVE",
"193 46 CURVE SMOOTH",
"203 64 OFFCURVE",
"209 94 OFFCURVE",
"216 130 CURVE SMOOTH",
"310 618 LINE",
"207 618 LINE SMOOTH",
"161 618 OFFCURVE",
"113 564 OFFCURVE",
"89 496 CURVE SMOOTH",
"87 492 OFFCURVE",
"82 490 OFFCURVE",
"77 490 CURVE SMOOTH",
"69 490 OFFCURVE",
"58 495 OFFCURVE",
"56 498 CURVE",
"66 524 OFFCURVE",
"106 646 OFFCURVE",
"115 676 CURVE",
"120 678 OFFCURVE",
"125 678 OFFCURVE",
"131 676 CURVE SMOOTH",
"145 673 OFFCURVE",
"161 658 OFFCURVE",
"202 658 CURVE"
);
}
);
width = 589;
}
);
unicode = 0054;
userData = {
com.fontlab.hintData = {
hhints = (
{
position = -4;
width = 33;
},
{
position = 618;
width = 40;
}
);
vhints = (
{
position = 588;
width = 34;
}
);
};
};
},
{
glyphname = Tbar;
lastChange = "2017-07-12 19:24:34 +0000";
layers = (
{
components = (
{
name = T;
transform = "{1, 0, 0, 1, 1, 0}";
}
);
layerId = "AF37C979-5169-4EE5-B183-132B179D5F1C";
paths = (
{
closed = 1;
nodes = (
"155 346 CURVE",
"183 346 OFFCURVE",
"467 346 OFFCURVE",
"480 346 CURVE SMOOTH",
"484 346 OFFCURVE",
"485 340 OFFCURVE",
"484 336 CURVE SMOOTH",
"483 330 OFFCURVE",
"478 314 OFFCURVE",
"473 306 CURVE",
"445 306 OFFCURVE",
"161 306 OFFCURVE",
"148 306 CURVE SMOOTH",
"144 306 OFFCURVE",
"143 314 OFFCURVE",
"144 318 CURVE SMOOTH",
"145 324 OFFCURVE",
"148 338 OFFCURVE"
);
}
);
width = 589;
}
);
unicode = 0166;
userData = {
com.fontlab.hintData = {
hhints = (
{
position = -4;
width = 33;
},
{
position = 306;
width = 40;
},
{
position = 618;
width = 40;
}
);
vhints = (
{
position = 589;
width = 34;
}
);
};
};
},
{
glyphname = U;
lastChange = "2017-07-12 19:24:34 +0000";
layers = (
{
layerId = "AF37C979-5169-4EE5-B183-132B179D5F1C";
paths = (
{
closed = 1;
nodes = (
"226 656 CURVE SMOOTH",
"263 656 OFFCURVE",
"309 659 OFFCURVE",
"347 662 CURVE",
"351 656 OFFCURVE",
"347 635 OFFCURVE",
"341 629 CURVE",
"329 629 OFFCURVE",
"282 624 OFFCURVE",
"276 612 CURVE SMOOTH",
"266 594 OFFCURVE",
"260 564 OFFCURVE",
"253 528 CURVE SMOOTH",
"212 313 LINE SMOOTH",
"198 240 OFFCURVE",
"194 186 OFFCURVE",
"209 140 CURVE SMOOTH",
"228 74 OFFCURVE",
"283 59 OFFCURVE",
"331 59 CURVE SMOOTH",
"416 59 OFFCURVE",
"507 118 OFFCURVE",
"542 292 CURVE",
"585 512 LINE SMOOTH",
"593 552 OFFCURVE",
"597 590 OFFCURVE",
"592 608 CURVE SMOOTH",
"588 622 OFFCURVE",
"542 630 OFFCURVE",
"528 630 CURVE",
"525 637 OFFCURVE",
"530 656 OFFCURVE",
"534 662 CURVE",
"574 659 OFFCURVE",
"600 656 OFFCURVE",
"642 656 CURVE SMOOTH",
"684 656 OFFCURVE",
"707 660 OFFCURVE",
"748 662 CURVE",
"750 656 OFFCURVE",
"748 639 OFFCURVE",
"742 630 CURVE",
"730 630 OFFCURVE",
"676 624 OFFCURVE",
"666 608 CURVE SMOOTH",
"655 590 OFFCURVE",
"644 553 OFFCURVE",
"636 513 CURVE SMOOTH",
"591 281 LINE SMOOTH",
"551 79 OFFCURVE",
"425 -6 OFFCURVE",
"285 -6 CURVE SMOOTH",
"211 -6 OFFCURVE",
"150 21 OFFCURVE",
"117 74 CURVE SMOOTH",
"88 120 OFFCURVE",
"81 186 OFFCURVE",
"99 276 CURVE SMOOTH",
"148 528 LINE SMOOTH",
"155 564 OFFCURVE",
"161 594 OFFCURVE",
"158 612 CURVE SMOOTH",
"156 624 OFFCURVE",
"112 629 OFFCURVE",
"100 629 CURVE",
"97 635 OFFCURVE",
"100 656 OFFCURVE",
"106 662 CURVE",
"142 659 OFFCURVE",
"188 656 OFFCURVE"
);
}
);
width = 689;
}
);
unicode = 0055;
userData = {
com.fontlab.hintData = {
hhints = (
{
position = -6;
width = 65;
},
{
position = 629;
width = 33;
}
);
};
};
},
{
glyphname = Uogonek;
lastChange = "2017-07-12 19:24:34 +0000";
layers = (
{
layerId = "AF37C979-5169-4EE5-B183-132B179D5F1C";
paths = (
{
closed = 1;
nodes = (
"292 -130 CURVE SMOOTH",
"292 -150 OFFCURVE",
"301 -164 OFFCURVE",
"326 -164 CURVE SMOOTH",
"370 -164 OFFCURVE",
"398 -128 OFFCURVE",
"404 -126 CURVE",
"412 -127 OFFCURVE",
"406 -151 OFFCURVE",
"403 -154 CURVE SMOOTH",
"379 -188 OFFCURVE",
"332 -224 OFFCURVE",
"290 -224 CURVE SMOOTH",
"256 -224 OFFCURVE",
"235 -195 OFFCURVE",
"235 -168 CURVE SMOOTH",
"235 -112 OFFCURVE",
"296 -45 OFFCURVE",
"344 -2 CURVE",
"325 -6 OFFCURVE",
"305 -6 OFFCURVE",
"285 -6 CURVE SMOOTH",
"209 -6 OFFCURVE",
"148 21 OFFCURVE",
"115 76 CURVE SMOOTH",
"87 122 OFFCURVE",
"82 187 OFFCURVE",
"99 276 CURVE SMOOTH",
"148 528 LINE SMOOTH",
"155 564 OFFCURVE",
"161 594 OFFCURVE",
"158 612 CURVE SMOOTH",
"156 624 OFFCURVE",
"112 629 OFFCURVE",
"100 629 CURVE",
"97 635 OFFCURVE",
"100 656 OFFCURVE",
"106 662 CURVE",
"142 659 OFFCURVE",
"188 656 OFFCURVE",
"226 656 CURVE SMOOTH",
"264 656 OFFCURVE",
"309 659 OFFCURVE",
"347 662 CURVE",
"351 656 OFFCURVE",
"347 635 OFFCURVE",
"341 629 CURVE",
"329 629 OFFCURVE",
"282 624 OFFCURVE",
"276 612 CURVE SMOOTH",
"266 594 OFFCURVE",
"260 564 OFFCURVE",
"253 528 CURVE SMOOTH",
"212 313 LINE SMOOTH",
"198 241 OFFCURVE",
"195 186 OFFCURVE",
"209 140 CURVE SMOOTH",
"228 73 OFFCURVE",
"283 59 OFFCURVE",
"331 59 CURVE SMOOTH",
"416 59 OFFCURVE",
"507 118 OFFCURVE",
"542 292 CURVE",
"585 512 LINE SMOOTH",
"593 552 OFFCURVE",
"597 590 OFFCURVE",
"592 608 CURVE SMOOTH",
"588 622 OFFCURVE",
"542 630 OFFCURVE",
"528 630 CURVE",
"525 637 OFFCURVE",
"530 656 OFFCURVE",
"534 662 CURVE",
"574 659 OFFCURVE",
"600 656 OFFCURVE",
"642 656 CURVE SMOOTH",
"684 656 OFFCURVE",
"707 660 OFFCURVE",
"748 662 CURVE",
"750 656 OFFCURVE",
"748 639 OFFCURVE",
"742 630 CURVE",
"730 630 OFFCURVE",
"676 624 OFFCURVE",
"666 608 CURVE SMOOTH",
"655 590 OFFCURVE",
"644 553 OFFCURVE",
"636 513 CURVE SMOOTH",
"591 281 LINE SMOOTH",
"567 161 OFFCURVE",
"512 82 OFFCURVE",
"443 38 CURVE SMOOTH",
"377 -6 OFFCURVE",
"292 -80 OFFCURVE"
);
}
);
width = 688;
}
);
unicode = 0172;
userData = {
com.fontlab.hintData = {
hhints = (
{
position = -224;
width = 60;
},
{
position = -6;
width = 65;
},
{
position = 629;
width = 33;
}
);
vhints = (
{
position = 235;
width = 57;
}
);
};
};
},
{
glyphname = V;
lastChange = "2017-07-12 19:24:34 +0000";
layers = (
{
layerId = "AF37C979-5169-4EE5-B183-132B179D5F1C";
paths = (
{
closed = 1;
nodes = (
"188 656 CURVE SMOOTH",
"228 656 OFFCURVE",
"274 659 OFFCURVE",
"312 662 CURVE",
"314 656 OFFCURVE",
"310 633 OFFCURVE",
"305 629 CURVE",
"295 629 OFFCURVE",
"248 625 OFFCURVE",
"243 599 CURVE SMOOTH",
"240 586 OFFCURVE",
"243 558 OFFCURVE",
"248 526 CURVE SMOOTH",
"268 415 OFFCURVE",
"313 160 OFFCURVE",
"314 160 CURVE",
"315 160 OFFCURVE",
"512 508 OFFCURVE",
"520 522 CURVE",
"533 546 OFFCURVE",
"549 578 OFFCURVE",
"553 598 CURVE SMOOTH",
"557 623 OFFCURVE",
"504 629 OFFCURVE",
"492 629 CURVE",
"488 633 OFFCURVE",
"492 656 OFFCURVE",
"498 662 CURVE",
"536 659 OFFCURVE",
"564 656 OFFCURVE",
"602 656 CURVE SMOOTH",
"644 656 OFFCURVE",
"662 660 OFFCURVE",
"700 662 CURVE",
"702 656 OFFCURVE",
"697 633 OFFCURVE",
"693 629 CURVE",
"683 629 OFFCURVE",
"644 625 OFFCURVE",
"627 607 CURVE SMOOTH",
"611 590 OFFCURVE",
"586 551 OFFCURVE",
"566 515 CURVE",
"509 415 OFFCURVE",
"340 123 OFFCURVE",
"286 31 CURVE",
"273 9 OFFCURVE",
"250 -6 OFFCURVE",
"238 -6 CURVE SMOOTH",
"232 -6 OFFCURVE",
"232 2 OFFCURVE",
"230 8 CURVE",
"216 97 OFFCURVE",
"155 416 OFFCURVE",
"139 512 CURVE",
"133 546 OFFCURVE",
"126 578 OFFCURVE",
"118 601 CURVE SMOOTH",
"112 622 OFFCURVE",
"74 629 OFFCURVE",
"62 629 CURVE",
"60 633 OFFCURVE",
"65 658 OFFCURVE",
"69 662 CURVE",
"108 659 OFFCURVE",
"147 656 OFFCURVE"
);
}
);
width = 615;
}
);
unicode = 0056;
userData = {
com.fontlab.hintData = {
hhints = (
{
position = -6;
width = 21;
},
{
position = 629;
width = 33;
}
);
};
};
},
{
glyphname = W;
lastChange = "2017-07-12 19:24:34 +0000";
layers = (
{
layerId = "AF37C979-5169-4EE5-B183-132B179D5F1C";
paths = (
{
closed = 1;
nodes = (
"188 656 CURVE SMOOTH",
"228 656 OFFCURVE",
"272 659 OFFCURVE",
"310 662 CURVE",
"312 656 OFFCURVE",
"308 633 OFFCURVE",
"303 629 CURVE",
"293 629 OFFCURVE",
"245 624 OFFCURVE",
"242 593 CURVE SMOOTH",
"241 588 OFFCURVE",
"242 563 OFFCURVE",
"245 534 CURVE SMOOTH",
"256 430 OFFCURVE",
"274 272 OFFCURVE",
"280 198 CURVE",
"280 198 OFFCURVE",
"474 595 OFFCURVE",
"492 627 CURVE",
"502 646 OFFCURVE",
"520 662 OFFCURVE",
"530 662 CURVE SMOOTH",
"534 662 OFFCURVE",
"536 657 OFFCURVE",
"538 646 CURVE",
"553 551 OFFCURVE",
"593 279 OFFCURVE",
"605 180 CURVE",
"605 180 OFFCURVE",
"758 506 OFFCURVE",
"766 522 CURVE",
"777 547 OFFCURVE",
"791 578 OFFCURVE",
"795 598 CURVE SMOOTH",
"799 623 OFFCURVE",
"745 629 OFFCURVE",
"733 629 CURVE",
"729 633 OFFCURVE",
"734 656 OFFCURVE",
"740 662 CURVE",
"778 659 OFFCURVE",
"806 656 OFFCURVE",
"844 656 CURVE SMOOTH",
"886 656 OFFCURVE",
"905 660 OFFCURVE",
"943 662 CURVE",
"945 656 OFFCURVE",
"940 633 OFFCURVE",
"936 629 CURVE",
"926 629 OFFCURVE",
"887 623 OFFCURVE",
"869 607 CURVE SMOOTH",
"853 591 OFFCURVE",
"836 566 OFFCURVE",
"818 528 CURVE",
"771 434 OFFCURVE",
"626 128 OFFCURVE",
"578 36 CURVE",
"568 14 OFFCURVE",
"546 -6 OFFCURVE",
"534 -6 CURVE SMOOTH",
"528 -6 OFFCURVE",
"525 2 OFFCURVE",
"523 8 CURVE",
"512 102 OFFCURVE",
"468 366 OFFCURVE",
"456 463 CURVE",
"456 463 OFFCURVE",
"284 110 OFFCURVE",
"247 38 CURVE",
"240 24 OFFCURVE",
"217 -6 OFFCURVE",
"205 -6 CURVE SMOOTH",
"199 -6 OFFCURVE",
"196 2 OFFCURVE",
"194 8 CURVE",
"135 521 LINE SMOOTH",
"132 556 OFFCURVE",
"131 572 OFFCURVE",
"121 602 CURVE SMOOTH",
"114 622 OFFCURVE",
"77 629 OFFCURVE",
"65 629 CURVE",
"62 633 OFFCURVE",
"67 658 OFFCURVE",
"71 662 CURVE",
"109 659 OFFCURVE",
"147 656 OFFCURVE"
);
}
);
width = 862;
}
);
unicode = 0057;
userData = {
com.fontlab.hintData = {
hhints = (
{
position = -6;
width = 21;
},
{
position = 629;
width = 33;
}
);
};
};
},
{
glyphname = X;
lastChange = "2017-07-12 19:24:34 +0000";
layers = (
{
layerId = "AF37C979-5169-4EE5-B183-132B179D5F1C";
paths = (
{
closed = 1;
nodes = (
"231 656 CURVE SMOOTH",
"277 656 OFFCURVE",
"321 660 OFFCURVE",
"359 662 CURVE",
"360 656 OFFCURVE",
"356 629 OFFCURVE",
"351 629 CURVE",
"338 629 OFFCURVE",
"297 622 OFFCURVE",
"293 602 CURVE SMOOTH",
"291 595 OFFCURVE",
"293 585 OFFCURVE",
"297 576 CURVE SMOOTH",
"370 403 LINE",
"432 471 OFFCURVE",
"512 558 OFFCURVE",
"532 588 CURVE SMOOTH",
"534 592 OFFCURVE",
"538 597 OFFCURVE",
"538 601 CURVE SMOOTH",
"540 613 OFFCURVE",
"519 628 OFFCURVE",
"477 628 CURVE",
"473 628 OFFCURVE",
"477 656 OFFCURVE",
"482 662 CURVE",
"517 658 OFFCURVE",
"559 656 OFFCURVE",
"593 656 CURVE SMOOTH",
"641 656 OFFCURVE",
"675 659 OFFCURVE",
"701 662 CURVE",
"703 656 OFFCURVE",
"699 631 OFFCURVE",
"693 628 CURVE",
"686 628 OFFCURVE",
"633 626 OFFCURVE",
"591 582 CURVE SMOOTH",
"385 365 LINE",
"411 301 OFFCURVE",
"505 79 OFFCURVE",
"511 71 CURVE",
"527 39 OFFCURVE",
"573 29 OFFCURVE",
"595 29 CURVE",
"597 22 OFFCURVE",
"593 1 OFFCURVE",
"589 -4 CURVE",
"552 -2 OFFCURVE",
"506 2 OFFCURVE",
"468 2 CURVE SMOOTH",
"416 2 OFFCURVE",
"377 -2 OFFCURVE",
"325 -4 CURVE",
"321 1 OFFCURVE",
"327 29 OFFCURVE",
"332 29 CURVE SMOOTH",
"342 29 OFFCURVE",
"387 40 OFFCURVE",
"391 58 CURVE SMOOTH",
"392 61 OFFCURVE",
"391 66 OFFCURVE",
"390 69 CURVE SMOOTH",
"299 286 LINE",
"255 236 OFFCURVE",
"145 112 OFFCURVE",
"118 74 CURVE SMOOTH",
"114 68 OFFCURVE",
"109 62 OFFCURVE",
"108 58 CURVE SMOOTH",
"105 43 OFFCURVE",
"136 29 OFFCURVE",
"176 29 CURVE",
"179 23 OFFCURVE",
"176 3 OFFCURVE",
"172 -4 CURVE",
"140 -2 OFFCURVE",
"93 2 OFFCURVE",
"59 2 CURVE SMOOTH",
"11 2 OFFCURVE",
"-20 -2 OFFCURVE",
"-58 -4 CURVE",
"-60 2 OFFCURVE",
"-55 24 OFFCURVE",
"-51 29 CURVE",
"-44 29 OFFCURVE",
"19 32 OFFCURVE",
"55 72 CURVE SMOOTH",
"281 327 LINE",
"192 542 LINE SMOOTH",
"180 574 OFFCURVE",
"167 601 OFFCURVE",
"150 614 CURVE SMOOTH",
"138 624 OFFCURVE",
"106 629 OFFCURVE",
"95 629 CURVE",
"90 629 OFFCURVE",
"96 657 OFFCURVE",
"102 662 CURVE",
"147 660 OFFCURVE",
"185 656 OFFCURVE"
);
}
);
width = 639;
}
);
unicode = 0058;
userData = {
com.fontlab.hintData = {
hhints = (
{
position = -4;
width = 33;
},
{
position = 629;
width = 33;
}
);
};
};
},
{
glyphname = Y;
lastChange = "2017-07-12 19:24:34 +0000";
layers = (
{
layerId = "AF37C979-5169-4EE5-B183-132B179D5F1C";
paths = (
{
closed = 1;
nodes = (
"201 130 CURVE SMOOTH",
"229 276 LINE",
"230 283 OFFCURVE",
"229 291 OFFCURVE",
"227 300 CURVE",
"221 328 OFFCURVE",
"150 542 OFFCURVE",
"150 542 CURVE SMOOTH",
"139 574 OFFCURVE",
"132 586 OFFCURVE",
"117 604 CURVE SMOOTH",
"105 622 OFFCURVE",
"76 629 OFFCURVE",
"64 629 CURVE",
"60 633 OFFCURVE",
"65 656 OFFCURVE",
"71 662 CURVE",
"111 659 OFFCURVE",
"152 656 OFFCURVE",
"194 656 CURVE SMOOTH",
"236 656 OFFCURVE",
"282 659 OFFCURVE",
"320 662 CURVE",
"322 656 OFFCURVE",
"319 633 OFFCURVE",
"313 629 CURVE",
"301 629 OFFCURVE",
"256 626 OFFCURVE",
"251 600 CURVE SMOOTH",
"249 594 OFFCURVE",
"253 586 OFFCURVE",
"256 576 CURVE SMOOTH",
"330 346 LINE",
"364 388 OFFCURVE",
"461 530 OFFCURVE",
"497 585 CURVE SMOOTH",
"501 591 OFFCURVE",
"503 598 OFFCURVE",
"504 604 CURVE SMOOTH",
"506 616 OFFCURVE",
"473 628 OFFCURVE",
"441 628 CURVE",
"438 633 OFFCURVE",
"442 657 OFFCURVE",
"446 662 CURVE",
"484 659 OFFCURVE",
"506 656 OFFCURVE",
"545 656 CURVE SMOOTH",
"589 656 OFFCURVE",
"612 660 OFFCURVE",
"650 662 CURVE",
"652 658 OFFCURVE",
"646 632 OFFCURVE",
"642 628 CURVE",
"632 628 OFFCURVE",
"585 628 OFFCURVE",
"561 596 CURVE",
"549 582 OFFCURVE",
"363 330 OFFCURVE",
"344 300 CURVE",
"338 291 OFFCURVE",
"337 282 OFFCURVE",
"335 274 CURVE",
"306 130 LINE SMOOTH",
"298 94 OFFCURVE",
"293 64 OFFCURVE",
"296 46 CURVE SMOOTH",
"298 34 OFFCURVE",
"342 29 OFFCURVE",
"354 29 CURVE",
"357 23 OFFCURVE",
"354 2 OFFCURVE",
"348 -4 CURVE",
"312 -1 OFFCURVE",
"266 2 OFFCURVE",
"228 2 CURVE SMOOTH",
"190 2 OFFCURVE",
"145 -1 OFFCURVE",
"107 -4 CURVE",
"103 2 OFFCURVE",
"107 23 OFFCURVE",
"113 29 CURVE",
"125 29 OFFCURVE",
"172 34 OFFCURVE",
"178 46 CURVE SMOOTH",
"188 64 OFFCURVE",
"193 94 OFFCURVE"
);
}
);
width = 566;
}
);
unicode = 0059;
userData = {
com.fontlab.hintData = {
hhints = (
{
position = -4;
width = 33;
},
{
position = 629;
width = 33;
}
);
};
};
},
{
glyphname = Z;
lastChange = "2017-07-12 19:24:34 +0000";
layers = (
{
layerId = "AF37C979-5169-4EE5-B183-132B179D5F1C";
paths = (
{
closed = 1;
nodes = (
"285 617 LINE SMOOTH",
"204 617 OFFCURVE",
"162 555 OFFCURVE",
"128 483 CURVE SMOOTH",
"126 480 OFFCURVE",
"123 478 OFFCURVE",
"116 478 CURVE SMOOTH",
"107 478 OFFCURVE",
"94 481 OFFCURVE",
"92 484 CURVE",
"116 536 OFFCURVE",
"139 600 OFFCURVE",
"159 666 CURVE",
"175 662 OFFCURVE",
"238 658 OFFCURVE",
"257 658 CURVE SMOOTH",
"412 658 LINE SMOOTH",
"490 658 OFFCURVE",
"541 662 OFFCURVE",
"620 668 CURVE",
"624 667 OFFCURVE",
"629 650 OFFCURVE",
"627 641 CURVE",
"624 633 OFFCURVE",
"236 161 OFFCURVE",
"132 42 CURVE",
"355 42 LINE SMOOTH",
"396 42 OFFCURVE",
"429 59 OFFCURVE",
"455 84 CURVE SMOOTH",
"480 108 OFFCURVE",
"498 136 OFFCURVE",
"517 171 CURVE SMOOTH",
"519 174 OFFCURVE",
"524 176 OFFCURVE",
"530 176 CURVE SMOOTH",
"539 176 OFFCURVE",
"552 172 OFFCURVE",
"554 168 CURVE",
"522 102 OFFCURVE",
"494 46 OFFCURVE",
"476 0 CURVE",
"2 0 LINE",
"-9 0 OFFCURVE",
"-19 13 OFFCURVE",
"-15 18 CURVE SMOOTH",
"485 618 LINE"
);
}
);
width = 606;
}
);
unicode = 005A;
userData = {
com.fontlab.hintData = {
hhints = (
{
position = 0;
width = 42;
},
{
position = 617;
width = 41;
},
{
position = 646;
width = 20;
}
);
};
};
},
{
glyphname = a;
lastChange = "2017-07-12 19:24:34 +0000";
layers = (
{
layerId = "AF37C979-5169-4EE5-B183-132B179D5F1C";
paths = (
{
closed = 1;
nodes = (
"312 442 CURVE SMOOTH",
"348 442 OFFCURVE",
"384 433 OFFCURVE",
"404 426 CURVE",
"342 119 LINE SMOOTH",
"341 115 OFFCURVE",
"338 91 OFFCURVE",
"338 86 CURVE SMOOTH",
"338 77 OFFCURVE",
"340 63 OFFCURVE",
"350 63 CURVE SMOOTH",
"372 63 OFFCURVE",
"418 119 OFFCURVE",
"421 123 CURVE",
"426 123 OFFCURVE",
"433 106 OFFCURVE",
"433 100 CURVE",
"419 74 OFFCURVE",
"338 -7 OFFCURVE",
"288 -7 CURVE SMOOTH",
"260 -7 OFFCURVE",
"240 15 OFFCURVE",
"240 52 CURVE SMOOTH",
"240 58 OFFCURVE",
"242 74 OFFCURVE",
"244 88 CURVE SMOOTH",
"246 101 OFFCURVE",
"248 107 OFFCURVE",
"249 113 CURVE",
"229 77 OFFCURVE",
"161 -6 OFFCURVE",
"102 -6 CURVE SMOOTH",
"47 -6 OFFCURVE",
"15 45 OFFCURVE",
"15 114 CURVE SMOOTH",
"15 290 OFFCURVE",
"188 442 OFFCURVE"
);
},
{
closed = 1;
nodes = (
"260 394 CURVE SMOOTH",
"188 394 OFFCURVE",
"115 268 OFFCURVE",
"115 152 CURVE SMOOTH",
"115 97 OFFCURVE",
"130 67 OFFCURVE",
"158 67 CURVE SMOOTH",
"200 67 OFFCURVE",
"260 180 OFFCURVE",
"280 278 CURVE SMOOTH",
"301 381 LINE",
"293 390 OFFCURVE",
"274 394 OFFCURVE"
);
}
);
width = 469;
}
);
unicode = 0061;
userData = {
com.fontlab.hintData = {
hhints = (
{
position = -7;
width = 70;
},
{
position = 394;
width = 48;
}
);
vhints = (
{
position = 15;
width = 100;
},
{
position = 240;
width = 98;
}
);
};
};
},
{
glyphname = aogonek;
lastChange = "2017-07-12 19:24:34 +0000";
layers = (
{
layerId = "AF37C979-5169-4EE5-B183-132B179D5F1C";
paths = (
{
closed = 1;
nodes = (
"260 394 CURVE SMOOTH",
"188 394 OFFCURVE",
"115 268 OFFCURVE",
"115 152 CURVE SMOOTH",
"115 97 OFFCURVE",
"130 67 OFFCURVE",
"158 67 CURVE SMOOTH",
"200 67 OFFCURVE",
"260 180 OFFCURVE",
"280 278 CURVE SMOOTH",
"301 381 LINE",
"293 390 OFFCURVE",
"274 394 OFFCURVE"
);
},
{
closed = 1;
nodes = (
"433 100 CURVE",
"425 86 OFFCURVE",
"395 55 OFFCURVE",
"365 30 CURVE SMOOTH",
"316 -10 OFFCURVE",
"234 -77 OFFCURVE",
"234 -130 CURVE SMOOTH",
"234 -150 OFFCURVE",
"243 -164 OFFCURVE",
"268 -164 CURVE SMOOTH",
"312 -164 OFFCURVE",
"340 -128 OFFCURVE",
"346 -126 CURVE",
"354 -127 OFFCURVE",
"347 -151 OFFCURVE",
"344 -154 CURVE SMOOTH",
"320 -188 OFFCURVE",
"274 -224 OFFCURVE",
"232 -224 CURVE SMOOTH",
"198 -224 OFFCURVE",
"176 -197 OFFCURVE",
"176 -170 CURVE SMOOTH",
"176 -112 OFFCURVE",
"233 -52 OFFCURVE",
"277 -6 CURVE",
"255 -1 OFFCURVE",
"240 20 OFFCURVE",
"240 52 CURVE SMOOTH",
"240 58 OFFCURVE",
"242 74 OFFCURVE",
"244 88 CURVE SMOOTH",
"246 101 OFFCURVE",
"248 107 OFFCURVE",
"249 113 CURVE",
"229 77 OFFCURVE",
"161 -6 OFFCURVE",
"102 -6 CURVE SMOOTH",
"47 -6 OFFCURVE",
"15 45 OFFCURVE",
"15 114 CURVE SMOOTH",
"15 290 OFFCURVE",
"188 442 OFFCURVE",
"312 442 CURVE SMOOTH",
"348 442 OFFCURVE",
"384 433 OFFCURVE",
"404 426 CURVE",
"342 119 LINE SMOOTH",
"341 115 OFFCURVE",
"338 91 OFFCURVE",
"338 86 CURVE SMOOTH",
"338 77 OFFCURVE",
"340 64 OFFCURVE",
"350 64 CURVE SMOOTH",
"372 64 OFFCURVE",
"418 119 OFFCURVE",
"421 123 CURVE",
"426 123 OFFCURVE",
"433 106 OFFCURVE"
);
}
);
width = 470;
}
);
unicode = 0105;
userData = {
com.fontlab.hintData = {
hhints = (
{
position = -224;
width = 60;
},
{
position = -6;
width = 73;
},
{
position = 394;
width = 48;
}
);
vhints = (
{
position = 15;
width = 100;
},
{
position = 176;
width = 58;
},
{
position = 240;
width = 98;
}
);
};
};
},
{
glyphname = ae;
lastChange = "2017-07-12 19:24:34 +0000";
layers = (
{
layerId = "AF37C979-5169-4EE5-B183-132B179D5F1C";
paths = (
{
closed = 1;
nodes = (
"434 403 CURVE",
"378 403 OFFCURVE",
"339 290 OFFCURVE",
"332 228 CURVE",
"371 228 OFFCURVE",
"467 290 OFFCURVE",
"467 364 CURVE",
"467 386 OFFCURVE",
"455 403 OFFCURVE"
);
},
{
closed = 1;
nodes = (
"225 99 CURVE",
"223 106 OFFCURVE",
"232 194 OFFCURVE",
"235 205 CURVE",
"202 199 OFFCURVE",
"165 185 OFFCURVE",
"149 176 CURVE SMOOTH",
"120 160 OFFCURVE",
"106 134 OFFCURVE",
"104 112 CURVE",
"100 74 OFFCURVE",
"122 54 OFFCURVE",
"146 54 CURVE",
"172 54 OFFCURVE",
"220 90 OFFCURVE"
);
},
{
closed = 1;
nodes = (
"254 442 CURVE",
"296 442 OFFCURVE",
"326 415 OFFCURVE",
"337 379 CURVE",
"374 416 OFFCURVE",
"426 442 OFFCURVE",
"474 442 CURVE SMOOTH",
"534 442 OFFCURVE",
"563 406 OFFCURVE",
"563 364 CURVE",
"563 268 OFFCURVE",
"396 199 OFFCURVE",
"328 194 CURVE",
"327 190 OFFCURVE",
"325 169 OFFCURVE",
"325 160 CURVE SMOOTH",
"325 110 OFFCURVE",
"341 65 OFFCURVE",
"390 65 CURVE",
"434 65 OFFCURVE",
"488 128 OFFCURVE",
"492 132 CURVE",
"498 132 OFFCURVE",
"505 114 OFFCURVE",
"505 107 CURVE",
"481 71 OFFCURVE",
"393 -6 OFFCURVE",
"336 -6 CURVE",
"293 -6 OFFCURVE",
"250 20 OFFCURVE",
"234 64 CURVE",
"218 48 OFFCURVE",
"120 -8 OFFCURVE",
"92 -8 CURVE",
"38 -8 OFFCURVE",
"0 37 OFFCURVE",
"5 97 CURVE SMOOTH",
"9 139 OFFCURVE",
"41 175 OFFCURVE",
"65 187 CURVE SMOOTH",
"91 198 OFFCURVE",
"182 226 OFFCURVE",
"234 242 CURVE SMOOTH",
"240 244 OFFCURVE",
"240 249 OFFCURVE",
"242 260 CURVE SMOOTH",
"249 314 LINE SMOOTH",
"250 322 OFFCURVE",
"250 331 OFFCURVE",
"250 337 CURVE",
"250 369 OFFCURVE",
"237 404 OFFCURVE",
"206 404 CURVE SMOOTH",
"174 404 OFFCURVE",
"160 374 OFFCURVE",
"144 333 CURVE SMOOTH",
"133 306 OFFCURVE",
"117 288 OFFCURVE",
"91 288 CURVE SMOOTH",
"69 288 OFFCURVE",
"58 309 OFFCURVE",
"60 327 CURVE SMOOTH",
"62 340 OFFCURVE",
"68 353 OFFCURVE",
"76 364 CURVE",
"98 383 OFFCURVE",
"183 442 OFFCURVE"
);
}
);
width = 582;
}
);
unicode = 00E6;
userData = {
com.fontlab.hintData = {
hhints = (
{
position = -8;
width = 62;
},
{
position = -6;
width = 71;
},
{
position = 194;
width = 34;
},
{
position = 404;
width = 38;
}
);
vhints = (
{
position = 60;
width = 84;
},
{
position = 467;
width = 96;
}
);
};
};
},
{
glyphname = b;
lastChange = "2017-07-12 19:24:34 +0000";
layers = (
{
layerId = "AF37C979-5169-4EE5-B183-132B179D5F1C";
paths = (
{
closed = 1;
nodes = (
"278 370 CURVE SMOOTH",
"234 370 OFFCURVE",
"157 261 OFFCURVE",
"138 162 CURVE SMOOTH",
"124 94 OFFCURVE",
"132 33 OFFCURVE",
"174 33 CURVE SMOOTH",
"248 33 OFFCURVE",
"311 214 OFFCURVE",
"311 302 CURVE SMOOTH",
"311 333 OFFCURVE",
"308 370 OFFCURVE"
);
},
{
closed = 1;
nodes = (
"166 310 LINE",
"215 390 OFFCURVE",
"292 442 OFFCURVE",
"332 442 CURVE SMOOTH",
"383 442 OFFCURVE",
"413 401 OFFCURVE",
"413 330 CURVE SMOOTH",
"413 146 OFFCURVE",
"254 -6 OFFCURVE",
"144 -6 CURVE SMOOTH",
"84 -6 OFFCURVE",
"39 37 OFFCURVE",
"39 109 CURVE SMOOTH",
"39 121 OFFCURVE",
"43 147 OFFCURVE",
"45 160 CURVE SMOOTH",
"124 560 LINE SMOOTH",
"128 578 OFFCURVE",
"132 601 OFFCURVE",
"132 612 CURVE SMOOTH",
"132 631 OFFCURVE",
"88 632 OFFCURVE",
"72 632 CURVE",
"69 636 OFFCURVE",
"72 653 OFFCURVE",
"76 657 CURVE",
"131 662 OFFCURVE",
"210 682 OFFCURVE",
"232 690 CURVE",
"237 687 OFFCURVE",
"237 678 OFFCURVE",
"237 672 CURVE SMOOTH",
"237 664 OFFCURVE",
"229 620 OFFCURVE",
"224 596 CURVE SMOOTH"
);
}
);
width = 447;
}
);
unicode = 0062;
userData = {
com.fontlab.hintData = {
hhints = (
{
position = -6;
width = 39;
},
{
position = 370;
width = 72;
},
{
position = 632;
width = 25;
},
{
position = 670;
width = 20;
}
);
vhints = (
{
position = 132;
width = 105;
},
{
position = 311;
width = 102;
}
);
};
};
},
{
glyphname = c;
lastChange = "2017-07-12 19:24:34 +0000";
layers = (
{
layerId = "AF37C979-5169-4EE5-B183-132B179D5F1C";
paths = (
{
closed = 1;
nodes = (
"271 442 CURVE SMOOTH",
"307 442 OFFCURVE",
"333 428 OFFCURVE",
"346 418 CURVE",
"350 412 OFFCURVE",
"358 397 OFFCURVE",
"358 380 CURVE SMOOTH",
"358 354 OFFCURVE",
"339 327 OFFCURVE",
"313 327 CURVE SMOOTH",
"293 327 OFFCURVE",
"278 340 OFFCURVE",
"270 356 CURVE SMOOTH",
"260 372 OFFCURVE",
"248 396 OFFCURVE",
"222 396 CURVE SMOOTH",
"176 396 OFFCURVE",
"122 286 OFFCURVE",
"122 166 CURVE SMOOTH",
"122 114 OFFCURVE",
"136 65 OFFCURVE",
"188 65 CURVE SMOOTH",
"233 65 OFFCURVE",
"286 128 OFFCURVE",
"289 131 CURVE",
"295 131 OFFCURVE",
"302 114 OFFCURVE",
"302 108 CURVE",
"289 87 OFFCURVE",
"206 -6 OFFCURVE",
"136 -6 CURVE SMOOTH",
"71 -6 OFFCURVE",
"20 42 OFFCURVE",
"20 136 CURVE SMOOTH",
"20 294 OFFCURVE",
"159 442 OFFCURVE"
);
}
);
width = 369;
}
);
unicode = 0063;
userData = {
com.fontlab.hintData = {
hhints = (
{
position = -6;
width = 71;
},
{
position = 396;
width = 46;
}
);
vhints = (
{
position = 20;
width = 102;
}
);
};
};
},
{
glyphname = d;
lastChange = "2017-07-12 19:24:34 +0000";
layers = (
{
layerId = "AF37C979-5169-4EE5-B183-132B179D5F1C";
paths = (
{
closed = 1;
nodes = (
"292 347 CURVE",
"294 373 OFFCURVE",
"284 394 OFFCURVE",
"262 394 CURVE SMOOTH",
"188 394 OFFCURVE",
"115 267 OFFCURVE",
"115 151 CURVE SMOOTH",
"115 99 OFFCURVE",
"128 67 OFFCURVE",
"158 67 CURVE SMOOTH",
"200 67 OFFCURVE",
"264 190 OFFCURVE",
"280 278 CURVE",
"280 278 OFFCURVE",
"292 341 OFFCURVE"
);
},
{
closed = 1;
nodes = (
"336 560 LINE",
"339 578 OFFCURVE",
"345 601 OFFCURVE",
"345 612 CURVE SMOOTH",
"345 631 OFFCURVE",
"300 632 OFFCURVE",
"284 632 CURVE",
"281 636 OFFCURVE",
"284 653 OFFCURVE",
"288 657 CURVE",
"343 662 OFFCURVE",
"422 682 OFFCURVE",
"444 690 CURVE",
"449 687 OFFCURVE",
"450 678 OFFCURVE",
"450 672 CURVE SMOOTH",
"450 664 OFFCURVE",
"442 620 OFFCURVE",
"437 596 CURVE SMOOTH",
"342 119 LINE SMOOTH",
"341 115 OFFCURVE",
"338 91 OFFCURVE",
"338 86 CURVE SMOOTH",
"338 77 OFFCURVE",
"340 64 OFFCURVE",
"350 64 CURVE SMOOTH",
"372 64 OFFCURVE",
"418 119 OFFCURVE",
"421 123 CURVE",
"426 123 OFFCURVE",
"433 106 OFFCURVE",
"433 100 CURVE",
"419 74 OFFCURVE",
"338 -7 OFFCURVE",
"288 -7 CURVE SMOOTH",
"266 -7 OFFCURVE",
"252 8 OFFCURVE",
"246 31 CURVE SMOOTH",
"243 39 OFFCURVE",
"242 56 OFFCURVE",
"244 78 CURVE SMOOTH",
"246 92 OFFCURVE",
"247 105 OFFCURVE",
"249 113 CURVE",
"231 79 OFFCURVE",
"162 -6 OFFCURVE",
"102 -6 CURVE SMOOTH",
"43 -6 OFFCURVE",
"15 53 OFFCURVE",
"15 116 CURVE SMOOTH",
"15 278 OFFCURVE",
"171 432 OFFCURVE",
"298 442 CURVE SMOOTH",
"314 442 OFFCURVE",
"308 442 OFFCURVE",
"314 442 CURVE"
);
}
);
width = 469;
}
);
unicode = 0064;
userData = {
com.fontlab.hintData = {
hhints = (
{
position = -6;
width = 73;
},
{
position = 394;
width = 48;
},
{
position = 632;
width = 25;
},
{
position = 670;
width = 20;
}
);
vhints = (
{
position = 15;
width = 100;
},
{
position = 345;
width = 105;
}
);
};
};
},
{
glyphname = eth;
lastChange = "2017-07-12 19:24:34 +0000";
layers = (
{
layerId = "AF37C979-5169-4EE5-B183-132B179D5F1C";
paths = (
{
closed = 1;
nodes = (
"290 217 CURVE SMOOTH",
"301 272 OFFCURVE",
"305 334 OFFCURVE",
"301 350 CURVE SMOOTH",
"292 385 OFFCURVE",
"270 404 OFFCURVE",
"244 404 CURVE SMOOTH",
"184 404 OFFCURVE",
"147 310 OFFCURVE",
"130 217 CURVE SMOOTH",
"112 119 OFFCURVE",
"129 33 OFFCURVE",
"173 33 CURVE SMOOTH",
"232 33 OFFCURVE",
"271 119 OFFCURVE"
);
},
{
closed = 1;
nodes = (
"144 669 CURVE",
"145 676 OFFCURVE",
"153 691 OFFCURVE",
"160 691 CURVE SMOOTH",
"202.541 679.149 OFFCURVE",
"245.452 657.049 OFFCURVE",
"283.233 625.121 CURVE",
"405 705 LINE",
"409 699 OFFCURVE",
"420 679 OFFCURVE",
"415 674 CURVE SMOOTH",
"306.997 603.002 LINE",
"380.226 527.983 OFFCURVE",
"426.256 411.063 OFFCURVE",
"396 256 CURVE SMOOTH",
"367 108 OFFCURVE",
"255 -7 OFFCURVE",
"165 -7 CURVE SMOOTH",
"43 -7 OFFCURVE",
"7 100 OFFCURVE",
"28 210 CURVE SMOOTH",
"49 318 OFFCURVE",
"153 444 OFFCURVE",
"259 444 CURVE SMOOTH",
"285 444 OFFCURVE",
"305 435 OFFCURVE",
"313 426 CURVE",
"313.614 469.573 OFFCURVE",
"304.435 522.561 OFFCURVE",
"263.737 574.564 CURVE",
"164 509 LINE",
"160 516 OFFCURVE",
"150 536 OFFCURVE",
"155 541 CURVE SMOOTH",
"242.617 598.477 LINE",
"218.406 622.942 OFFCURVE",
"186.312 646.823 OFFCURVE"
);
}
);
width = 451;
}
);
unicode = 00F0;
userData = {
com.fontlab.hintData = {
hhints = (
{
position = -7;
width = 40;
},
{
position = 404;
width = 40;
},
{
position = 669;
width = 22;
}
);
};
};
},
{
glyphname = dcroat;
lastChange = "2017-07-12 19:24:34 +0000";
layers = (
{
components = (
{
name = d;
}
);
layerId = "AF37C979-5169-4EE5-B183-132B179D5F1C";
paths = (
{
closed = 1;
nodes = (
"230 560 CURVE",
"256 560 OFFCURVE",
"485 560 OFFCURVE",
"497 560 CURVE SMOOTH",
"501 560 OFFCURVE",
"502 556 OFFCURVE",
"501 552 CURVE SMOOTH",
"500 547 OFFCURVE",
"495 532 OFFCURVE",
"490 524 CURVE",
"464 524 OFFCURVE",
"234 524 OFFCURVE",
"222 524 CURVE SMOOTH",
"218 524 OFFCURVE",
"219 531 OFFCURVE",
"220 535 CURVE SMOOTH",
"221 540 OFFCURVE",
"223 552 OFFCURVE"
);
}
);
width = 464;
}
);
unicode = 0111;
userData = {
com.fontlab.hintData = {
hhints = (
{
position = -6;
width = 73;
},
{
position = 394;
width = 48;
},
{
position = 524;
width = 36;
},
{
position = 632;
width = 25;
},
{
position = 670;
width = 20;
}
);
vhints = (
{
position = 15;
width = 100;
},
{
position = 345;
width = 105;
}
);
};
};
},
{
glyphname = e;
lastChange = "2017-07-12 19:24:34 +0000";
layers = (
{
layerId = "AF37C979-5169-4EE5-B183-132B179D5F1C";
paths = (
{
closed = 1;
nodes = (
"272 442 CURVE SMOOTH",
"323 442 OFFCURVE",
"360 415 OFFCURVE",
"360 365 CURVE SMOOTH",
"360 265 OFFCURVE",
"185 190 OFFCURVE",
"123 190 CURVE",
"122 187 OFFCURVE",
"121 167 OFFCURVE",
"121 162 CURVE SMOOTH",
"121 113 OFFCURVE",
"136 65 OFFCURVE",
"186 65 CURVE SMOOTH",
"231 65 OFFCURVE",
"285 129 OFFCURVE",
"288 132 CURVE",
"294 132 OFFCURVE",
"302 113 OFFCURVE",
"302 107 CURVE",
"289 85 OFFCURVE",
"195 -6 OFFCURVE",
"132 -6 CURVE SMOOTH",
"61 -6 OFFCURVE",
"20 47 OFFCURVE",
"20 140 CURVE SMOOTH",
"20 288 OFFCURVE",
"157 442 OFFCURVE"
);
},
{
closed = 1;
nodes = (
"126 222 CURVE",
"165 222 OFFCURVE",
"264 290 OFFCURVE",
"264 364 CURVE SMOOTH",
"264 386 OFFCURVE",
"250 403 OFFCURVE",
"230 403 CURVE SMOOTH",
"172 403 OFFCURVE",
"131 273 OFFCURVE"
);
}
);
width = 379;
}
);
unicode = 0065;
userData = {
com.fontlab.hintData = {
hhints = (
{
position = -6;
width = 71;
},
{
position = 190;
width = 32;
},
{
position = 403;
width = 39;
}
);
vhints = (
{
position = 20;
width = 101;
},
{
position = 264;
width = 96;
}
);
};
};
},
{
glyphname = eogonek;
lastChange = "2017-07-12 19:24:34 +0000";
layers = (
{
layerId = "AF37C979-5169-4EE5-B183-132B179D5F1C";
paths = (
{
closed = 1;
nodes = (
"126 222 CURVE",
"165 222 OFFCURVE",
"264 290 OFFCURVE",
"264 364 CURVE SMOOTH",
"264 391 OFFCURVE",
"250 403 OFFCURVE",
"230 403 CURVE SMOOTH",
"172 403 OFFCURVE",
"131 273 OFFCURVE"
);
},
{
closed = 1;
nodes = (
"42 -170 CURVE SMOOTH",
"42 -116 OFFCURVE",
"112 -39 OFFCURVE",
"146 -5 CURVE",
"141 -6 OFFCURVE",
"137 -6 OFFCURVE",
"132 -6 CURVE SMOOTH",
"61 -6 OFFCURVE",
"20 47 OFFCURVE",
"20 140 CURVE SMOOTH",
"20 288 OFFCURVE",
"157 442 OFFCURVE",
"272 442 CURVE SMOOTH",
"323 442 OFFCURVE",
"360 415 OFFCURVE",
"360 365 CURVE SMOOTH",
"360 265 OFFCURVE",
"185 190 OFFCURVE",
"123 190 CURVE",
"122 187 OFFCURVE",
"121 167 OFFCURVE",
"121 162 CURVE SMOOTH",
"121 113 OFFCURVE",
"136 65 OFFCURVE",
"186 65 CURVE SMOOTH",
"231 65 OFFCURVE",
"285 129 OFFCURVE",
"288 132 CURVE",
"294 132 OFFCURVE",
"302 113 OFFCURVE",
"302 107 CURVE",
"296 97 OFFCURVE",
"277 78 OFFCURVE",
"250 54 CURVE SMOOTH",
"189 1 OFFCURVE",
"99 -82 OFFCURVE",
"99 -130 CURVE SMOOTH",
"99 -150 OFFCURVE",
"107 -164 OFFCURVE",
"132 -164 CURVE SMOOTH",
"176 -164 OFFCURVE",
"204 -128 OFFCURVE",
"210 -126 CURVE",
"218 -127 OFFCURVE",
"212 -151 OFFCURVE",
"209 -154 CURVE SMOOTH",
"185 -188 OFFCURVE",
"138 -224 OFFCURVE",
"96 -224 CURVE SMOOTH",
"62 -224 OFFCURVE",
"42 -197 OFFCURVE"
);
}
);
width = 380;
}
);
unicode = 0119;
userData = {
com.fontlab.hintData = {
hhints = (
{
position = -224;
width = 60;
},
{
position = -6;
width = 71;
},
{
position = 190;
width = 32;
},
{
position = 403;
width = 39;
}
);
vhints = (
{
position = 20;
width = 101;
},
{
position = 42;
width = 57;
},
{
position = 264;
width = 96;
}
);
};
};
},
{
glyphname = f;
lastChange = "2017-07-12 19:24:34 +0000";
layers = (
{
layerId = "AF37C979-5169-4EE5-B183-132B179D5F1C";
paths = (
{
closed = 1;
nodes = (
"336 690 CURVE SMOOTH",
"368 690 OFFCURVE",
"391 678 OFFCURVE",
"400 668 CURVE",
"402 663 OFFCURVE",
"404 656 OFFCURVE",
"404 648 CURVE SMOOTH",
"403 624 OFFCURVE",
"391 600 OFFCURVE",
"370 600 CURVE SMOOTH",
"353 600 OFFCURVE",
"341 609 OFFCURVE",
"330 623 CURVE SMOOTH",
"322 633 OFFCURVE",
"313 646 OFFCURVE",
"297 646 CURVE SMOOTH",
"262 646 OFFCURVE",
"244 578 OFFCURVE",
"213 419 CURVE",
"313 419 LINE SMOOTH",
"317 419 OFFCURVE",
"318 411 OFFCURVE",
"318 406 CURVE SMOOTH",
"318 396 OFFCURVE",
"313 385 OFFCURVE",
"308 377 CURVE",
"205 377 LINE",
"205 377 OFFCURVE",
"172 176 OFFCURVE",
"148 50 CURVE SMOOTH",
"116 -114 OFFCURVE",
"12 -226 OFFCURVE",
"-68 -226 CURVE SMOOTH",
"-100 -226 OFFCURVE",
"-123 -214 OFFCURVE",
"-132 -204 CURVE",
"-134 -197 OFFCURVE",
"-136 -189 OFFCURVE",
"-136 -180 CURVE SMOOTH",
"-135 -157 OFFCURVE",
"-122 -135 OFFCURVE",
"-102 -135 CURVE SMOOTH",
"-85 -135 OFFCURVE",
"-73 -144 OFFCURVE",
"-62 -158 CURVE SMOOTH",
"-54 -168 OFFCURVE",
"-45 -182 OFFCURVE",
"-29 -182 CURVE SMOOTH",
"10 -182 OFFCURVE",
"22 -113 OFFCURVE",
"53 46 CURVE",
"111 377 LINE",
"36 377 LINE SMOOTH",
"35 377 OFFCURVE",
"34 378 OFFCURVE",
"34 380 CURVE SMOOTH",
"34 390 OFFCURVE",
"58 419 OFFCURVE",
"81 419 CURVE SMOOTH",
"118 419 LINE",
"150 583 OFFCURVE",
"262 690 OFFCURVE"
);
}
);
width = 304;
}
);
unicode = 0066;
userData = {
com.fontlab.hintData = {
hhints = (
{
position = -226;
width = 44;
},
{
position = 377;
width = 42;
},
{
position = 646;
width = 44;
}
);
};
};
},
{
glyphname = g;
lastChange = "2017-07-12 19:24:34 +0000";
layers = (
{
layerId = "AF37C979-5169-4EE5-B183-132B179D5F1C";
paths = (
{
closed = 1;
nodes = (
"276 -116 CURVE SMOOTH",
"276 -64 OFFCURVE",
"180 -28 OFFCURVE",
"122 -10 CURVE",
"84 -28 OFFCURVE",
"42 -53 OFFCURVE",
"42 -97 CURVE SMOOTH",
"42 -159 OFFCURVE",
"101 -187 OFFCURVE",
"170 -187 CURVE SMOOTH",
"221 -187 OFFCURVE",
"276 -159 OFFCURVE"
);
},
{
closed = 1;
nodes = (
"223 411 CURVE SMOOTH",
"167 412 OFFCURVE",
"136 330 OFFCURVE",
"134 262 CURVE SMOOTH",
"133 214 OFFCURVE",
"147 166 OFFCURVE",
"187 165 CURVE SMOOTH",
"238 164 OFFCURVE",
"275 237 OFFCURVE",
"276 298 CURVE SMOOTH",
"277 346 OFFCURVE",
"262 410 OFFCURVE"
);
},
{
closed = 1;
nodes = (
"348 388 CURVE",
"350 382 OFFCURVE",
"369 349 OFFCURVE",
"369 310 CURVE SMOOTH",
"369 210 OFFCURVE",
"288 158 OFFCURVE",
"254 142 CURVE SMOOTH",
"222 126 OFFCURVE",
"164 116 OFFCURVE",
"164 94 CURVE SMOOTH",
"164 62 OFFCURVE",
"360 49 OFFCURVE",
"360 -59 CURVE SMOOTH",
"360 -154 OFFCURVE",
"258 -230 OFFCURVE",
"114 -230 CURVE SMOOTH",
"14 -230 OFFCURVE",
"-53 -185 OFFCURVE",
"-53 -122 CURVE SMOOTH",
"-53 -52 OFFCURVE",
"33 -17 OFFCURVE",
"87 5 CURVE",
"87 5 OFFCURVE",
"60 19 OFFCURVE",
"56 23 CURVE",
"46 31 OFFCURVE",
"36 37 OFFCURVE",
"36 55 CURVE SMOOTH",
"36 80 OFFCURVE",
"118 123 OFFCURVE",
"158 133 CURVE",
"111 141 OFFCURVE",
"40 179 OFFCURVE",
"40 258 CURVE SMOOTH",
"40 364 OFFCURVE",
"130 447 OFFCURVE",
"226 447 CURVE",
"264 447 OFFCURVE",
"291 436 OFFCURVE",
"316 424 CURVE SMOOTH",
"328 418 OFFCURVE",
"377 437 OFFCURVE",
"390 439 CURVE",
"403 435 OFFCURVE",
"436 415 OFFCURVE",
"436 403 CURVE SMOOTH",
"436 396 OFFCURVE",
"430 387 OFFCURVE",
"422 387 CURVE SMOOTH",
"408 387 OFFCURVE",
"361 388 OFFCURVE"
);
}
);
width = 427;
}
);
unicode = 0067;
userData = {
com.fontlab.hintData = {
hhints = (
{
position = -230;
width = 43;
},
{
position = 387;
width = 52;
},
{
position = 411;
width = 36;
}
);
vhints = (
{
position = -53;
width = 95;
},
{
position = 36;
width = 128;
},
{
position = 40;
width = 94;
},
{
position = 276;
width = 93;
},
{
position = 276;
width = 84;
}
);
};
};
},
{
glyphname = h;
lastChange = "2017-07-12 19:24:34 +0000";
layers = (
{
layerId = "AF37C979-5169-4EE5-B183-132B179D5F1C";
paths = (
{
closed = 1;
nodes = (
"226 596 CURVE",
"226 596 OFFCURVE",
"173 326 OFFCURVE",
"172 322 CURVE",
"170 316 OFFCURVE",
"161 261 OFFCURVE",
"160 256 CURVE",
"182 302 OFFCURVE",
"286 442 OFFCURVE",
"344 442 CURVE",
"392 442 OFFCURVE",
"408 414 OFFCURVE",
"408 366 CURVE SMOOTH",
"408 332 OFFCURVE",
"396 278 OFFCURVE",
"390 246 CURVE SMOOTH",
"364 119 LINE SMOOTH",
"363 115 OFFCURVE",
"360 91 OFFCURVE",
"360 86 CURVE SMOOTH",
"360 77 OFFCURVE",
"362 63 OFFCURVE",
"372 63 CURVE SMOOTH",
"394 63 OFFCURVE",
"439 119 OFFCURVE",
"442 123 CURVE",
"447 123 OFFCURVE",
"454 106 OFFCURVE",
"454 100 CURVE",
"440 74 OFFCURVE",
"360 -7 OFFCURVE",
"310 -7 CURVE SMOOTH",
"282 -7 OFFCURVE",
"261 14 OFFCURVE",
"261 54 CURVE SMOOTH",
"261 65 OFFCURVE",
"265 97 OFFCURVE",
"269 111 CURVE",
"298 253 LINE SMOOTH",
"300 263 OFFCURVE",
"308 308 OFFCURVE",
"308 318 CURVE SMOOTH",
"308 334 OFFCURVE",
"304 350 OFFCURVE",
"290 350 CURVE SMOOTH",
"258 350 OFFCURVE",
"159 227 OFFCURVE",
"133 105 CURVE",
"130 89 OFFCURVE",
"115 23 OFFCURVE",
"110 0 CURVE",
"100 -3 OFFCURVE",
"74 -5 OFFCURVE",
"64 -5 CURVE SMOOTH",
"54 -5 OFFCURVE",
"30 -3 OFFCURVE",
"18 0 CURVE",
"21 16 OFFCURVE",
"126 557 OFFCURVE",
"126 560 CURVE",
"130 578 OFFCURVE",
"134 601 OFFCURVE",
"134 612 CURVE SMOOTH",
"134 631 OFFCURVE",
"90 632 OFFCURVE",
"74 632 CURVE",
"71 636 OFFCURVE",
"74 653 OFFCURVE",
"78 657 CURVE",
"133 662 OFFCURVE",
"212 682 OFFCURVE",
"234 690 CURVE",
"239 687 OFFCURVE",
"239 678 OFFCURVE",
"239 672 CURVE SMOOTH",
"239 664 OFFCURVE",
"230 616 OFFCURVE"
);
}
);
width = 487;
}
);
unicode = 0068;
userData = {
com.fontlab.hintData = {
hhints = (
{
position = -7;
width = 70;
},
{
position = 350;
width = 92;
},
{
position = 632;
width = 25;
},
{
position = 670;
width = 20;
}
);
vhints = (
{
position = 134;
width = 105;
},
{
position = 261;
width = 99;
},
{
position = 308;
width = 100;
}
);
};
};
},
{
glyphname = hbar;
lastChange = "2017-07-12 19:24:34 +0000";
layers = (
{
components = (
{
name = h;
transform = "{1, 0, 0, 1, 1, 0}";
}
);
layerId = "AF37C979-5169-4EE5-B183-132B179D5F1C";
paths = (
{
closed = 1;
nodes = (
"74 560 CURVE",
"100 560 OFFCURVE",
"330 560 OFFCURVE",
"342 560 CURVE SMOOTH",
"346 560 OFFCURVE",
"347 556 OFFCURVE",
"346 552 CURVE SMOOTH",
"345 547 OFFCURVE",
"339 532 OFFCURVE",
"334 524 CURVE",
"308 524 OFFCURVE",
"78 524 OFFCURVE",
"66 524 CURVE SMOOTH",
"62 524 OFFCURVE",
"63 531 OFFCURVE",
"64 535 CURVE SMOOTH",
"65 540 OFFCURVE",
"67 552 OFFCURVE"
);
}
);
width = 488;
}
);
unicode = 0127;
userData = {
com.fontlab.hintData = {
hhints = (
{
position = -7;
width = 70;
},
{
position = 350;
width = 92;
},
{
position = 524;
width = 36;
},
{
position = 632;
width = 25;
},
{
position = 670;
width = 20;
}
);
vhints = (
{
position = 135;
width = 105;
},
{
position = 262;
width = 99;
},
{
position = 309;
width = 100;
}
);
};
};
},
{
glyphname = i;
lastChange = "2017-07-12 19:24:34 +0000";
layers = (
{
layerId = "AF37C979-5169-4EE5-B183-132B179D5F1C";
paths = (
{
closed = 1;
nodes = (
"108 316 LINE SMOOTH",
"109 321 OFFCURVE",
"112 343 OFFCURVE",
"112 348 CURVE SMOOTH",
"112 357 OFFCURVE",
"110 372 OFFCURVE",
"100 372 CURVE SMOOTH",
"78 372 OFFCURVE",
"32 316 OFFCURVE",
"29 312 CURVE",
"24 312 OFFCURVE",
"17 329 OFFCURVE",
"17 335 CURVE",
"31 361 OFFCURVE",
"108 442 OFFCURVE",
"158 442 CURVE SMOOTH",
"188 442 OFFCURVE",
"210 418 OFFCURVE",
"210 380 CURVE SMOOTH",
"210 369 OFFCURVE",
"205 340 OFFCURVE",
"202 324 CURVE",
"158 119 LINE SMOOTH",
"156 112 OFFCURVE",
"155 91 OFFCURVE",
"155 86 CURVE SMOOTH",
"155 77 OFFCURVE",
"156 63 OFFCURVE",
"166 63 CURVE SMOOTH",
"188 63 OFFCURVE",
"234 119 OFFCURVE",
"237 123 CURVE",
"242 123 OFFCURVE",
"249 106 OFFCURVE",
"249 100 CURVE",
"235 74 OFFCURVE",
"154 -7 OFFCURVE",
"104 -7 CURVE SMOOTH",
"77 -7 OFFCURVE",
"56 14 OFFCURVE",
"56 54 CURVE SMOOTH",
"56 65 OFFCURVE",
"61 97 OFFCURVE",
"64 111 CURVE"
);
},
{
closed = 1;
nodes = (
"190 667 CURVE SMOOTH",
"218 667 OFFCURVE",
"236 644 OFFCURVE",
"236 616 CURVE SMOOTH",
"236 578 OFFCURVE",
"206 543 OFFCURVE",
"170 543 CURVE SMOOTH",
"142 543 OFFCURVE",
"124 568 OFFCURVE",
"124 596 CURVE SMOOTH",
"124 633 OFFCURVE",
"154 667 OFFCURVE"
);
}
);
width = 286;
}
);
unicode = 0069;
userData = {
com.fontlab.hintData = {
hhints = (
{
position = -7;
width = 70;
},
{
position = 372;
width = 70;
},
{
position = 543;
width = 124;
}
);
vhints = (
{
position = 56;
width = 99;
},
{
position = 112;
width = 98;
},
{
position = 124;
width = 112;
}
);
};
};
},
{
glyphname = dotlessi;
lastChange = "2017-07-12 19:24:34 +0000";
layers = (
{
layerId = "AF37C979-5169-4EE5-B183-132B179D5F1C";
paths = (
{
closed = 1;
nodes = (
"108 316 LINE SMOOTH",
"109 321 OFFCURVE",
"112 343 OFFCURVE",
"112 348 CURVE SMOOTH",
"112 357 OFFCURVE",
"110 372 OFFCURVE",
"100 372 CURVE SMOOTH",
"78 372 OFFCURVE",
"32 316 OFFCURVE",
"29 312 CURVE",
"24 312 OFFCURVE",
"17 329 OFFCURVE",
"17 335 CURVE",
"31 361 OFFCURVE",
"108 442 OFFCURVE",
"158 442 CURVE SMOOTH",
"188 442 OFFCURVE",
"210 418 OFFCURVE",
"210 380 CURVE SMOOTH",
"210 369 OFFCURVE",
"205 340 OFFCURVE",
"202 324 CURVE",
"158 119 LINE SMOOTH",
"156 112 OFFCURVE",
"155 91 OFFCURVE",
"155 86 CURVE SMOOTH",
"155 77 OFFCURVE",
"156 63 OFFCURVE",
"166 63 CURVE SMOOTH",
"188 63 OFFCURVE",
"234 119 OFFCURVE",
"237 123 CURVE",
"242 123 OFFCURVE",
"249 106 OFFCURVE",
"249 100 CURVE",
"235 74 OFFCURVE",
"154 -7 OFFCURVE",
"104 -7 CURVE SMOOTH",
"77 -7 OFFCURVE",
"56 14 OFFCURVE",
"56 54 CURVE SMOOTH",
"56 65 OFFCURVE",
"61 97 OFFCURVE",
"64 111 CURVE"
);
}
);
width = 286;
}
);
unicode = 0131;
userData = {
com.fontlab.hintData = {
hhints = (
{
position = -7;
width = 70;
},
{
position = 372;
width = 70;
}
);
vhints = (
{
position = 56;
width = 99;
},
{
position = 112;
width = 98;
}
);
};
};
},
{
glyphname = iogonek;
lastChange = "2017-07-12 19:24:34 +0000";
layers = (
{
layerId = "AF37C979-5169-4EE5-B183-132B179D5F1C";
paths = (
{
closed = 1;
nodes = (
"250 100 CURVE",
"242 86 OFFCURVE",
"212 56 OFFCURVE",
"184 32 CURVE SMOOTH",
"130 -16 OFFCURVE",
"70 -78 OFFCURVE",
"70 -130 CURVE SMOOTH",
"70 -150 OFFCURVE",
"78 -164 OFFCURVE",
"103 -164 CURVE SMOOTH",
"147 -164 OFFCURVE",
"176 -128 OFFCURVE",
"182 -126 CURVE",
"190 -127 OFFCURVE",
"183 -151 OFFCURVE",
"180 -154 CURVE SMOOTH",
"156 -188 OFFCURVE",
"110 -224 OFFCURVE",
"68 -224 CURVE SMOOTH",
"34 -224 OFFCURVE",
"12 -197 OFFCURVE",
"12 -170 CURVE SMOOTH",
"12 -114 OFFCURVE",
"68 -48 OFFCURVE",
"105 -7 CURVE",
"78 -7 OFFCURVE",
"56 14 OFFCURVE",
"56 54 CURVE SMOOTH",
"56 65 OFFCURVE",
"61 97 OFFCURVE",
"64 111 CURVE",
"108 316 LINE SMOOTH",
"109 321 OFFCURVE",
"113 343 OFFCURVE",
"113 348 CURVE SMOOTH",
"113 357 OFFCURVE",
"110 372 OFFCURVE",
"100 372 CURVE SMOOTH",
"78 372 OFFCURVE",
"33 316 OFFCURVE",
"30 312 CURVE",
"25 312 OFFCURVE",
"18 329 OFFCURVE",
"18 335 CURVE",
"32 361 OFFCURVE",
"108 442 OFFCURVE",
"158 442 CURVE SMOOTH",
"188 442 OFFCURVE",
"211 418 OFFCURVE",
"211 380 CURVE SMOOTH",
"211 369 OFFCURVE",
"207 340 OFFCURVE",
"204 324 CURVE",
"160 119 LINE SMOOTH",
"158 112 OFFCURVE",
"155 91 OFFCURVE",
"156 86 CURVE SMOOTH",
"156 77 OFFCURVE",
"158 64 OFFCURVE",
"168 64 CURVE SMOOTH",
"190 64 OFFCURVE",
"235 119 OFFCURVE",
"238 123 CURVE",
"243 123 OFFCURVE",
"250 106 OFFCURVE"
);
},
{
closed = 1;
nodes = (
"190 667 CURVE SMOOTH",
"218 667 OFFCURVE",
"238 644 OFFCURVE",
"238 616 CURVE SMOOTH",
"238 578 OFFCURVE",
"208 543 OFFCURVE",
"172 543 CURVE SMOOTH",
"144 543 OFFCURVE",
"126 568 OFFCURVE",
"126 596 CURVE SMOOTH",
"126 633 OFFCURVE",
"154 667 OFFCURVE"
);
}
);
width = 287;
}
);
unicode = 012F;
userData = {
com.fontlab.hintData = {
hhints = (
{
position = -224;
width = 60;
},
{
position = 372;
width = 70;
},
{
position = 543;
width = 124;
}
);
vhints = (
{
position = 12;
width = 58;
},
{
position = 113;
width = 98;
},
{
position = 126;
width = 112;
}
);
};
};
},
{
glyphname = j;
lastChange = "2017-07-12 19:24:34 +0000";
layers = (
{
layerId = "AF37C979-5169-4EE5-B183-132B179D5F1C";
paths = (
{
closed = 1;
nodes = (
"116 316 LINE SMOOTH",
"117 321 OFFCURVE",
"120 343 OFFCURVE",
"120 348 CURVE SMOOTH",
"120 357 OFFCURVE",
"118 372 OFFCURVE",
"108 372 CURVE SMOOTH",
"86 372 OFFCURVE",
"41 316 OFFCURVE",
"38 312 CURVE",
"33 312 OFFCURVE",
"26 329 OFFCURVE",
"26 335 CURVE",
"40 361 OFFCURVE",
"116 442 OFFCURVE",
"166 442 CURVE SMOOTH",
"196 442 OFFCURVE",
"218 418 OFFCURVE",
"218 380 CURVE SMOOTH",
"218 369 OFFCURVE",
"214 340 OFFCURVE",
"211 324 CURVE",
"211 324 OFFCURVE",
"172 120 OFFCURVE",
"164 82 CURVE",
"152 22 OFFCURVE",
"128 -44 OFFCURVE",
"86 -100 CURVE SMOOTH",
"44 -156 OFFCURVE",
"-46 -215 OFFCURVE",
"-78 -226 CURVE",
"-82 -224 OFFCURVE",
"-87 -213 OFFCURVE",
"-87 -205 CURVE",
"-1 -145 OFFCURVE",
"40 -69 OFFCURVE",
"66 61 CURVE"
);
},
{
closed = 1;
nodes = (
"210 668 CURVE SMOOTH",
"238 668 OFFCURVE",
"257 644 OFFCURVE",
"257 616 CURVE SMOOTH",
"257 578 OFFCURVE",
"227 544 OFFCURVE",
"191 544 CURVE SMOOTH",
"163 544 OFFCURVE",
"145 568 OFFCURVE",
"145 596 CURVE SMOOTH",
"145 633 OFFCURVE",
"174 668 OFFCURVE"
);
}
);
width = 268;
}
);
unicode = 006A;
userData = {
com.fontlab.hintData = {
hhints = (
{
position = -226;
width = 21;
},
{
position = 372;
width = 70;
},
{
position = 544;
width = 124;
}
);
vhints = (
{
position = 120;
width = 98;
},
{
position = 145;
width = 112;
}
);
};
};
},
{
glyphname = uni0237;
lastChange = "2017-07-12 19:24:34 +0000";
layers = (
{
layerId = "AF37C979-5169-4EE5-B183-132B179D5F1C";
paths = (
{
closed = 1;
nodes = (
"116 316 LINE SMOOTH",
"117 321 OFFCURVE",
"120 343 OFFCURVE",
"120 348 CURVE SMOOTH",
"120 357 OFFCURVE",
"118 372 OFFCURVE",
"108 372 CURVE SMOOTH",
"86 372 OFFCURVE",
"41 316 OFFCURVE",
"38 312 CURVE",
"33 312 OFFCURVE",
"26 329 OFFCURVE",
"26 335 CURVE",
"40 361 OFFCURVE",
"116 442 OFFCURVE",
"166 442 CURVE SMOOTH",
"196 442 OFFCURVE",
"218 418 OFFCURVE",
"218 380 CURVE SMOOTH",
"218 369 OFFCURVE",
"214 340 OFFCURVE",
"211 324 CURVE",
"211 324 OFFCURVE",
"172 120 OFFCURVE",
"164 82 CURVE",
"152 22 OFFCURVE",
"128 -44 OFFCURVE",
"86 -100 CURVE SMOOTH",
"44 -156 OFFCURVE",
"-46 -215 OFFCURVE",
"-78 -226 CURVE",
"-82 -224 OFFCURVE",
"-87 -213 OFFCURVE",
"-87 -205 CURVE",
"-1 -145 OFFCURVE",
"40 -69 OFFCURVE",
"66 61 CURVE"
);
}
);
width = 268;
}
);
unicode = 0237;
userData = {
com.fontlab.hintData = {
hhints = (
{
position = -226;
width = 21;
},
{
position = 372;
width = 70;
}
);
vhints = (
{
position = 120;
width = 98;
}
);
};
};
},
{
glyphname = k;
lastChange = "2017-07-12 19:24:34 +0000";
layers = (
{
layerId = "AF37C979-5169-4EE5-B183-132B179D5F1C";
paths = (
{
closed = 1;
nodes = (
"350 442 CURVE",
"398 442 OFFCURVE",
"429 414 OFFCURVE",
"429 372 CURVE SMOOTH",
"429 294 OFFCURVE",
"330 242 OFFCURVE",
"237 220 CURVE",
"289 130 OFFCURVE",
"326 66 OFFCURVE",
"368 66 CURVE SMOOTH",
"388 66 OFFCURVE",
"426 110 OFFCURVE",
"436 122 CURVE",
"442 122 OFFCURVE",
"448 105 OFFCURVE",
"448 100 CURVE",
"439 80 OFFCURVE",
"363 -4 OFFCURVE",
"311 -4 CURVE SMOOTH",
"233 -4 OFFCURVE",
"182 128 OFFCURVE",
"150 200 CURVE",
"142 162 OFFCURVE",
"111 0 OFFCURVE",
"111 0 CURVE",
"101 -3 OFFCURVE",
"77 -6 OFFCURVE",
"66 -6 CURVE SMOOTH",
"55 -6 OFFCURVE",
"30 -3 OFFCURVE",
"18 0 CURVE",
"21 16 OFFCURVE",
"126 557 OFFCURVE",
"126 560 CURVE",
"130 578 OFFCURVE",
"135 601 OFFCURVE",
"135 612 CURVE SMOOTH",
"135 631 OFFCURVE",
"90 632 OFFCURVE",
"74 632 CURVE",
"71 636 OFFCURVE",
"74 653 OFFCURVE",
"78 657 CURVE",
"133 662 OFFCURVE",
"212 682 OFFCURVE",
"234 690 CURVE",
"239 687 OFFCURVE",
"240 678 OFFCURVE",
"240 672 CURVE SMOOTH",
"240 664 OFFCURVE",
"231 616 OFFCURVE",
"227 596 CURVE SMOOTH",
"176 332 LINE",
"184 347 OFFCURVE",
"265 442 OFFCURVE"
);
},
{
closed = 1;
nodes = (
"294 381 CURVE",
"236 381 OFFCURVE",
"164 281 OFFCURVE",
"158 239 CURVE",
"222 239 OFFCURVE",
"325 280 OFFCURVE",
"325 348 CURVE",
"325 362 OFFCURVE",
"320 381 OFFCURVE"
);
}
);
width = 481;
}
);
unicode = 006B;
userData = {
com.fontlab.hintData = {
hhints = (
{
position = -4;
width = 70;
},
{
position = 381;
width = 61;
},
{
position = 632;
width = 25;
},
{
position = 670;
width = 20;
}
);
vhints = (
{
position = 135;
width = 105;
},
{
position = 325;
width = 104;
}
);
};
};
},
{
glyphname = kgreenlandic;
lastChange = "2017-07-12 19:24:34 +0000";
layers = (
{
layerId = "AF37C979-5169-4EE5-B183-132B179D5F1C";
paths = (
{
closed = 1;
nodes = (
"108 316 CURVE SMOOTH",
"109 321 OFFCURVE",
"112 343 OFFCURVE",
"112 348 CURVE SMOOTH",
"112 357 OFFCURVE",
"110 372 OFFCURVE",
"100 372 CURVE SMOOTH",
"78 372 OFFCURVE",
"32 316 OFFCURVE",
"29 312 CURVE",
"24 312 OFFCURVE",
"17 329 OFFCURVE",
"17 335 CURVE",
"31 361 OFFCURVE",
"108 442 OFFCURVE",
"158 442 CURVE SMOOTH",
"188 442 OFFCURVE",
"210 418 OFFCURVE",
"210 380 CURVE SMOOTH",
"210 370 OFFCURVE",
"208 355 OFFCURVE",
"206 339 CURVE",
"206 338 OFFCURVE",
"205 333 OFFCURVE",
"205 332 CURVE",
"213 347 OFFCURVE",
"293 442 OFFCURVE",
"378 442 CURVE",
"426 442 OFFCURVE",
"458 414 OFFCURVE",
"458 372 CURVE SMOOTH",
"458 294 OFFCURVE",
"359 242 OFFCURVE",
"266 220 CURVE",
"318 130 OFFCURVE",
"354 66 OFFCURVE",
"396 66 CURVE SMOOTH",
"416 66 OFFCURVE",
"454 110 OFFCURVE",
"464 122 CURVE",
"470 122 OFFCURVE",
"476 105 OFFCURVE",
"476 100 CURVE",
"467 80 OFFCURVE",
"392 -4 OFFCURVE",
"340 -4 CURVE SMOOTH",
"262 -4 OFFCURVE",
"210 128 OFFCURVE",
"178 200 CURVE",
"170 162 OFFCURVE",
"140 0 OFFCURVE",
"140 0 CURVE",
"130 -3 OFFCURVE",
"105 -6 OFFCURVE",
"94 -6 CURVE SMOOTH",
"83 -6 OFFCURVE",
"58 -3 OFFCURVE",
"46 0 CURVE",
"49 16 OFFCURVE",
"108 316 OFFCURVE"
);
},
{
closed = 1;
nodes = (
"323 381 CURVE",
"265 381 OFFCURVE",
"192 281 OFFCURVE",
"186 239 CURVE",
"250 239 OFFCURVE",
"354 280 OFFCURVE",
"354 348 CURVE",
"354 362 OFFCURVE",
"349 381 OFFCURVE"
);
}
);
width = 510;
}
);
unicode = 0138;
userData = {
com.fontlab.hintData = {
hhints = (
{
position = -4;
width = 70;
},
{
position = 372;
width = 70;
},
{
position = 381;
width = 61;
}
);
vhints = (
{
position = 112;
width = 93;
},
{
position = 354;
width = 104;
}
);
};
};
},
{
glyphname = l;
lastChange = "2017-07-12 19:24:34 +0000";
layers = (
{
layerId = "AF37C979-5169-4EE5-B183-132B179D5F1C";
paths = (
{
closed = 1;
nodes = (
"128 560 LINE SMOOTH",
"132 578 OFFCURVE",
"138 601 OFFCURVE",
"138 612 CURVE SMOOTH",
"138 631 OFFCURVE",
"92 632 OFFCURVE",
"76 632 CURVE",
"73 636 OFFCURVE",
"76 653 OFFCURVE",
"80 657 CURVE",
"135 662 OFFCURVE",
"214 682 OFFCURVE",
"236 690 CURVE",
"241 687 OFFCURVE",
"243 678 OFFCURVE",
"243 672 CURVE SMOOTH",
"243 664 OFFCURVE",
"235 620 OFFCURVE",
"230 596 CURVE SMOOTH",
"136 119 LINE SMOOTH",
"135 114 OFFCURVE",
"132 91 OFFCURVE",
"132 86 CURVE SMOOTH",
"132 77 OFFCURVE",
"134 63 OFFCURVE",
"144 63 CURVE SMOOTH",
"166 63 OFFCURVE",
"211 119 OFFCURVE",
"214 123 CURVE",
"219 123 OFFCURVE",
"226 106 OFFCURVE",
"226 100 CURVE",
"212 74 OFFCURVE",
"132 -7 OFFCURVE",
"82 -7 CURVE SMOOTH",
"54 -7 OFFCURVE",
"33 14 OFFCURVE",
"33 54 CURVE SMOOTH",
"33 65 OFFCURVE",
"38 97 OFFCURVE",
"41 111 CURVE"
);
}
);
width = 262;
}
);
unicode = 006C;
userData = {
com.fontlab.hintData = {
hhints = (
{
position = -7;
width = 70;
},
{
position = 632;
width = 25;
},
{
position = 670;
width = 20;
}
);
vhints = (
{
position = 33;
width = 99;
},
{
position = 138;
width = 105;
}
);
};
};
},
{
glyphname = lslash;
lastChange = "2017-07-12 19:24:34 +0000";
layers = (
{
components = (
{
name = l;
transform = "{1, 0, 0, 1, 11, 0}";
}
);
layerId = "AF37C979-5169-4EE5-B183-132B179D5F1C";
paths = (
{
closed = 1;
nodes = (
"37 289 CURVE SMOOTH",
"253 431 LINE",
"256 426 OFFCURVE",
"266 406 OFFCURVE",
"261 403 CURVE SMOOTH",
"44 260 LINE",
"40 266 OFFCURVE",
"32 286 OFFCURVE"
);
}
);
width = 262;
}
);
unicode = 0142;
userData = {
com.fontlab.hintData = {
hhints = (
{
position = -7;
width = 70;
},
{
position = 632;
width = 25;
},
{
position = 670;
width = 20;
}
);
vhints = (
{
position = 37;
width = 224;
},
{
position = 44;
width = 99;
},
{
position = 149;
width = 105;
}
);
};
};
},
{
glyphname = m;
lastChange = "2017-07-12 19:24:34 +0000";
layers = (
{
layerId = "AF37C979-5169-4EE5-B183-132B179D5F1C";
paths = (
{
closed = 1;
nodes = (
"518 111 CURVE",
"523 133 OFFCURVE",
"548 253 OFFCURVE",
"548 253 CURVE SMOOTH",
"550 263 OFFCURVE",
"558 308 OFFCURVE",
"558 318 CURVE SMOOTH",
"558 336 OFFCURVE",
"554 350 OFFCURVE",
"540 350 CURVE SMOOTH",
"506 350 OFFCURVE",
"410 226 OFFCURVE",
"386 112 CURVE",
"363 0 LINE",
"351 -2 OFFCURVE",
"328 -4 OFFCURVE",
"316 -4 CURVE SMOOTH",
"304 -4 OFFCURVE",
"283 -2 OFFCURVE",
"270 0 CURVE",
"324 263 LINE SMOOTH",
"327 277 OFFCURVE",
"332 310 OFFCURVE",
"332 320 CURVE SMOOTH",
"332 338 OFFCURVE",
"326 350 OFFCURVE",
"314 350 CURVE SMOOTH",
"277 350 OFFCURVE",
"184 218 OFFCURVE",
"160 106 CURVE SMOOTH",
"138 0 LINE",
"126 -2 OFFCURVE",
"104 -5 OFFCURVE",
"92 -5 CURVE SMOOTH",
"80 -5 OFFCURVE",
"58 -2 OFFCURVE",
"45 0 CURVE",
"108 316 LINE SMOOTH",
"109 321 OFFCURVE",
"112 343 OFFCURVE",
"112 348 CURVE SMOOTH",
"112 357 OFFCURVE",
"110 372 OFFCURVE",
"100 372 CURVE SMOOTH",
"78 372 OFFCURVE",
"32 316 OFFCURVE",
"29 312 CURVE",
"24 312 OFFCURVE",
"17 329 OFFCURVE",
"17 335 CURVE",
"31 361 OFFCURVE",
"108 442 OFFCURVE",
"158 442 CURVE SMOOTH",
"188 442 OFFCURVE",
"210 418 OFFCURVE",
"210 380 CURVE SMOOTH",
"210 369 OFFCURVE",
"205 340 OFFCURVE",
"202 324 CURVE SMOOTH",
"198 300 OFFCURVE",
"191 274 OFFCURVE",
"187 256 CURVE",
"220 322 OFFCURVE",
"309 442 OFFCURVE",
"360 442 CURVE SMOOTH",
"417 442 OFFCURVE",
"430 401 OFFCURVE",
"430 351 CURVE SMOOTH",
"430 331 OFFCURVE",
"425 294 OFFCURVE",
"420 274 CURVE",
"456 339 OFFCURVE",
"542 442 OFFCURVE",
"590 442 CURVE SMOOTH",
"641 442 OFFCURVE",
"658 415 OFFCURVE",
"658 366 CURVE SMOOTH",
"658 330 OFFCURVE",
"646 276 OFFCURVE",
"640 246 CURVE",
"638 234 OFFCURVE",
"614 133 OFFCURVE",
"612 119 CURVE",
"610 109 OFFCURVE",
"609 91 OFFCURVE",
"609 86 CURVE SMOOTH",
"609 77 OFFCURVE",
"610 64 OFFCURVE",
"620 64 CURVE SMOOTH",
"642 64 OFFCURVE",
"688 119 OFFCURVE",
"691 123 CURVE",
"696 123 OFFCURVE",
"703 106 OFFCURVE",
"703 100 CURVE",
"689 74 OFFCURVE",
"608 -7 OFFCURVE",
"558 -7 CURVE SMOOTH",
"531 -7 OFFCURVE",
"510 14 OFFCURVE",
"510 54 CURVE SMOOTH",
"510 65 OFFCURVE",
"515 97 OFFCURVE"
);
}
);
width = 736;
}
);
unicode = 006D;
userData = {
com.fontlab.hintData = {
hhints = (
{
position = -4;
width = 21;
},
{
position = 350;
width = 92;
},
{
position = 372;
width = 70;
}
);
vhints = (
{
position = 112;
width = 98;
},
{
position = 332;
width = 98;
},
{
position = 510;
width = 99;
},
{
position = 558;
width = 100;
}
);
};
};
},
{
glyphname = n;
lastChange = "2017-07-12 19:24:34 +0000";
layers = (
{
layerId = "AF37C979-5169-4EE5-B183-132B179D5F1C";
paths = (
{
closed = 1;
nodes = (
"202 324 CURVE",
"201 318 OFFCURVE",
"188 260 OFFCURVE",
"188 260 CURVE",
"210 306 OFFCURVE",
"312 442 OFFCURVE",
"370 442 CURVE",
"421 442 OFFCURVE",
"438 415 OFFCURVE",
"438 366 CURVE SMOOTH",
"438 334 OFFCURVE",
"426 276 OFFCURVE",
"420 246 CURVE SMOOTH",
"394 119 LINE SMOOTH",
"392 112 OFFCURVE",
"391 91 OFFCURVE",
"391 86 CURVE SMOOTH",
"391 77 OFFCURVE",
"392 63 OFFCURVE",
"402 63 CURVE SMOOTH",
"424 63 OFFCURVE",
"470 119 OFFCURVE",
"473 123 CURVE",
"478 123 OFFCURVE",
"485 106 OFFCURVE",
"485 100 CURVE",
"471 74 OFFCURVE",
"390 -7 OFFCURVE",
"340 -7 CURVE SMOOTH",
"313 -7 OFFCURVE",
"292 14 OFFCURVE",
"292 54 CURVE SMOOTH",
"292 65 OFFCURVE",
"297 97 OFFCURVE",
"300 111 CURVE",
"328 253 LINE SMOOTH",
"330 263 OFFCURVE",
"338 308 OFFCURVE",
"338 318 CURVE SMOOTH",
"338 336 OFFCURVE",
"334 350 OFFCURVE",
"320 350 CURVE SMOOTH",
"287 350 OFFCURVE",
"186 232 OFFCURVE",
"160 106 CURVE",
"156 82 OFFCURVE",
"143 24 OFFCURVE",
"138 0 CURVE",
"126 -2 OFFCURVE",
"104 -5 OFFCURVE",
"92 -5 CURVE SMOOTH",
"80 -5 OFFCURVE",
"58 -2 OFFCURVE",
"45 0 CURVE",
"108 316 LINE SMOOTH",
"109 321 OFFCURVE",
"112 343 OFFCURVE",
"112 348 CURVE SMOOTH",
"112 357 OFFCURVE",
"110 372 OFFCURVE",
"100 372 CURVE SMOOTH",
"78 372 OFFCURVE",
"32 316 OFFCURVE",
"29 312 CURVE",
"24 312 OFFCURVE",
"17 329 OFFCURVE",
"17 335 CURVE",
"31 361 OFFCURVE",
"108 442 OFFCURVE",
"158 442 CURVE SMOOTH",
"188 442 OFFCURVE",
"210 418 OFFCURVE",
"210 380 CURVE SMOOTH",
"210 369 OFFCURVE",
"206 340 OFFCURVE"
);
}
);
width = 518;
}
);
unicode = 006E;
userData = {
com.fontlab.hintData = {
hhints = (
{
position = -7;
width = 70;
},
{
position = 350;
width = 92;
},
{
position = 372;
width = 70;
}
);
vhints = (
{
position = 112;
width = 98;
},
{
position = 292;
width = 99;
},
{
position = 338;
width = 100;
}
);
};
};
},
{
glyphname = eng;
lastChange = "2017-07-12 19:24:34 +0000";
layers = (
{
layerId = "AF37C979-5169-4EE5-B183-132B179D5F1C";
paths = (
{
closed = 1;
nodes = (
"388 82 LINE",
"376 22 OFFCURVE",
"351 -44 OFFCURVE",
"309 -100 CURVE SMOOTH",
"267 -156 OFFCURVE",
"178 -215 OFFCURVE",
"146 -226 CURVE",
"142 -224 OFFCURVE",
"136 -213 OFFCURVE",
"136 -205 CURVE",
"222 -145 OFFCURVE",
"263 -69 OFFCURVE",
"289 61 CURVE",
"328 253 LINE SMOOTH",
"330 263 OFFCURVE",
"338 308 OFFCURVE",
"338 318 CURVE SMOOTH",
"338 336 OFFCURVE",
"334 350 OFFCURVE",
"320 350 CURVE SMOOTH",
"287 350 OFFCURVE",
"186 232 OFFCURVE",
"160 106 CURVE",
"156 82 OFFCURVE",
"143 24 OFFCURVE",
"138 0 CURVE",
"126 -2 OFFCURVE",
"104 -5 OFFCURVE",
"92 -5 CURVE SMOOTH",
"80 -5 OFFCURVE",
"58 -2 OFFCURVE",
"45 0 CURVE",
"108 316 LINE SMOOTH",
"109 321 OFFCURVE",
"112 343 OFFCURVE",
"112 348 CURVE SMOOTH",
"112 357 OFFCURVE",
"110 372 OFFCURVE",
"100 372 CURVE SMOOTH",
"78 372 OFFCURVE",
"32 316 OFFCURVE",
"29 312 CURVE",
"24 312 OFFCURVE",
"17 329 OFFCURVE",
"17 335 CURVE",
"31 361 OFFCURVE",
"108 442 OFFCURVE",
"158 442 CURVE SMOOTH",
"188 442 OFFCURVE",
"210 418 OFFCURVE",
"210 380 CURVE SMOOTH",
"210 369 OFFCURVE",
"206 340 OFFCURVE",
"202 324 CURVE",
"200 317 OFFCURVE",
"190 270 OFFCURVE",
"188 260 CURVE",
"210 306 OFFCURVE",
"312 442 OFFCURVE",
"370 442 CURVE",
"421 442 OFFCURVE",
"438 415 OFFCURVE",
"438 366 CURVE SMOOTH",
"438 334 OFFCURVE",
"426 276 OFFCURVE",
"420 246 CURVE SMOOTH"
);
}
);
width = 489;
}
);
unicode = 014B;
userData = {
com.fontlab.hintData = {
hhints = (
{
position = -226;
width = 21;
},
{
position = -5;
width = 21;
},
{
position = 350;
width = 92;
},
{
position = 372;
width = 70;
}
);
vhints = (
{
position = 112;
width = 98;
},
{
position = 338;
width = 100;
}
);
};
};
},
{
glyphname = o;
lastChange = "2017-07-12 19:24:34 +0000";
layers = (
{
layerId = "AF37C979-5169-4EE5-B183-132B179D5F1C";
paths = (
{
closed = 1;
nodes = (
"250 406 CURVE SMOOTH",
"170 406 OFFCURVE",
"122 247 OFFCURVE",
"122 142 CURVE SMOOTH",
"122 90 OFFCURVE",
"132 30 OFFCURVE",
"167 30 CURVE SMOOTH",
"246 30 OFFCURVE",
"294 190 OFFCURVE",
"294 292 CURVE SMOOTH",
"294 348 OFFCURVE",
"285 406 OFFCURVE"
);
},
{
closed = 1;
nodes = (
"262 442 CURVE SMOOTH",
"344 442 OFFCURVE",
"396 394 OFFCURVE",
"396 292 CURVE SMOOTH",
"396 150 OFFCURVE",
"268 -6 OFFCURVE",
"150 -6 CURVE SMOOTH",
"68 -6 OFFCURVE",
"20 49 OFFCURVE",
"20 140 CURVE SMOOTH",
"20 282 OFFCURVE",
"144 442 OFFCURVE"
);
}
);
width = 435;
}
);
unicode = 006F;
userData = {
com.fontlab.hintData = {
hhints = (
{
position = -6;
width = 36;
},
{
position = 406;
width = 36;
}
);
vhints = (
{
position = 20;
width = 102;
},
{
position = 294;
width = 102;
}
);
};
};
},
{
glyphname = oslash;
lastChange = "2017-07-12 19:24:34 +0000";
layers = (
{
components = (
{
name = o;
}
);
layerId = "AF37C979-5169-4EE5-B183-132B179D5F1C";
paths = (
{
closed = 1;
nodes = (
"72 -10 LINE",
"68 -8 OFFCURVE",
"51 -1 OFFCURVE",
"54 3 CURVE",
"325 447 LINE",
"329 446 OFFCURVE",
"346 438 OFFCURVE",
"343 434 CURVE"
);
}
);
width = 435;
}
);
unicode = 00F8;
userData = {
com.fontlab.hintData = {
hhints = (
{
position = -10;
width = 21;
},
{
position = -6;
width = 36;
},
{
position = 406;
width = 36;
}
);
vhints = (
{
position = 20;
width = 102;
},
{
position = 294;
width = 102;
}
);
};
};
},
{
glyphname = oe;
lastChange = "2017-07-12 19:24:34 +0000";
layers = (
{
layerId = "AF37C979-5169-4EE5-B183-132B179D5F1C";
paths = (
{
closed = 1;
nodes = (
"382 222 CURVE",
"424 223 OFFCURVE",
"520 291 OFFCURVE",
"520 364 CURVE SMOOTH",
"520 386 OFFCURVE",
"506 403 OFFCURVE",
"486 403 CURVE SMOOTH",
"432 403 OFFCURVE",
"389 284 OFFCURVE"
);
},
{
closed = 1;
nodes = (
"250 406 CURVE SMOOTH",
"170 406 OFFCURVE",
"122 247 OFFCURVE",
"122 142 CURVE SMOOTH",
"122 90 OFFCURVE",
"132 30 OFFCURVE",
"167 30 CURVE SMOOTH",
"237 30 OFFCURVE",
"294 172 OFFCURVE",
"294 292 CURVE SMOOTH",
"294 348 OFFCURVE",
"285 406 OFFCURVE"
);
},
{
closed = 1;
nodes = (
"528 442 CURVE SMOOTH",
"579 442 OFFCURVE",
"616 415 OFFCURVE",
"616 365 CURVE SMOOTH",
"616 265 OFFCURVE",
"441 190 OFFCURVE",
"379 190 CURVE",
"378 187 OFFCURVE",
"378 167 OFFCURVE",
"378 162 CURVE SMOOTH",
"378 113 OFFCURVE",
"392 65 OFFCURVE",
"442 65 CURVE SMOOTH",
"487 65 OFFCURVE",
"541 129 OFFCURVE",
"544 132 CURVE",
"550 132 OFFCURVE",
"558 113 OFFCURVE",
"558 107 CURVE",
"545 85 OFFCURVE",
"451 -6 OFFCURVE",
"388 -6 CURVE SMOOTH",
"340 -6 OFFCURVE",
"306 18 OFFCURVE",
"289 62 CURVE",
"247 21 OFFCURVE",
"198 -6 OFFCURVE",
"150 -6 CURVE SMOOTH",
"68 -6 OFFCURVE",
"20 49 OFFCURVE",
"20 140 CURVE SMOOTH",
"20 282 OFFCURVE",
"144 442 OFFCURVE",
"262 442 CURVE SMOOTH",
"319 442 OFFCURVE",
"361 418 OFFCURVE",
"381 370 CURVE",
"425 414 OFFCURVE",
"479 442 OFFCURVE"
);
}
);
width = 635;
}
);
unicode = 0153;
userData = {
com.fontlab.hintData = {
hhints = (
{
position = -6;
width = 71;
},
{
position = -6;
width = 36;
},
{
position = 190;
width = 32;
},
{
position = 403;
width = 39;
}
);
vhints = (
{
position = 20;
width = 102;
},
{
position = 294;
width = 84;
},
{
position = 520;
width = 96;
}
);
};
};
},
{
glyphname = p;
lastChange = "2017-07-12 19:24:34 +0000";
layers = (
{
layerId = "AF37C979-5169-4EE5-B183-132B179D5F1C";
paths = (
{
closed = 1;
nodes = (
"292 372 CURVE SMOOTH",
"260 372 OFFCURVE",
"216 342 OFFCURVE",
"192 312 CURVE",
"190 298 OFFCURVE",
"158 140 OFFCURVE",
"158 140 CURVE SMOOTH",
"145 72 OFFCURVE",
"165 35 OFFCURVE",
"193 35 CURVE SMOOTH",
"271 35 OFFCURVE",
"338 199 OFFCURVE",
"338 301 CURVE SMOOTH",
"338 345 OFFCURVE",
"324 372 OFFCURVE"
);
},
{
closed = 1;
nodes = (
"347 442 CURVE SMOOTH",
"411 442 OFFCURVE",
"440 391 OFFCURVE",
"440 321 CURVE SMOOTH",
"440 159 OFFCURVE",
"290 -5 OFFCURVE",
"168 -5 CURVE SMOOTH",
"156 -5 OFFCURVE",
"140 -3 OFFCURVE",
"132 4 CURVE",
"102 -136 LINE SMOOTH",
"100 -145 OFFCURVE",
"99 -154 OFFCURVE",
"99 -164 CURVE SMOOTH",
"99 -169 OFFCURVE",
"103 -183 OFFCURVE",
"113 -186 CURVE SMOOTH",
"130 -190 OFFCURVE",
"157 -190 OFFCURVE",
"160 -190 CURVE SMOOTH",
"164 -191 OFFCURVE",
"162 -217 OFFCURVE",
"157 -219 CURVE",
"144 -219 OFFCURVE",
"133 -218 OFFCURVE",
"122 -218 CURVE SMOOTH",
"71 -218 OFFCURVE",
"7 -220 OFFCURVE",
"-51 -227 CURVE",
"-56 -226 OFFCURVE",
"-54 -200 OFFCURVE",
"-49 -197 CURVE",
"-31 -197 OFFCURVE",
"-18 -191 OFFCURVE",
"-9 -180 CURVE SMOOTH",
"-2 -171 OFFCURVE",
"2 -161 OFFCURVE",
"7 -138 CURVE SMOOTH",
"84 241 LINE",
"36 193 LINE",
"32 198 OFFCURVE",
"29 210 OFFCURVE",
"29 216 CURVE SMOOTH",
"29 224 OFFCURVE",
"34 231 OFFCURVE",
"38 234 CURVE SMOOTH",
"93 290 LINE",
"121 438 LINE",
"132 441 OFFCURVE",
"160 443 OFFCURVE",
"171 443 CURVE SMOOTH",
"182 443 OFFCURVE",
"206 441 OFFCURVE",
"216 436 CURVE",
"212 418 OFFCURVE",
"203 368 OFFCURVE",
"201 360 CURVE",
"229 388 OFFCURVE",
"296 442 OFFCURVE"
);
}
);
width = 474;
}
);
unicode = 0070;
userData = {
com.fontlab.hintData = {
hhints = (
{
position = -227;
width = 30;
},
{
position = -218;
width = 28;
},
{
position = -5;
width = 40;
},
{
position = 372;
width = 70;
}
);
vhints = (
{
position = 338;
width = 102;
}
);
};
};
},
{
glyphname = thorn;
lastChange = "2017-07-12 19:24:34 +0000";
layers = (
{
layerId = "AF37C979-5169-4EE5-B183-132B179D5F1C";
paths = (
{
closed = 1;
nodes = (
"248 598 CURVE SMOOTH",
"245 580 OFFCURVE",
"203 368 OFFCURVE",
"201 360 CURVE",
"229 388 OFFCURVE",
"296 442 OFFCURVE",
"347 442 CURVE SMOOTH",
"411 442 OFFCURVE",
"440 391 OFFCURVE",
"440 321 CURVE SMOOTH",
"440 159 OFFCURVE",
"290 -5 OFFCURVE",
"168 -5 CURVE SMOOTH",
"156 -5 OFFCURVE",
"140 -3 OFFCURVE",
"132 4 CURVE",
"102 -136 LINE SMOOTH",
"100 -145 OFFCURVE",
"99 -154 OFFCURVE",
"99 -164 CURVE SMOOTH",
"99 -169 OFFCURVE",
"103 -183 OFFCURVE",
"113 -186 CURVE SMOOTH",
"130 -190 OFFCURVE",
"157 -190 OFFCURVE",
"160 -190 CURVE SMOOTH",
"164 -191 OFFCURVE",
"162 -217 OFFCURVE",
"157 -219 CURVE",
"144 -219 OFFCURVE",
"133 -218 OFFCURVE",
"122 -218 CURVE SMOOTH",
"71 -218 OFFCURVE",
"7 -220 OFFCURVE",
"-51 -227 CURVE",
"-56 -226 OFFCURVE",
"-54 -200 OFFCURVE",
"-49 -197 CURVE",
"-31 -197 OFFCURVE",
"-18 -191 OFFCURVE",
"-9 -180 CURVE SMOOTH",
"-2 -171 OFFCURVE",
"2 -161 OFFCURVE",
"7 -138 CURVE SMOOTH",
"84 241 LINE",
"36 193 LINE",
"32 198 OFFCURVE",
"29 210 OFFCURVE",
"29 216 CURVE SMOOTH",
"29 224 OFFCURVE",
"34 231 OFFCURVE",
"38 234 CURVE SMOOTH",
"93 290 LINE",
"147 560 LINE SMOOTH",
"151 578 OFFCURVE",
"156 603 OFFCURVE",
"156 614 CURVE SMOOTH",
"156 633 OFFCURVE",
"111 632 OFFCURVE",
"95 632 CURVE",
"92 636 OFFCURVE",
"95 653 OFFCURVE",
"99 657 CURVE",
"154 662 OFFCURVE",
"233 684 OFFCURVE",
"255 692 CURVE",
"260 689 OFFCURVE",
"261 678 OFFCURVE",
"261 672 CURVE SMOOTH",
"261 664 OFFCURVE",
"253 622 OFFCURVE"
);
},
{
closed = 1;
nodes = (
"292 372 CURVE SMOOTH",
"260 372 OFFCURVE",
"216 342 OFFCURVE",
"192 312 CURVE",
"190 298 OFFCURVE",
"158 140 OFFCURVE",
"158 140 CURVE SMOOTH",
"145 72 OFFCURVE",
"165 35 OFFCURVE",
"193 35 CURVE SMOOTH",
"271 35 OFFCURVE",
"338 199 OFFCURVE",
"338 301 CURVE SMOOTH",
"338 345 OFFCURVE",
"324 372 OFFCURVE"
);
}
);
width = 473;
}
);
unicode = 00FE;
userData = {
com.fontlab.hintData = {
hhints = (
{
position = -227;
width = 30;
},
{
position = -218;
width = 28;
},
{
position = -5;
width = 40;
},
{
position = 372;
width = 70;
},
{
position = 632;
width = 25;
},
{
position = 672;
width = 20;
}
);
vhints = (
{
position = 156;
width = 105;
},
{
position = 338;
width = 102;
}
);
};
};
},
{
glyphname = q;
lastChange = "2017-07-12 19:24:34 +0000";
layers = (
{
layerId = "AF37C979-5169-4EE5-B183-132B179D5F1C";
paths = (
{
closed = 1;
nodes = (
"337 -220 CURVE",
"323 -220 OFFCURVE",
"289 -218 OFFCURVE",
"276 -218 CURVE SMOOTH",
"218 -218 OFFCURVE",
"163 -224 OFFCURVE",
"126 -228 CURVE",
"124 -226 OFFCURVE",
"123 -198 OFFCURVE",
"129 -198 CURVE SMOOTH",
"158 -195 OFFCURVE",
"189 -184 OFFCURVE",
"194 -158 CURVE SMOOTH",
"244 107 LINE",
"223 71 OFFCURVE",
"159 -6 OFFCURVE",
"101 -6 CURVE SMOOTH",
"41 -6 OFFCURVE",
"15 57 OFFCURVE",
"15 115 CURVE SMOOTH",
"15 275 OFFCURVE",
"172 442 OFFCURVE",
"312 442 CURVE SMOOTH",
"347 442 OFFCURVE",
"378 436 OFFCURVE",
"400 424 CURVE",
"342 122 LINE SMOOTH",
"341 118 OFFCURVE",
"294 -142 OFFCURVE",
"294 -142 CURVE SMOOTH",
"293 -150 OFFCURVE",
"292 -156 OFFCURVE",
"292 -162 CURVE SMOOTH",
"292 -177 OFFCURVE",
"296 -191 OFFCURVE",
"340 -191 CURVE SMOOTH",
"344 -191 OFFCURVE",
"342 -217 OFFCURVE"
);
},
{
closed = 1;
nodes = (
"292 341 CURVE",
"296 361 OFFCURVE",
"289 394 OFFCURVE",
"262 394 CURVE SMOOTH",
"188 394 OFFCURVE",
"115 269 OFFCURVE",
"115 154 CURVE SMOOTH",
"115 99 OFFCURVE",
"131 67 OFFCURVE",
"158 67 CURVE SMOOTH",
"201 67 OFFCURVE",
"262 183 OFFCURVE",
"280 276 CURVE",
"282 290 OFFCURVE",
"290 327 OFFCURVE"
);
}
);
width = 440;
}
);
unicode = 0071;
userData = {
com.fontlab.hintData = {
hhints = (
{
position = -228;
width = 21;
},
{
position = -218;
width = 20;
},
{
position = -6;
width = 73;
},
{
position = 394;
width = 48;
}
);
vhints = (
{
position = 15;
width = 100;
}
);
};
};
},
{
glyphname = r;
lastChange = "2017-07-12 19:24:34 +0000";
layers = (
{
layerId = "AF37C979-5169-4EE5-B183-132B179D5F1C";
paths = (
{
closed = 1;
nodes = (
"341 442 CURVE",
"367 442 OFFCURVE",
"380 435 OFFCURVE",
"393 425 CURVE",
"399 417 OFFCURVE",
"406 403 OFFCURVE",
"406 389 CURVE SMOOTH",
"406 352 OFFCURVE",
"383 331 OFFCURVE",
"358 331 CURVE SMOOTH",
"344 331 OFFCURVE",
"330 340 OFFCURVE",
"320 348 CURVE SMOOTH",
"313 353 OFFCURVE",
"309 356 OFFCURVE",
"297 356 CURVE SMOOTH",
"265 356 OFFCURVE",
"185 222 OFFCURVE",
"161 106 CURVE SMOOTH",
"140 0 LINE",
"130 -2 OFFCURVE",
"106 -4 OFFCURVE",
"95 -4 CURVE SMOOTH",
"83 -4 OFFCURVE",
"59 -2 OFFCURVE",
"47 0 CURVE",
"106 316 LINE SMOOTH",
"107 321 OFFCURVE",
"111 343 OFFCURVE",
"111 348 CURVE SMOOTH",
"111 357 OFFCURVE",
"108 372 OFFCURVE",
"98 372 CURVE SMOOTH",
"76 372 OFFCURVE",
"31 316 OFFCURVE",
"28 312 CURVE",
"23 312 OFFCURVE",
"16 329 OFFCURVE",
"16 335 CURVE",
"30 361 OFFCURVE",
"106 442 OFFCURVE",
"156 442 CURVE SMOOTH",
"186 442 OFFCURVE",
"209 418 OFFCURVE",
"209 380 CURVE SMOOTH",
"209 369 OFFCURVE",
"204 340 OFFCURVE",
"201 324 CURVE SMOOTH",
"197 302 OFFCURVE",
"190 266 OFFCURVE",
"186 250 CURVE",
"212 330 OFFCURVE",
"291 442 OFFCURVE"
);
}
);
width = 393;
}
);
unicode = 0072;
userData = {
com.fontlab.hintData = {
hhints = (
{
position = -4;
width = 21;
},
{
position = 356;
width = 86;
},
{
position = 372;
width = 70;
}
);
vhints = (
{
position = 111;
width = 98;
}
);
};
};
},
{
glyphname = s;
lastChange = "2017-07-12 19:24:34 +0000";
layers = (
{
layerId = "AF37C979-5169-4EE5-B183-132B179D5F1C";
paths = (
{
closed = 1;
nodes = (
"210 443 CURVE",
"256 443 OFFCURVE",
"286 432 OFFCURVE",
"308 414 CURVE",
"315 406 OFFCURVE",
"319 386 OFFCURVE",
"319 378 CURVE",
"319 356 OFFCURVE",
"303 332 OFFCURVE",
"277 332 CURVE",
"255 332 OFFCURVE",
"237 355 OFFCURVE",
"224 373 CURVE SMOOTH",
"212 391 OFFCURVE",
"202 407 OFFCURVE",
"176 407 CURVE",
"148 407 OFFCURVE",
"131 380 OFFCURVE",
"131 356 CURVE SMOOTH",
"131 318 OFFCURVE",
"179 282 OFFCURVE",
"213 246 CURVE SMOOTH",
"241 216 OFFCURVE",
"271 183 OFFCURVE",
"271 127 CURVE SMOOTH",
"271 45 OFFCURVE",
"198 -6 OFFCURVE",
"108 -6 CURVE",
"72 -6 OFFCURVE",
"35 4 OFFCURVE",
"11 24 CURVE",
"5 32 OFFCURVE",
"0 48 OFFCURVE",
"0 58 CURVE",
"0 86 OFFCURVE",
"18 108 OFFCURVE",
"42 108 CURVE",
"64 108 OFFCURVE",
"77 87 OFFCURVE",
"94 63 CURVE SMOOTH",
"108 43 OFFCURVE",
"122 30 OFFCURVE",
"148 30 CURVE",
"179 30 OFFCURVE",
"194 60 OFFCURVE",
"194 80 CURVE SMOOTH",
"194 120 OFFCURVE",
"149 153 OFFCURVE",
"117 189 CURVE SMOOTH",
"87 223 OFFCURVE",
"56 253 OFFCURVE",
"56 311 CURVE SMOOTH",
"56 379 OFFCURVE",
"120 443 OFFCURVE"
);
}
);
width = 343;
}
);
unicode = 0073;
userData = {
com.fontlab.hintData = {
hhints = (
{
position = -6;
width = 36;
},
{
position = 407;
width = 36;
}
);
vhints = (
{
position = 56;
width = 75;
},
{
position = 194;
width = 77;
}
);
};
};
},
{
glyphname = germandbls;
lastChange = "2017-07-12 19:24:34 +0000";
layers = (
{
layerId = "AF37C979-5169-4EE5-B183-132B179D5F1C";
paths = (
{
closed = 1;
nodes = (
"118 419 LINE",
"150 583 OFFCURVE",
"268 690 OFFCURVE",
"348 690 CURVE SMOOTH",
"407 690 OFFCURVE",
"477 649 OFFCURVE",
"477 571 CURVE SMOOTH",
"477 476 OFFCURVE",
"398 433 OFFCURVE",
"368 408 CURVE SMOOTH",
"348 391 OFFCURVE",
"332 373 OFFCURVE",
"332 356 CURVE SMOOTH",
"332 329 OFFCURVE",
"361 297 OFFCURVE",
"383 269 CURVE SMOOTH",
"423 219 OFFCURVE",
"457 181 OFFCURVE",
"457 124 CURVE",
"457 52 OFFCURVE",
"391 -4 OFFCURVE",
"312 -4 CURVE SMOOTH",
"252 -4 OFFCURVE",
"232 10 OFFCURVE",
"216 22 CURVE",
"212 28 OFFCURVE",
"205 40 OFFCURVE",
"205 55 CURVE SMOOTH",
"206 83 OFFCURVE",
"227 98 OFFCURVE",
"248 98 CURVE SMOOTH",
"281 98 OFFCURVE",
"283 28 OFFCURVE",
"332 28 CURVE SMOOTH",
"360 28 OFFCURVE",
"380 50 OFFCURVE",
"380 82 CURVE SMOOTH",
"380 119 OFFCURVE",
"332 171 OFFCURVE",
"306 204 CURVE SMOOTH",
"277 240 OFFCURVE",
"254 271 OFFCURVE",
"254 317 CURVE SMOOTH",
"254 365 OFFCURVE",
"292 388 OFFCURVE",
"335 432 CURVE SMOOTH",
"357 454 OFFCURVE",
"389 494 OFFCURVE",
"389 552 CURVE SMOOTH",
"389 588 OFFCURVE",
"367 648 OFFCURVE",
"321 648 CURVE SMOOTH",
"270 648 OFFCURVE",
"240 568 OFFCURVE",
"214 419 CURVE SMOOTH",
"188 275 OFFCURVE",
"172 176 OFFCURVE",
"148 50 CURVE SMOOTH",
"116 -114 OFFCURVE",
"12 -226 OFFCURVE",
"-68 -226 CURVE SMOOTH",
"-100 -226 OFFCURVE",
"-123 -214 OFFCURVE",
"-132 -204 CURVE",
"-134 -197 OFFCURVE",
"-136 -188 OFFCURVE",
"-136 -179 CURVE SMOOTH",
"-135 -156 OFFCURVE",
"-123 -135 OFFCURVE",
"-103 -135 CURVE SMOOTH",
"-86 -135 OFFCURVE",
"-74 -144 OFFCURVE",
"-63 -158 CURVE SMOOTH",
"-55 -168 OFFCURVE",
"-46 -182 OFFCURVE",
"-30 -182 CURVE SMOOTH",
"9 -182 OFFCURVE",
"22 -113 OFFCURVE",
"53 46 CURVE"
);
}
);
width = 505;
}
);
unicode = 00DF;
userData = {
com.fontlab.hintData = {
hhints = (
{
position = -226;
width = 44;
},
{
position = -4;
width = 32;
},
{
position = 377;
width = 42;
},
{
position = 648;
width = 42;
}
);
vhints = (
{
position = 254;
width = 78;
},
{
position = 380;
width = 77;
},
{
position = 389;
width = 88;
}
);
};
};
},
{
glyphname = t;
lastChange = "2017-07-12 19:24:34 +0000";
layers = (
{
layerId = "AF37C979-5169-4EE5-B183-132B179D5F1C";
paths = (
{
closed = 1;
nodes = (
"116 419 LINE",
"130 488 LINE",
"141 502 OFFCURVE",
"209 554 OFFCURVE",
"217 554 CURVE SMOOTH",
"223 554 OFFCURVE",
"230 551 OFFCURVE",
"234 548 CURVE",
"210 419 LINE",
"292 419 LINE SMOOTH",
"296 419 OFFCURVE",
"296 411 OFFCURVE",
"296 406 CURVE SMOOTH",
"296 396 OFFCURVE",
"291 385 OFFCURVE",
"286 377 CURVE",
"202 377 LINE",
"152 119 LINE SMOOTH",
"150 111 OFFCURVE",
"147 91 OFFCURVE",
"147 86 CURVE SMOOTH",
"147 77 OFFCURVE",
"150 63 OFFCURVE",
"160 63 CURVE SMOOTH",
"182 63 OFFCURVE",
"227 119 OFFCURVE",
"230 123 CURVE",
"235 123 OFFCURVE",
"242 106 OFFCURVE",
"242 100 CURVE",
"228 74 OFFCURVE",
"147 -7 OFFCURVE",
"97 -7 CURVE SMOOTH",
"70 -7 OFFCURVE",
"48 14 OFFCURVE",
"48 54 CURVE SMOOTH",
"48 65 OFFCURVE",
"52 94 OFFCURVE",
"56 111 CURVE SMOOTH",
"108 377 LINE",
"38 377 LINE SMOOTH",
"37 377 OFFCURVE",
"36 378 OFFCURVE",
"36 380 CURVE SMOOTH",
"36 390 OFFCURVE",
"60 419 OFFCURVE",
"83 419 CURVE SMOOTH"
);
}
);
width = 303;
}
);
unicode = 0074;
userData = {
com.fontlab.hintData = {
hhints = (
{
position = -7;
width = 70;
},
{
position = 377;
width = 42;
}
);
vhints = (
{
position = 48;
width = 99;
}
);
};
};
},
{
glyphname = tbar;
lastChange = "2017-07-12 19:24:34 +0000";
layers = (
{
components = (
{
name = t;
transform = "{1, 0, 0, 1, 13, 0}";
}
);
layerId = "AF37C979-5169-4EE5-B183-132B179D5F1C";
paths = (
{
closed = 1;
nodes = (
"36 317 CURVE",
"64 317 OFFCURVE",
"275 317 OFFCURVE",
"288 317 CURVE SMOOTH",
"292 317 OFFCURVE",
"293 312 OFFCURVE",
"292 308 CURVE SMOOTH",
"291 302 OFFCURVE",
"286 285 OFFCURVE",
"281 277 CURVE",
"254 277 OFFCURVE",
"42 277 OFFCURVE",
"29 277 CURVE SMOOTH",
"25 277 OFFCURVE",
"25 285 OFFCURVE",
"26 289 CURVE SMOOTH",
"27 295 OFFCURVE",
"29 309 OFFCURVE"
);
}
);
width = 317;
}
);
unicode = 0167;
userData = {
com.fontlab.hintData = {
hhints = (
{
position = -7;
width = 70;
},
{
position = 277;
width = 40;
},
{
position = 377;
width = 42;
}
);
vhints = (
{
position = 61;
width = 99;
}
);
};
};
},
{
glyphname = u;
lastChange = "2017-07-12 19:24:34 +0000";
layers = (
{
layerId = "AF37C979-5169-4EE5-B183-132B179D5F1C";
paths = (
{
closed = 1;
nodes = (
"290 106 CURVE SMOOTH",
"295 134 OFFCURVE",
"300 154 OFFCURVE",
"305 176 CURVE",
"273 108 OFFCURVE",
"171 -7 OFFCURVE",
"117 -7 CURVE",
"72 -7 OFFCURVE",
"60 22 OFFCURVE",
"60 72 CURVE SMOOTH",
"60 102 OFFCURVE",
"71 158 OFFCURVE",
"77 186 CURVE",
"81 206 OFFCURVE",
"101 296 OFFCURVE",
"104 316 CURVE SMOOTH",
"105 321 OFFCURVE",
"108 343 OFFCURVE",
"108 348 CURVE SMOOTH",
"108 357 OFFCURVE",
"106 372 OFFCURVE",
"96 372 CURVE SMOOTH",
"74 372 OFFCURVE",
"28 316 OFFCURVE",
"25 312 CURVE",
"20 312 OFFCURVE",
"13 329 OFFCURVE",
"13 335 CURVE",
"27 361 OFFCURVE",
"104 442 OFFCURVE",
"154 442 CURVE SMOOTH",
"184 442 OFFCURVE",
"206 418 OFFCURVE",
"206 380 CURVE SMOOTH",
"206 369 OFFCURVE",
"201 340 OFFCURVE",
"198 324 CURVE",
"197 318 OFFCURVE",
"170 182 OFFCURVE",
"170 182 CURVE SMOOTH",
"168 172 OFFCURVE",
"160 127 OFFCURVE",
"160 117 CURVE SMOOTH",
"160 101 OFFCURVE",
"164 85 OFFCURVE",
"178 85 CURVE SMOOTH",
"210 85 OFFCURVE",
"312 222 OFFCURVE",
"336 346 CURVE",
"340 368 OFFCURVE",
"350 413 OFFCURVE",
"354 435 CURVE",
"364 438 OFFCURVE",
"387 440 OFFCURVE",
"397 440 CURVE SMOOTH",
"407 440 OFFCURVE",
"434 438 OFFCURVE",
"446 435 CURVE",
"386 119 LINE SMOOTH",
"384 111 OFFCURVE",
"382 91 OFFCURVE",
"382 86 CURVE SMOOTH",
"382 77 OFFCURVE",
"384 63 OFFCURVE",
"394 63 CURVE SMOOTH",
"416 63 OFFCURVE",
"461 119 OFFCURVE",
"464 123 CURVE",
"469 123 OFFCURVE",
"476 106 OFFCURVE",
"476 100 CURVE",
"462 74 OFFCURVE",
"382 -7 OFFCURVE",
"332 -7 CURVE SMOOTH",
"305 -7 OFFCURVE",
"283 14 OFFCURVE",
"283 54 CURVE SMOOTH",
"283 62 OFFCURVE",
"286 84 OFFCURVE"
);
}
);
width = 512;
}
);
unicode = 0075;
userData = {
com.fontlab.hintData = {
hhints = (
{
position = -7;
width = 92;
},
{
position = -7;
width = 70;
},
{
position = 372;
width = 70;
}
);
vhints = (
{
position = 60;
width = 100;
},
{
position = 108;
width = 98;
},
{
position = 283;
width = 99;
}
);
};
};
},
{
glyphname = uogonek;
lastChange = "2017-07-12 19:24:34 +0000";
layers = (
{
layerId = "AF37C979-5169-4EE5-B183-132B179D5F1C";
paths = (
{
closed = 1;
nodes = (
"220 -170 CURVE SMOOTH",
"220 -112 OFFCURVE",
"276 -52 OFFCURVE",
"320 -6 CURVE",
"298 -1 OFFCURVE",
"282 20 OFFCURVE",
"282 52 CURVE SMOOTH",
"282 60 OFFCURVE",
"286 84 OFFCURVE",
"290 106 CURVE SMOOTH",
"295 134 OFFCURVE",
"300 154 OFFCURVE",
"305 176 CURVE",
"273 108 OFFCURVE",
"171 -7 OFFCURVE",
"117 -7 CURVE",
"72 -7 OFFCURVE",
"60 22 OFFCURVE",
"60 72 CURVE SMOOTH",
"60 102 OFFCURVE",
"71 158 OFFCURVE",
"77 186 CURVE",
"81 206 OFFCURVE",
"101 296 OFFCURVE",
"104 316 CURVE SMOOTH",
"105 321 OFFCURVE",
"108 343 OFFCURVE",
"108 348 CURVE SMOOTH",
"108 357 OFFCURVE",
"106 372 OFFCURVE",
"96 372 CURVE SMOOTH",
"74 372 OFFCURVE",
"28 316 OFFCURVE",
"25 312 CURVE",
"20 312 OFFCURVE",
"13 329 OFFCURVE",
"13 335 CURVE",
"27 361 OFFCURVE",
"104 442 OFFCURVE",
"154 442 CURVE SMOOTH",
"184 442 OFFCURVE",
"206 418 OFFCURVE",
"206 380 CURVE SMOOTH",
"206 369 OFFCURVE",
"201 340 OFFCURVE",
"198 324 CURVE",
"197 318 OFFCURVE",
"170 182 OFFCURVE",
"170 182 CURVE SMOOTH",
"168 172 OFFCURVE",
"160 127 OFFCURVE",
"160 117 CURVE SMOOTH",
"160 101 OFFCURVE",
"164 85 OFFCURVE",
"178 85 CURVE SMOOTH",
"210 85 OFFCURVE",
"312 222 OFFCURVE",
"336 346 CURVE",
"340 368 OFFCURVE",
"350 413 OFFCURVE",
"354 435 CURVE",
"364 438 OFFCURVE",
"387 440 OFFCURVE",
"397 440 CURVE SMOOTH",
"407 440 OFFCURVE",
"434 438 OFFCURVE",
"446 435 CURVE",
"386 119 LINE SMOOTH",
"384 111 OFFCURVE",
"382 91 OFFCURVE",
"382 86 CURVE SMOOTH",
"382 77 OFFCURVE",
"384 64 OFFCURVE",
"394 64 CURVE SMOOTH",
"416 64 OFFCURVE",
"461 119 OFFCURVE",
"464 123 CURVE",
"469 123 OFFCURVE",
"476 106 OFFCURVE",
"476 100 CURVE",
"468 86 OFFCURVE",
"438 55 OFFCURVE",
"408 30 CURVE SMOOTH",
"359 -10 OFFCURVE",
"278 -77 OFFCURVE",
"278 -130 CURVE SMOOTH",
"278 -150 OFFCURVE",
"285 -164 OFFCURVE",
"310 -164 CURVE SMOOTH",
"354 -164 OFFCURVE",
"383 -128 OFFCURVE",
"389 -126 CURVE",
"397 -127 OFFCURVE",
"391 -151 OFFCURVE",
"388 -154 CURVE SMOOTH",
"364 -188 OFFCURVE",
"317 -224 OFFCURVE",
"275 -224 CURVE SMOOTH",
"241 -224 OFFCURVE",
"220 -197 OFFCURVE"
);
}
);
width = 512;
}
);
unicode = 0173;
userData = {
com.fontlab.hintData = {
hhints = (
{
position = -224;
width = 60;
},
{
position = -7;
width = 92;
},
{
position = 372;
width = 70;
}
);
vhints = (
{
position = 60;
width = 100;
},
{
position = 108;
width = 98;
},
{
position = 220;
width = 58;
},
{
position = 282;
width = 100;
}
);
};
};
},
{
glyphname = v;
lastChange = "2017-07-12 19:24:34 +0000";
layers = (
{
layerId = "AF37C979-5169-4EE5-B183-132B179D5F1C";
paths = (
{
closed = 1;
nodes = (
"211 88 CURVE",
"263 130 OFFCURVE",
"293 166 OFFCURVE",
"319 218 CURVE SMOOTH",
"339 257 OFFCURVE",
"344 298 OFFCURVE",
"344 320 CURVE SMOOTH",
"344 343 OFFCURVE",
"331 372 OFFCURVE",
"310 390 CURVE",
"313 417 OFFCURVE",
"342 442 OFFCURVE",
"366 442 CURVE SMOOTH",
"404 442 OFFCURVE",
"433 413 OFFCURVE",
"433 356 CURVE SMOOTH",
"433 230 OFFCURVE",
"188 -6 OFFCURVE",
"122 -6 CURVE",
"108 23 OFFCURVE",
"100 143 OFFCURVE",
"100 219 CURVE SMOOTH",
"100 344 LINE SMOOTH",
"100 353 OFFCURVE",
"99 368 OFFCURVE",
"89 368 CURVE SMOOTH",
"71 368 OFFCURVE",
"28 316 OFFCURVE",
"25 312 CURVE",
"20 312 OFFCURVE",
"13 329 OFFCURVE",
"13 335 CURVE",
"27 361 OFFCURVE",
"104 442 OFFCURVE",
"154 442 CURVE SMOOTH",
"186 442 OFFCURVE",
"198 417 OFFCURVE",
"198 387 CURVE SMOOTH",
"198 387 OFFCURVE",
"198 350 OFFCURVE",
"198 344 CURVE",
"198 258 LINE SMOOTH",
"198 182 OFFCURVE",
"205 104 OFFCURVE"
);
}
);
width = 452;
}
);
unicode = 0076;
userData = {
com.fontlab.hintData = {
hhints = (
{
position = -6;
width = 21;
},
{
position = 368;
width = 74;
}
);
vhints = (
{
position = 100;
width = 98;
},
{
position = 344;
width = 89;
}
);
};
};
},
{
glyphname = w;
lastChange = "2017-07-12 19:24:34 +0000";
layers = (
{
layerId = "AF37C979-5169-4EE5-B183-132B179D5F1C";
paths = (
{
closed = 1;
nodes = (
"422 390 CURVE",
"422 344 OFFCURVE",
"427 266 OFFCURVE",
"432 206 CURVE SMOOTH",
"437 154 OFFCURVE",
"443 104 OFFCURVE",
"450 94 CURVE",
"490 124 OFFCURVE",
"526 164 OFFCURVE",
"550 218 CURVE SMOOTH",
"568 256 OFFCURVE",
"568 295 OFFCURVE",
"568 318 CURVE SMOOTH",
"568 343 OFFCURVE",
"555 372 OFFCURVE",
"534 390 CURVE",
"537 417 OFFCURVE",
"567 442 OFFCURVE",
"591 442 CURVE SMOOTH",
"629 442 OFFCURVE",
"657 413 OFFCURVE",
"657 356 CURVE SMOOTH",
"657 230 OFFCURVE",
"437 -5 OFFCURVE",
"365 -5 CURVE",
"355 9 OFFCURVE",
"343 89 OFFCURVE",
"339 126 CURVE SMOOTH",
"335 156 OFFCURVE",
"332 191 OFFCURVE",
"332 203 CURVE",
"282 121 OFFCURVE",
"180 8 OFFCURVE",
"123 -6 CURVE",
"109 23 OFFCURVE",
"100 143 OFFCURVE",
"100 219 CURVE SMOOTH",
"100 344 LINE SMOOTH",
"100 353 OFFCURVE",
"99 368 OFFCURVE",
"89 368 CURVE SMOOTH",
"71 368 OFFCURVE",
"28 316 OFFCURVE",
"25 312 CURVE",
"20 312 OFFCURVE",
"13 329 OFFCURVE",
"13 335 CURVE",
"27 361 OFFCURVE",
"104 442 OFFCURVE",
"154 442 CURVE SMOOTH",
"186 442 OFFCURVE",
"198 417 OFFCURVE",
"198 387 CURVE SMOOTH",
"198 387 OFFCURVE",
"198 350 OFFCURVE",
"198 344 CURVE",
"198 258 LINE SMOOTH",
"198 182 OFFCURVE",
"205 122 OFFCURVE",
"211 106 CURVE",
"246 138 OFFCURVE",
"287 201 OFFCURVE",
"305 236 CURVE SMOOTH",
"324 272 OFFCURVE",
"336 307 OFFCURVE",
"344 335 CURVE",
"352 357 OFFCURVE",
"404 388 OFFCURVE"
);
}
);
width = 677;
}
);
unicode = 0077;
userData = {
com.fontlab.hintData = {
hhints = (
{
position = -6;
width = 22;
},
{
position = 368;
width = 74;
}
);
vhints = (
{
position = 100;
width = 98;
},
{
position = 344;
width = 78;
},
{
position = 568;
width = 89;
}
);
};
};
},
{
glyphname = x;
lastChange = "2017-07-12 19:24:34 +0000";
layers = (
{
layerId = "AF37C979-5169-4EE5-B183-132B179D5F1C";
paths = (
{
closed = 1;
nodes = (
"181 442 CURVE SMOOTH",
"211 442 OFFCURVE",
"230 407 OFFCURVE",
"240 371 CURVE SMOOTH",
"266 282 LINE",
"316 373 LINE",
"336 410 OFFCURVE",
"368 442 OFFCURVE",
"404 442 CURVE SMOOTH",
"431 442 OFFCURVE",
"457 431 OFFCURVE",
"469 420 CURVE",
"473 412 OFFCURVE",
"480 394 OFFCURVE",
"480 382 CURVE SMOOTH",
"480 358 OFFCURVE",
"465 328 OFFCURVE",
"435 328 CURVE SMOOTH",
"415 328 OFFCURVE",
"401 342 OFFCURVE",
"394 354 CURVE SMOOTH",
"388 364 OFFCURVE",
"378 376 OFFCURVE",
"370 376 CURVE SMOOTH",
"361 376 OFFCURVE",
"350 363 OFFCURVE",
"340 346 CURVE SMOOTH",
"278 240 LINE",
"320 104 LINE SMOOTH",
"326 84 OFFCURVE",
"337 64 OFFCURVE",
"356 64 CURVE SMOOTH",
"376 64 OFFCURVE",
"419 113 OFFCURVE",
"426 123 CURVE",
"431 123 OFFCURVE",
"438 106 OFFCURVE",
"438 100 CURVE",
"426 77 OFFCURVE",
"345 -6 OFFCURVE",
"296 -6 CURVE SMOOTH",
"263 -6 OFFCURVE",
"244 31 OFFCURVE",
"232 70 CURVE",
"232 71 OFFCURVE",
"215 129 OFFCURVE",
"208 153 CURVE",
"158 64 LINE",
"138 27 OFFCURVE",
"106 -6 OFFCURVE",
"70 -6 CURVE SMOOTH",
"40 -6 OFFCURVE",
"21 6 OFFCURVE",
"7 16 CURVE",
"1 23 OFFCURVE",
"-5 37 OFFCURVE",
"-5 52 CURVE SMOOTH",
"-5 76 OFFCURVE",
"8 108 OFFCURVE",
"38 108 CURVE SMOOTH",
"58 108 OFFCURVE",
"73 94 OFFCURVE",
"80 82 CURVE SMOOTH",
"86 72 OFFCURVE",
"96 61 OFFCURVE",
"104 61 CURVE SMOOTH",
"112 61 OFFCURVE",
"123 70 OFFCURVE",
"135 92 CURVE SMOOTH",
"194 195 LINE",
"154 328 LINE SMOOTH",
"150 343 OFFCURVE",
"138 368 OFFCURVE",
"118 368 CURVE SMOOTH",
"102 368 OFFCURVE",
"61 323 OFFCURVE",
"54 313 CURVE",
"49 313 OFFCURVE",
"42 330 OFFCURVE",
"42 336 CURVE",
"55 360 OFFCURVE",
"132 442 OFFCURVE"
);
}
);
width = 496;
}
);
unicode = 0078;
userData = {
com.fontlab.hintData = {
hhints = (
{
position = -6;
width = 70;
},
{
position = 368;
width = 74;
},
{
position = 376;
width = 66;
}
);
};
};
},
{
glyphname = y;
lastChange = "2017-07-12 19:24:34 +0000";
layers = (
{
layerId = "AF37C979-5169-4EE5-B183-132B179D5F1C";
paths = (
{
closed = 1;
nodes = (
"131 442 CURVE SMOOTH",
"245 442 OFFCURVE",
"242 81 OFFCURVE",
"242 20 CURVE",
"278 64 OFFCURVE",
"353 185 OFFCURVE",
"353 294 CURVE SMOOTH",
"353 344 OFFCURVE",
"333 372 OFFCURVE",
"320 388 CURVE",
"324 418 OFFCURVE",
"352 442 OFFCURVE",
"378 442 CURVE SMOOTH",
"417 442 OFFCURVE",
"439 402 OFFCURVE",
"439 356 CURVE SMOOTH",
"439 122 OFFCURVE",
"105 -226 OFFCURVE",
"-30 -226 CURVE SMOOTH",
"-66 -226 OFFCURVE",
"-93 -206 OFFCURVE",
"-93 -174 CURVE SMOOTH",
"-93 -157 OFFCURVE",
"-81 -135 OFFCURVE",
"-66 -127 CURVE",
"-51 -136 OFFCURVE",
"-7 -153 OFFCURVE",
"23 -153 CURVE SMOOTH",
"85 -153 OFFCURVE",
"113 -119 OFFCURVE",
"131 -92 CURVE SMOOTH",
"147 -60 OFFCURVE",
"144 13 OFFCURVE",
"144 56 CURVE SMOOTH",
"144 170 OFFCURVE",
"128 368 OFFCURVE",
"79 368 CURVE SMOOTH",
"56 368 OFFCURVE",
"18 315 OFFCURVE",
"15 312 CURVE",
"9 312 OFFCURVE",
"3 331 OFFCURVE",
"3 335 CURVE",
"14 354 OFFCURVE",
"84 442 OFFCURVE"
);
}
);
width = 473;
}
);
unicode = 0079;
userData = {
com.fontlab.hintData = {
hhints = (
{
position = -226;
width = 73;
},
{
position = 368;
width = 74;
}
);
vhints = (
{
position = 144;
width = 98;
},
{
position = 353;
width = 86;
}
);
};
};
},
{
glyphname = z;
lastChange = "2017-07-12 19:24:34 +0000";
layers = (
{
layerId = "AF37C979-5169-4EE5-B183-132B179D5F1C";
paths = (
{
closed = 1;
nodes = (
"158 443 CURVE SMOOTH",
"194 443 OFFCURVE",
"218 432 OFFCURVE",
"244 422 CURVE SMOOTH",
"262 415 OFFCURVE",
"284 407 OFFCURVE",
"314 407 CURVE SMOOTH",
"344 407 OFFCURVE",
"382 434 OFFCURVE",
"394 442 CURVE",
"408 440 OFFCURVE",
"410 426 OFFCURVE",
"410 418 CURVE SMOOTH",
"410 404 OFFCURVE",
"116 112 OFFCURVE",
"113 108 CURVE",
"117 110 OFFCURVE",
"139 118 OFFCURVE",
"157 118 CURVE SMOOTH",
"182 118 OFFCURVE",
"206 112 OFFCURVE",
"226 102 CURVE SMOOTH",
"244 94 OFFCURVE",
"266 82 OFFCURVE",
"284 82 CURVE SMOOTH",
"312 82 OFFCURVE",
"336 131 OFFCURVE",
"342 140 CURVE",
"352 140 OFFCURVE",
"356 128 OFFCURVE",
"357 120 CURVE",
"339 82 OFFCURVE",
"286 -2 OFFCURVE",
"236 -2 CURVE SMOOTH",
"203 -2 OFFCURVE",
"175 9 OFFCURVE",
"149 20 CURVE SMOOTH",
"132 27 OFFCURVE",
"103 35 OFFCURVE",
"72 35 CURVE SMOOTH",
"46 35 OFFCURVE",
"22 11 OFFCURVE",
"4 -1 CURVE",
"-9 0 OFFCURVE",
"-11 13 OFFCURVE",
"-12 22 CURVE",
"-12 38 OFFCURVE",
"290 334 OFFCURVE",
"292 338 CURVE",
"288 336 OFFCURVE",
"263 323 OFFCURVE",
"240 323 CURVE SMOOTH",
"215 323 OFFCURVE",
"192 330 OFFCURVE",
"172 339 CURVE SMOOTH",
"154 347 OFFCURVE",
"131 359 OFFCURVE",
"112 359 CURVE SMOOTH",
"83 359 OFFCURVE",
"60 309 OFFCURVE",
"54 300 CURVE",
"46 300 OFFCURVE",
"41 312 OFFCURVE",
"40 320 CURVE",
"52 350 OFFCURVE",
"108 443 OFFCURVE"
);
}
);
width = 414;
}
);
unicode = 007A;
userData = {
com.fontlab.hintData = {
hhints = (
{
position = -2;
width = 84;
},
{
position = 35;
width = 83;
},
{
position = 323;
width = 84;
},
{
position = 359;
width = 84;
}
);
};
};
},
{
glyphname = ordfeminine;
lastChange = "2017-07-12 19:24:34 +0000";
layers = (
{
layerId = "AF37C979-5169-4EE5-B183-132B179D5F1C";
paths = (
{
closed = 1;
nodes = (
"262 248 CURVE SMOOTH",
"242 248 OFFCURVE",
"225 260 OFFCURVE",
"225 286 CURVE SMOOTH",
"225 290 OFFCURVE",
"226 302 OFFCURVE",
"228 312 CURVE SMOOTH",
"230 321 OFFCURVE",
"231 324 OFFCURVE",
"232 328 CURVE",
"216 303 OFFCURVE",
"166 248 OFFCURVE",
"122 248 CURVE SMOOTH",
"80 248 OFFCURVE",
"57 282 OFFCURVE",
"57 330 CURVE SMOOTH",
"57 451 OFFCURVE",
"188 556 OFFCURVE",
"280 556 CURVE SMOOTH",
"307 556 OFFCURVE",
"334 550 OFFCURVE",
"348 545 CURVE",
"303 338 LINE SMOOTH",
"303 335 OFFCURVE",
"300 319 OFFCURVE",
"300 316 CURVE SMOOTH",
"300 310 OFFCURVE",
"301 300 OFFCURVE",
"309 300 CURVE SMOOTH",
"325 300 OFFCURVE",
"360 338 OFFCURVE",
"362 341 CURVE",
"366 339 OFFCURVE",
"371 327 OFFCURVE",
"370 321 CURVE",
"360 303 OFFCURVE",
"300 248 OFFCURVE"
);
},
{
closed = 1;
nodes = (
"240 520 CURVE SMOOTH",
"186 520 OFFCURVE",
"131 436 OFFCURVE",
"131 356 CURVE SMOOTH",
"131 318 OFFCURVE",
"142 298 OFFCURVE",
"164 298 CURVE SMOOTH",
"196 298 OFFCURVE",
"241 376 OFFCURVE",
"256 443 CURVE SMOOTH",
"271 510 LINE",
"265 516 OFFCURVE",
"250 520 OFFCURVE"
);
}
);
width = 389;
}
);
unicode = 00AA;
userData = {
com.fontlab.hintData = {
hhints = (
{
position = 248;
width = 50;
},
{
position = 520;
width = 36;
}
);
vhints = (
{
position = 57;
width = 74;
},
{
position = 225;
width = 75;
}
);
};
};
},
{
glyphname = ordmasculine;
lastChange = "2017-07-12 19:24:34 +0000";
layers = (
{
layerId = "AF37C979-5169-4EE5-B183-132B179D5F1C";
paths = (
{
closed = 1;
nodes = (
"233 528 CURVE SMOOTH",
"173 528 OFFCURVE",
"137 422 OFFCURVE",
"137 350 CURVE SMOOTH",
"137 314 OFFCURVE",
"147 275 OFFCURVE",
"172 275 CURVE SMOOTH",
"231 275 OFFCURVE",
"265 383 OFFCURVE",
"265 452 CURVE SMOOTH",
"265 491 OFFCURVE",
"257 528 OFFCURVE"
);
},
{
closed = 1;
nodes = (
"242 554 CURVE SMOOTH",
"303 554 OFFCURVE",
"341 522 OFFCURVE",
"341 452 CURVE SMOOTH",
"341 356 OFFCURVE",
"245 249 OFFCURVE",
"158 249 CURVE SMOOTH",
"97 249 OFFCURVE",
"61 286 OFFCURVE",
"61 348 CURVE SMOOTH",
"61 444 OFFCURVE",
"155 554 OFFCURVE"
);
}
);
width = 350;
}
);
unicode = 00BA;
userData = {
com.fontlab.hintData = {
hhints = (
{
position = 249;
width = 26;
},
{
position = 528;
width = 26;
}
);
vhints = (
{
position = 61;
width = 76;
},
{
position = 265;
width = 76;
}
);
};
};
},
{
glyphname = uni03BC;
lastChange = "2017-07-12 19:24:34 +0000";
layers = (
{
layerId = "AF37C979-5169-4EE5-B183-132B179D5F1C";
paths = (
{
closed = 1;
nodes = (
"143 442 CURVE SMOOTH",
"153 442 OFFCURVE",
"192 417 OFFCURVE",
"189 404 CURVE SMOOTH",
"187 390 OFFCURVE",
"176 345 OFFCURVE",
"141 256 CURVE SMOOTH",
"139 250 OFFCURVE",
"129 223 OFFCURVE",
"129 223 CURVE SMOOTH",
"113 144 OFFCURVE",
"118 77 OFFCURVE",
"150 77 CURVE SMOOTH",
"206 77 OFFCURVE",
"250 148 OFFCURVE",
"279 213 CURVE",
"291 256 OFFCURVE",
"321 394 OFFCURVE",
"330 429 CURVE",
"338 437 OFFCURVE",
"351 442 OFFCURVE",
"361 442 CURVE SMOOTH",
"387 440 OFFCURVE",
"415 417 OFFCURVE",
"412 404 CURVE SMOOTH",
"409 386 OFFCURVE",
"394 335 OFFCURVE",
"359 246 CURVE SMOOTH",
"357 240 OFFCURVE",
"350 223 OFFCURVE",
"350 223 CURVE",
"332 141 OFFCURVE",
"326 72 OFFCURVE",
"368 72 CURVE SMOOTH",
"391 72 OFFCURVE",
"419 94 OFFCURVE",
"427 103 CURVE",
"430 103 OFFCURVE",
"434 95 OFFCURVE",
"435 90 CURVE SMOOTH",
"435 86 OFFCURVE",
"435 79 OFFCURVE",
"434 76 CURVE SMOOTH",
"414 32 OFFCURVE",
"370 -4 OFFCURVE",
"334 -4 CURVE SMOOTH",
"291 -3 OFFCURVE",
"283 64 OFFCURVE",
"288 128 CURVE",
"246 58 OFFCURVE",
"195 -9 OFFCURVE",
"133 -9 CURVE SMOOTH",
"95 -9 OFFCURVE",
"94 42 OFFCURVE",
"90 76 CURVE",
"88 55 OFFCURVE",
"40 -73 OFFCURVE",
"62 -145 CURVE",
"59 -167 OFFCURVE",
"53 -187 OFFCURVE",
"39 -197 CURVE",
"18 -196 OFFCURVE",
"11 -194 OFFCURVE",
"2 -174 CURVE SMOOTH",
"-4 -156 OFFCURVE",
"6 -55 OFFCURVE",
"21 29 CURVE",
"23 75 OFFCURVE",
"60 209 OFFCURVE",
"72 251 CURVE",
"76 269 OFFCURVE",
"87 332 OFFCURVE",
"93 362 CURVE",
"97 372 OFFCURVE",
"98 385 OFFCURVE",
"105 422 CURVE",
"111 430 OFFCURVE",
"131 442 OFFCURVE"
);
}
);
width = 488;
}
);
unicode = 03BC;
userData = {
com.fontlab.hintData = {
hhints = (
{
position = -9;
width = 86;
},
{
position = 422;
width = 20;
}
);
vhints = (
{
position = 2;
width = 60;
},
{
position = 330;
width = 82;
}
);
};
};
},
{
glyphname = zero;
lastChange = "2017-07-12 19:24:34 +0000";
layers = (
{
layerId = "AF37C979-5169-4EE5-B183-132B179D5F1C";
paths = (
{
closed = 1;
nodes = (
"188.521 236 CURVE SMOOTH",
"173.521 128 OFFCURVE",
"191.521 32 OFFCURVE",
"241.521 32 CURVE SMOOTH",
"313.521 32 OFFCURVE",
"388.521 204 OFFCURVE",
"404.521 394 CURVE SMOOTH",
"420.521 488 OFFCURVE",
"407.521 605 OFFCURVE",
"351.521 605 CURVE SMOOTH",
"281.521 605 OFFCURVE",
"204.521 438 OFFCURVE"
);
},
{
closed = 1;
nodes = (
"85.521 307 CURVE SMOOTH",
"121.521 491 OFFCURVE",
"240.521 641 OFFCURVE",
"358.521 641 CURVE SMOOTH",
"488.521 641 OFFCURVE",
"539.521 498 OFFCURVE",
"505.521 326 CURVE SMOOTH",
"471.521 154 OFFCURVE",
"357.521 -4 OFFCURVE",
"231.521 -4 CURVE SMOOTH",
"112.521 -4 OFFCURVE",
"51.521 135 OFFCURVE"
);
}
);
width = 468;
}
);
unicode = 0030;
userData = {
com.fontlab.hintData = {
hhints = (
{
position = -4;
width = 36;
},
{
position = 605;
width = 36;
}
);
};
};
},
{
glyphname = one;
lastChange = "2017-07-12 19:24:34 +0000";
layers = (
{
layerId = "AF37C979-5169-4EE5-B183-132B179D5F1C";
paths = (
{
closed = 1;
nodes = (
"214.266 506 CURVE",
"207.266 510 OFFCURVE",
"205.266 521 OFFCURVE",
"205.266 528 CURVE SMOOTH",
"205.266 530 OFFCURVE",
"205.266 533 OFFCURVE",
"208.266 535 CURVE",
"306.266 585 OFFCURVE",
"386.266 626 OFFCURVE",
"413.266 642 CURVE",
"415.266 642 LINE SMOOTH",
"421.266 642 OFFCURVE",
"424.266 623 OFFCURVE",
"423.266 614 CURVE",
"423.266 614 OFFCURVE",
"401.266 570 OFFCURVE",
"385.266 484 CURVE SMOOTH",
"319.266 135 LINE SMOOTH",
"313.266 102 OFFCURVE",
"308.266 73 OFFCURVE",
"309.266 46 CURVE SMOOTH",
"310.266 35 OFFCURVE",
"360.266 26 OFFCURVE",
"367.266 26 CURVE SMOOTH",
"370.266 26 OFFCURVE",
"368.266 15 OFFCURVE",
"367.266 8 CURVE SMOOTH",
"366.266 3 OFFCURVE",
"365.266 -1 OFFCURVE",
"364.266 -3 CURVE",
"327.266 -1 OFFCURVE",
"267.266 2 OFFCURVE",
"230.266 2 CURVE SMOOTH",
"193.266 2 OFFCURVE",
"162.266 -1 OFFCURVE",
"124.266 -3 CURVE",
"120.266 2 OFFCURVE",
"125.266 26 OFFCURVE",
"130.266 26 CURVE SMOOTH",
"141.266 26 OFFCURVE",
"192.266 35 OFFCURVE",
"197.266 46 CURVE SMOOTH",
"206.266 66 OFFCURVE",
"209.266 84 OFFCURVE",
"213.266 103 CURVE SMOOTH",
"278.266 439 LINE SMOOTH",
"290.266 499 OFFCURVE",
"296.266 530 OFFCURVE",
"277.266 530 CURVE SMOOTH",
"270.266 530 OFFCURVE",
"232.266 515 OFFCURVE"
);
}
);
width = 468;
}
);
unicode = 0031;
userData = {
com.fontlab.hintData = {
hhints = (
{
position = -3;
width = 29;
},
{
position = 622;
width = 20;
}
);
vhints = (
{
position = 124;
width = 299;
}
);
};
};
},
{
glyphname = two;
lastChange = "2017-07-12 19:24:34 +0000";
layers = (
{
layerId = "AF37C979-5169-4EE5-B183-132B179D5F1C";
paths = (
{
closed = 1;
nodes = (
"497.188 501 CURVE SMOOTH",
"497.188 413 OFFCURVE",
"444.188 348 OFFCURVE",
"370.188 278 CURVE SMOOTH",
"282.188 195 OFFCURVE",
"161.188 92 OFFCURVE",
"163.188 92 CURVE",
"334.188 92 LINE SMOOTH",
"388.188 92 OFFCURVE",
"413.188 125 OFFCURVE",
"429.188 162 CURVE SMOOTH",
"431.188 167 OFFCURVE",
"436.188 170 OFFCURVE",
"443.188 170 CURVE SMOOTH",
"449.188 170 OFFCURVE",
"458.188 166 OFFCURVE",
"460.188 164 CURVE",
"436.188 114 OFFCURVE",
"390.188 18 OFFCURVE",
"382.188 0 CURVE",
"382.188 0 OFFCURVE",
"57.188 0 OFFCURVE",
"50.188 0 CURVE",
"47.188 1 OFFCURVE",
"43.188 9 OFFCURVE",
"43.188 18 CURVE",
"98.188 68 OFFCURVE",
"226.188 202 OFFCURVE",
"284.188 270 CURVE SMOOTH",
"349.188 346 OFFCURVE",
"381.188 412 OFFCURVE",
"381.188 477 CURVE SMOOTH",
"381.188 531 OFFCURVE",
"351.188 567 OFFCURVE",
"299.188 567 CURVE SMOOTH",
"233.188 567 OFFCURVE",
"180.188 506 OFFCURVE",
"169.188 492 CURVE",
"161.188 492 OFFCURVE",
"152.188 504 OFFCURVE",
"152.188 510 CURVE",
"163.188 535 OFFCURVE",
"255.188 642 OFFCURVE",
"352.188 642 CURVE SMOOTH",
"425.188 642 OFFCURVE",
"497.188 589 OFFCURVE"
);
}
);
width = 468;
}
);
unicode = 0032;
userData = {
com.fontlab.hintData = {
hhints = (
{
position = 0;
width = 92;
},
{
position = 567;
width = 75;
}
);
vhints = (
{
position = 381;
width = 116;
}
);
};
};
},
{
glyphname = three;
lastChange = "2017-07-12 19:24:34 +0000";
layers = (
{
layerId = "AF37C979-5169-4EE5-B183-132B179D5F1C";
paths = (
{
closed = 1;
nodes = (
"357.504 642 CURVE SMOOTH",
"404.504 642 OFFCURVE",
"470.504 611 OFFCURVE",
"470.504 524 CURVE SMOOTH",
"470.504 448 OFFCURVE",
"395.504 396 OFFCURVE",
"350.504 376 CURVE",
"406.504 369 OFFCURVE",
"462.504 307 OFFCURVE",
"462.504 240 CURVE SMOOTH",
"462.504 86 OFFCURVE",
"289.504 -5 OFFCURVE",
"189.504 -5 CURVE SMOOTH",
"131.504 -5 OFFCURVE",
"92.504 8 OFFCURVE",
"69.504 24 CURVE",
"65.504 29 OFFCURVE",
"60.504 43 OFFCURVE",
"60.504 54 CURVE SMOOTH",
"60.504 96 OFFCURVE",
"88.504 116 OFFCURVE",
"110.504 116 CURVE SMOOTH",
"144.504 116 OFFCURVE",
"150.504 86 OFFCURVE",
"162.504 68 CURVE SMOOTH",
"176.504 46 OFFCURVE",
"201.504 34 OFFCURVE",
"226.504 34 CURVE SMOOTH",
"283.504 34 OFFCURVE",
"354.504 105 OFFCURVE",
"354.504 218 CURVE SMOOTH",
"354.504 285 OFFCURVE",
"324.504 324 OFFCURVE",
"260.504 324 CURVE SMOOTH",
"243.504 324 OFFCURVE",
"220.504 319 OFFCURVE",
"208.504 316 CURVE",
"205.504 321 OFFCURVE",
"204.504 327 OFFCURVE",
"204.504 332 CURVE SMOOTH",
"204.504 336 OFFCURVE",
"206.504 345 OFFCURVE",
"208.504 348 CURVE",
"280.504 359 OFFCURVE",
"376.504 412 OFFCURVE",
"376.504 494 CURVE SMOOTH",
"376.504 552 OFFCURVE",
"342.504 576 OFFCURVE",
"300.504 576 CURVE SMOOTH",
"242.504 576 OFFCURVE",
"196.504 517 OFFCURVE",
"186.504 509 CURVE",
"179.504 509 OFFCURVE",
"173.504 523 OFFCURVE",
"174.504 532 CURVE",
"208.504 580 OFFCURVE",
"281.504 642 OFFCURVE"
);
}
);
width = 468;
}
);
unicode = 0033;
userData = {
com.fontlab.hintData = {
hhints = (
{
position = -5;
width = 39;
},
{
position = 316;
width = 32;
},
{
position = 576;
width = 66;
}
);
vhints = (
{
position = 355;
width = 108;
},
{
position = 377;
width = 94;
}
);
};
};
},
{
glyphname = four;
lastChange = "2017-07-12 19:24:34 +0000";
layers = (
{
layerId = "AF37C979-5169-4EE5-B183-132B179D5F1C";
paths = (
{
closed = 1;
nodes = (
"489.566 643 CURVE SMOOTH",
"498.566 643 OFFCURVE",
"508.566 629 OFFCURVE",
"506.566 621 CURVE SMOOTH",
"431.566 236 LINE",
"486.566 236 LINE SMOOTH",
"492.566 236 OFFCURVE",
"494.566 222 OFFCURVE",
"492.566 208 CURVE SMOOTH",
"491.566 194 OFFCURVE",
"484.566 180 OFFCURVE",
"480.566 174 CURVE",
"419.566 174 LINE",
"385.566 0 LINE",
"385.566 0 OFFCURVE",
"364.566 -6 OFFCURVE",
"328.566 -6 CURVE SMOOTH",
"306.566 -6 OFFCURVE",
"284.566 -3 OFFCURVE",
"285.566 4 CURVE SMOOTH",
"318.566 174 LINE",
"60.566 174 LINE",
"54.566 178 OFFCURVE",
"52.566 190 OFFCURVE",
"53.566 196 CURVE",
"458.566 622 LINE SMOOTH",
"466.566 631 OFFCURVE",
"482.566 643 OFFCURVE"
);
},
{
closed = 1;
nodes = (
"380.566 494 LINE",
"138.566 236 LINE",
"330.566 236 LINE"
);
}
);
width = 468;
}
);
unicode = 0034;
userData = {
com.fontlab.hintData = {
hhints = (
{
position = -6;
width = 21;
},
{
position = 174;
width = 62;
},
{
position = 623;
width = 20;
}
);
};
};
},
{
glyphname = five;
lastChange = "2017-07-12 19:24:34 +0000";
layers = (
{
layerId = "AF37C979-5169-4EE5-B183-132B179D5F1C";
paths = (
{
closed = 1;
nodes = (
"462.139 247 CURVE SMOOTH",
"462.139 93 OFFCURVE",
"292.139 -5 OFFCURVE",
"191.139 -5 CURVE SMOOTH",
"133.139 -5 OFFCURVE",
"94.139 8 OFFCURVE",
"71.139 24 CURVE",
"67.139 29 OFFCURVE",
"62.139 43 OFFCURVE",
"62.139 54 CURVE SMOOTH",
"62.139 96 OFFCURVE",
"90.139 116 OFFCURVE",
"112.139 116 CURVE SMOOTH",
"146.139 116 OFFCURVE",
"152.139 86 OFFCURVE",
"164.139 68 CURVE SMOOTH",
"178.139 46 OFFCURVE",
"203.139 34 OFFCURVE",
"228.139 34 CURVE SMOOTH",
"285.139 34 OFFCURVE",
"356.139 105 OFFCURVE",
"356.139 218 CURVE SMOOTH",
"356.139 273 OFFCURVE",
"330.139 332 OFFCURVE",
"242.139 332 CURVE SMOOTH",
"222.139 332 OFFCURVE",
"187.139 325 OFFCURVE",
"168.139 319 CURVE",
"165.139 321 OFFCURVE",
"158.139 328 OFFCURVE",
"154.139 333 CURVE",
"194.139 467 OFFCURVE",
"222.139 589 OFFCURVE",
"234.139 632 CURVE",
"312.139 633 OFFCURVE",
"436.139 635 OFFCURVE",
"478.139 645 CURVE",
"484.139 641 OFFCURVE",
"488.139 635 OFFCURVE",
"488.139 631 CURVE",
"488.139 613 OFFCURVE",
"458.139 564 OFFCURVE",
"448.139 550 CURVE",
"403.139 540 OFFCURVE",
"268.139 542 OFFCURVE",
"252.139 540 CURVE",
"248.139 530 OFFCURVE",
"224.139 434 OFFCURVE",
"210.139 384 CURVE",
"234.139 397 OFFCURVE",
"287.139 406 OFFCURVE",
"305.139 406 CURVE SMOOTH",
"393.139 406 OFFCURVE",
"462.139 336 OFFCURVE"
);
}
);
width = 468;
}
);
unicode = 0035;
userData = {
com.fontlab.hintData = {
hhints = (
{
position = -5;
width = 39;
},
{
position = 332;
width = 74;
},
{
position = 540;
width = 92;
}
);
vhints = (
{
position = 356;
width = 106;
}
);
};
};
},
{
glyphname = six;
lastChange = "2017-07-12 19:24:34 +0000";
layers = (
{
layerId = "AF37C979-5169-4EE5-B183-132B179D5F1C";
paths = (
{
closed = 1;
nodes = (
"342.906 378 CURVE SMOOTH",
"419.906 378 OFFCURVE",
"469.906 313 OFFCURVE",
"469.906 229 CURVE SMOOTH",
"469.906 106 OFFCURVE",
"354.906 -6 OFFCURVE",
"236.906 -6 CURVE SMOOTH",
"152.906 -6 OFFCURVE",
"78.906 63 OFFCURVE",
"78.906 176 CURVE SMOOTH",
"78.906 261 OFFCURVE",
"116.906 369 OFFCURVE",
"204.906 466 CURVE SMOOTH",
"266.906 536 OFFCURVE",
"379.906 613 OFFCURVE",
"501.906 642 CURVE",
"507.906 640 OFFCURVE",
"508.906 624 OFFCURVE",
"507.906 618 CURVE",
"388.906 568 OFFCURVE",
"289.906 491 OFFCURVE",
"233.906 363 CURVE SMOOTH",
"195.906 279 OFFCURVE",
"184.906 208 OFFCURVE",
"184.906 146 CURVE SMOOTH",
"184.906 81 OFFCURVE",
"204.906 28 OFFCURVE",
"246.906 28 CURVE SMOOTH",
"301.906 28 OFFCURVE",
"363.906 128 OFFCURVE",
"363.906 226 CURVE SMOOTH",
"363.906 282 OFFCURVE",
"344.906 328 OFFCURVE",
"289.906 328 CURVE SMOOTH",
"273.906 328 OFFCURVE",
"262.906 323 OFFCURVE",
"254.906 319 CURVE",
"251.906 321 OFFCURVE",
"248.906 326 OFFCURVE",
"248.906 332 CURVE SMOOTH",
"248.906 344 OFFCURVE",
"306.906 378 OFFCURVE"
);
}
);
width = 468;
}
);
unicode = 0036;
userData = {
com.fontlab.hintData = {
hhints = (
{
position = -6;
width = 34;
},
{
position = 328;
width = 50;
},
{
position = 618;
width = 24;
}
);
vhints = (
{
position = 79;
width = 106;
},
{
position = 364;
width = 106;
}
);
};
};
},
{
glyphname = seven;
lastChange = "2017-07-12 19:24:34 +0000";
layers = (
{
layerId = "AF37C979-5169-4EE5-B183-132B179D5F1C";
paths = (
{
closed = 1;
nodes = (
"107.339 14 CURVE",
"198.339 127 OFFCURVE",
"403.339 446 OFFCURVE",
"464.339 542 CURVE",
"241.339 542 LINE SMOOTH",
"199.339 542 OFFCURVE",
"173.339 496 OFFCURVE",
"155.339 461 CURVE SMOOTH",
"153.339 458 OFFCURVE",
"151.339 457 OFFCURVE",
"145.339 456 CURVE SMOOTH",
"137.339 455 OFFCURVE",
"128.339 460 OFFCURVE",
"124.339 463 CURVE",
"143.339 507 OFFCURVE",
"189.339 602 OFFCURVE",
"201.339 635 CURVE",
"478.339 635 LINE SMOOTH",
"506.339 635 OFFCURVE",
"545.339 638 OFFCURVE",
"551.339 638 CURVE SMOOTH",
"557.339 638 OFFCURVE",
"556.339 631 OFFCURVE",
"555.339 626 CURVE SMOOTH",
"553.339 615 OFFCURVE",
"537.339 592 OFFCURVE",
"517.339 562 CURVE SMOOTH",
"157.339 -6 LINE",
"154.339 -8 OFFCURVE",
"149.339 -8 OFFCURVE",
"145.339 -8 CURVE SMOOTH",
"135.339 -8 OFFCURVE",
"104.339 0 OFFCURVE"
);
}
);
width = 468;
}
);
unicode = 0037;
userData = {
com.fontlab.hintData = {
hhints = (
{
position = -8;
width = 21;
},
{
position = 542;
width = 93;
}
);
};
};
},
{
glyphname = eight;
lastChange = "2017-07-12 19:24:34 +0000";
layers = (
{
layerId = "AF37C979-5169-4EE5-B183-132B179D5F1C";
paths = (
{
closed = 1;
nodes = (
"358.586 642 CURVE SMOOTH",
"440.586 642 OFFCURVE",
"516.586 597 OFFCURVE",
"496.586 492 CURVE SMOOTH",
"482.586 422 OFFCURVE",
"415.586 376 OFFCURVE",
"362.586 350 CURVE",
"358.586 348 OFFCURVE",
"359.586 346 OFFCURVE",
"361.586 344 CURVE SMOOTH",
"415.586 301 OFFCURVE",
"467.586 234 OFFCURVE",
"453.586 164 CURVE SMOOTH",
"431.586 56 OFFCURVE",
"325.586 -8 OFFCURVE",
"230.586 -8 CURVE SMOOTH",
"128.586 -8 OFFCURVE",
"58.586 64 OFFCURVE",
"77.586 161 CURVE SMOOTH",
"94.586 249 OFFCURVE",
"181.586 290 OFFCURVE",
"227.586 314 CURVE SMOOTH",
"230.586 316 OFFCURVE",
"231.586 319 OFFCURVE",
"229.586 320 CURVE SMOOTH",
"195.586 348 OFFCURVE",
"152.586 408 OFFCURVE",
"166.586 482 CURVE SMOOTH",
"183.586 567 OFFCURVE",
"266.586 642 OFFCURVE"
);
},
{
closed = 1;
nodes = (
"347.586 608 CURVE SMOOTH",
"307.586 608 OFFCURVE",
"268.586 564 OFFCURVE",
"261.586 500 CURVE SMOOTH",
"255.586 440 OFFCURVE",
"296.586 400 OFFCURVE",
"328.586 374 CURVE SMOOTH",
"330.586 373 OFFCURVE",
"331.586 372 OFFCURVE",
"333.586 372 CURVE SMOOTH",
"335.586 372 OFFCURVE",
"336.586 372 OFFCURVE",
"338.586 374 CURVE SMOOTH",
"372.586 406 OFFCURVE",
"399.586 448 OFFCURVE",
"405.586 502 CURVE SMOOTH",
"411.586 548 OFFCURVE",
"395.586 608 OFFCURVE"
);
},
{
closed = 1;
nodes = (
"244.586 28 CURVE SMOOTH",
"297.586 28 OFFCURVE",
"338.586 73 OFFCURVE",
"348.586 129 CURVE SMOOTH",
"363.586 215 OFFCURVE",
"271.586 282 OFFCURVE",
"261.586 290 CURVE SMOOTH",
"259.586 291 OFFCURVE",
"258.586 291 OFFCURVE",
"256.586 291 CURVE SMOOTH",
"255.586 291 OFFCURVE",
"254.586 291 OFFCURVE",
"253.586 290 CURVE SMOOTH",
"214.586 256 OFFCURVE",
"190.586 216 OFFCURVE",
"180.586 154 CURVE SMOOTH",
"166.586 74 OFFCURVE",
"199.586 28 OFFCURVE"
);
}
);
width = 468;
}
);
unicode = 0038;
userData = {
com.fontlab.hintData = {
hhints = (
{
position = -8;
width = 36;
},
{
position = 608;
width = 34;
}
);
};
};
},
{
glyphname = nine;
lastChange = "2017-07-12 19:24:34 +0000";
layers = (
{
layerId = "AF37C979-5169-4EE5-B183-132B179D5F1C";
paths = (
{
closed = 1;
nodes = (
"248.357 260 CURVE SMOOTH",
"171.357 260 OFFCURVE",
"122.357 324 OFFCURVE",
"122.357 408 CURVE SMOOTH",
"122.357 531 OFFCURVE",
"236.357 642 OFFCURVE",
"354.357 642 CURVE SMOOTH",
"438.357 642 OFFCURVE",
"512.357 574 OFFCURVE",
"512.357 461 CURVE SMOOTH",
"512.357 376 OFFCURVE",
"475.357 268 OFFCURVE",
"387.357 171 CURVE SMOOTH",
"325.357 101 OFFCURVE",
"211.357 23 OFFCURVE",
"89.357 -6 CURVE",
"83.357 -4 OFFCURVE",
"82.357 12 OFFCURVE",
"83.357 18 CURVE",
"202.357 68 OFFCURVE",
"301.357 146 OFFCURVE",
"357.357 274 CURVE SMOOTH",
"395.357 358 OFFCURVE",
"406.357 428 OFFCURVE",
"406.357 490 CURVE SMOOTH",
"406.357 555 OFFCURVE",
"386.357 608 OFFCURVE",
"344.357 608 CURVE SMOOTH",
"289.357 608 OFFCURVE",
"227.357 508 OFFCURVE",
"227.357 410 CURVE SMOOTH",
"227.357 354 OFFCURVE",
"246.357 310 OFFCURVE",
"301.357 310 CURVE SMOOTH",
"317.357 310 OFFCURVE",
"329.357 314 OFFCURVE",
"337.357 318 CURVE",
"340.357 316 OFFCURVE",
"342.357 311 OFFCURVE",
"342.357 305 CURVE SMOOTH",
"342.357 293 OFFCURVE",
"284.357 260 OFFCURVE"
);
}
);
width = 468;
}
);
unicode = 0039;
userData = {
com.fontlab.hintData = {
hhints = (
{
position = -6;
width = 24;
},
{
position = 260;
width = 50;
},
{
position = 608;
width = 34;
}
);
vhints = (
{
position = 122;
width = 105;
},
{
position = 406;
width = 106;
}
);
};
};
},
{
glyphname = uni00B9;
lastChange = "2017-07-12 19:24:34 +0000";
layers = (
{
layerId = "AF37C979-5169-4EE5-B183-132B179D5F1C";
paths = (
{
closed = 1;
nodes = (
"124 534 CURVE",
"125 549 OFFCURVE",
"123 562 OFFCURVE",
"117 564 CURVE SMOOTH",
"113 564 OFFCURVE",
"101 561 OFFCURVE",
"96 559 CURVE",
"122 573 OFFCURVE",
"162 601 OFFCURVE",
"164 605 CURVE",
"166 609 LINE",
"204 624 OFFCURVE",
"247 641 OFFCURVE",
"248 639 CURVE",
"248 639 OFFCURVE",
"244 629 OFFCURVE",
"240 610 CURVE SMOOTH",
"242 610 OFFCURVE",
"222 484 OFFCURVE",
"222 482 CURVE",
"217 466 OFFCURVE",
"209 440 OFFCURVE",
"205 412 CURVE",
"205 409 OFFCURVE",
"208 311 OFFCURVE",
"210 311 CURVE",
"209 302 OFFCURVE",
"208 282 OFFCURVE",
"210 276 CURVE SMOOTH",
"213 270 OFFCURVE",
"228 267 OFFCURVE",
"230 266 CURVE",
"220 267 OFFCURVE",
"190 254 OFFCURVE",
"178 254 CURVE",
"156 254 OFFCURVE",
"117 255 OFFCURVE",
"94 254 CURVE",
"82 256 OFFCURVE",
"58 264 OFFCURVE",
"48 264 CURVE",
"50 266 OFFCURVE",
"73 280 OFFCURVE",
"76 283 CURVE",
"82 289 OFFCURVE",
"100 297 OFFCURVE",
"105 307 CURVE",
"108 310 OFFCURVE",
"132 424 OFFCURVE",
"133 430 CURVE SMOOTH",
"137 448 OFFCURVE",
"138 452 OFFCURVE",
"134 458 CURVE",
"127 458 OFFCURVE",
"128 536 OFFCURVE"
);
}
);
width = 260;
}
);
unicode = 00B9;
userData = {
com.fontlab.hintData = {
vhints = (
{
position = 124;
width = 98;
}
);
};
};
},
{
glyphname = uni00B2;
lastChange = "2017-07-12 19:24:34 +0000";
layers = (
{
layerId = "AF37C979-5169-4EE5-B183-132B179D5F1C";
paths = (
{
closed = 1;
nodes = (
"338 558 CURVE SMOOTH",
"338 503 OFFCURVE",
"289 452 OFFCURVE",
"246 413 CURVE SMOOTH",
"204 373 OFFCURVE",
"151 333 OFFCURVE",
"132 319 CURVE",
"237 319 LINE SMOOTH",
"268 319 OFFCURVE",
"283 346 OFFCURVE",
"296 370 CURVE SMOOTH",
"298 373 OFFCURVE",
"300 374 OFFCURVE",
"304 374 CURVE SMOOTH",
"307 374 OFFCURVE",
"317 371 OFFCURVE",
"318 369 CURVE",
"304 340 OFFCURVE",
"269 265 OFFCURVE",
"264 254 CURVE",
"264 254 OFFCURVE",
"51 254 OFFCURVE",
"49 254 CURVE",
"47 256 OFFCURVE",
"45 267 OFFCURVE",
"45 270 CURVE",
"89 312 OFFCURVE",
"147 366 OFFCURVE",
"193 417 CURVE SMOOTH",
"234 463 OFFCURVE",
"254 504 OFFCURVE",
"254 541 CURVE SMOOTH",
"254 574 OFFCURVE",
"232 596 OFFCURVE",
"201 596 CURVE SMOOTH",
"158 596 OFFCURVE",
"132 559 OFFCURVE",
"124 550 CURVE",
"120 550 OFFCURVE",
"112 560 OFFCURVE",
"113 567 CURVE",
"124 586 OFFCURVE",
"174 646 OFFCURVE",
"241 646 CURVE SMOOTH",
"296 646 OFFCURVE",
"338 610 OFFCURVE"
);
}
);
width = 343;
}
);
unicode = 00B2;
userData = {
com.fontlab.hintData = {
hhints = (
{
position = 254;
width = 65;
},
{
position = 596;
width = 50;
}
);
vhints = (
{
position = 254;
width = 84;
}
);
};
};
},
{
glyphname = uni00B3;
lastChange = "2017-07-12 19:24:34 +0000";
layers = (
{
layerId = "AF37C979-5169-4EE5-B183-132B179D5F1C";
paths = (
{
closed = 1;
nodes = (
"235 646 CURVE SMOOTH",
"266 646 OFFCURVE",
"311 628 OFFCURVE",
"311 574 CURVE SMOOTH",
"311 524 OFFCURVE",
"255 492 OFFCURVE",
"229 481 CURVE",
"260 479 OFFCURVE",
"312 454 OFFCURVE",
"312 398 CURVE SMOOTH",
"312 295 OFFCURVE",
"188 246 OFFCURVE",
"124 246 CURVE SMOOTH",
"91 246 OFFCURVE",
"61 255 OFFCURVE",
"49 265 CURVE",
"47 270 OFFCURVE",
"43 281 OFFCURVE",
"44 289 CURVE SMOOTH",
"46 307 OFFCURVE",
"63 330 OFFCURVE",
"81 330 CURVE SMOOTH",
"100 330 OFFCURVE",
"107 313 OFFCURVE",
"115 298 CURVE SMOOTH",
"124 282 OFFCURVE",
"139 277 OFFCURVE",
"155 277 CURVE SMOOTH",
"190 277 OFFCURVE",
"230 318 OFFCURVE",
"230 379 CURVE SMOOTH",
"230 417 OFFCURVE",
"211 449 OFFCURVE",
"173 449 CURVE SMOOTH",
"165 449 OFFCURVE",
"149 448 OFFCURVE",
"141 446 CURVE",
"139 449 OFFCURVE",
"138 450 OFFCURVE",
"138 454 CURVE SMOOTH",
"138 457 OFFCURVE",
"139 466 OFFCURVE",
"140 468 CURVE",
"180 474 OFFCURVE",
"243 502 OFFCURVE",
"243 556 CURVE SMOOTH",
"243 578 OFFCURVE",
"230 601 OFFCURVE",
"200 601 CURVE SMOOTH",
"164 601 OFFCURVE",
"137 562 OFFCURVE",
"131 558 CURVE",
"127 558 OFFCURVE",
"118 568 OFFCURVE",
"120 576 CURVE",
"150 617 OFFCURVE",
"190 646 OFFCURVE"
);
}
);
width = 326;
}
);
unicode = 00B3;
userData = {
com.fontlab.hintData = {
hhints = (
{
position = 246;
width = 31;
},
{
position = 446;
width = 22;
},
{
position = 601;
width = 45;
}
);
vhints = (
{
position = 230;
width = 82;
},
{
position = 243;
width = 68;
}
);
};
};
},
{
glyphname = fraction;
lastChange = "2017-07-12 19:24:34 +0000";
layers = (
{
layerId = "AF37C979-5169-4EE5-B183-132B179D5F1C";
paths = (
{
closed = 1;
nodes = (
"493 721 CURVE",
"74 14 LINE SMOOTH",
"70 7 OFFCURVE",
"63 -2 OFFCURVE",
"54 -2 CURVE SMOOTH",
"33 -2 OFFCURVE",
"23 10 OFFCURVE",
"23 10 CURVE",
"442 717 LINE SMOOTH",
"445 723 OFFCURVE",
"452 731 OFFCURVE",
"458 731 CURVE SMOOTH",
"474 731 OFFCURVE",
"489 724 OFFCURVE"
);
}
);
width = 516;
}
);
unicode = 2044;
userData = {
com.fontlab.hintData = {
hhints = (
{
position = -2;
width = 21;
}
);
};
};
},
{
glyphname = onehalf;
lastChange = "2017-07-12 19:24:34 +0000";
layers = (
{
layerId = "AF37C979-5169-4EE5-B183-132B179D5F1C";
paths = (
{
closed = 1;
nodes = (
"676 304 CURVE SMOOTH",
"676 249 OFFCURVE",
"628 197 OFFCURVE",
"585 158 CURVE SMOOTH",
"543 118 OFFCURVE",
"489 79 OFFCURVE",
"470 65 CURVE",
"575 65 LINE SMOOTH",
"606 65 OFFCURVE",
"621 91 OFFCURVE",
"634 115 CURVE SMOOTH",
"636 118 OFFCURVE",
"639 120 OFFCURVE",
"643 120 CURVE SMOOTH",
"646 120 OFFCURVE",
"656 116 OFFCURVE",
"657 114 CURVE",
"643 85 OFFCURVE",
"608 11 OFFCURVE",
"603 0 CURVE",
"603 0 OFFCURVE",
"389 0 OFFCURVE",
"387 0 CURVE",
"385 2 OFFCURVE",
"383 12 OFFCURVE",
"383 15 CURVE",
"427 57 OFFCURVE",
"485 112 OFFCURVE",
"531 163 CURVE SMOOTH",
"572 209 OFFCURVE",
"592 249 OFFCURVE",
"592 286 CURVE SMOOTH",
"592 319 OFFCURVE",
"570 341 OFFCURVE",
"539 341 CURVE SMOOTH",
"496 341 OFFCURVE",
"470 304 OFFCURVE",
"462 295 CURVE",
"458 295 OFFCURVE",
"450 306 OFFCURVE",
"451 313 CURVE",
"462 332 OFFCURVE",
"512 391 OFFCURVE",
"579 391 CURVE SMOOTH",
"634 391 OFFCURVE",
"676 356 OFFCURVE"
);
},
{
closed = 1;
nodes = (
"94 549 CURVE",
"90 551 OFFCURVE",
"88 562 OFFCURVE",
"88 566 CURVE SMOOTH",
"88 567 OFFCURVE",
"89 570 OFFCURVE",
"91 571 CURVE",
"150 600 OFFCURVE",
"228 639 OFFCURVE",
"245 647 CURVE",
"247 647 LINE SMOOTH",
"250 647 OFFCURVE",
"252 636 OFFCURVE",
"252 630 CURVE",
"252 630 OFFCURVE",
"238 603 OFFCURVE",
"228 550 CURVE SMOOTH",
"188 343 LINE SMOOTH",
"184 323 OFFCURVE",
"182 301 OFFCURVE",
"182 291 CURVE SMOOTH",
"182 279 OFFCURVE",
"227 277 OFFCURVE",
"231 277 CURVE SMOOTH",
"233 277 OFFCURVE",
"232 266 OFFCURVE",
"231 262 CURVE SMOOTH",
"230 259 OFFCURVE",
"230 255 OFFCURVE",
"229 254 CURVE",
"207 255 OFFCURVE",
"152 257 OFFCURVE",
"130 257 CURVE SMOOTH",
"108 257 OFFCURVE",
"69 255 OFFCURVE",
"46 254 CURVE",
"44 257 OFFCURVE",
"47 277 OFFCURVE",
"50 277 CURVE SMOOTH",
"57 277 OFFCURVE",
"94 281 OFFCURVE",
"99 289 CURVE SMOOTH",
"104 299 OFFCURVE",
"106 311 OFFCURVE",
"108 323 CURVE SMOOTH",
"145 510 LINE SMOOTH",
"152 546 OFFCURVE",
"156 566 OFFCURVE",
"146 566 CURVE SMOOTH",
"137 566 OFFCURVE",
"104 553 OFFCURVE"
);
},
{
closed = 1;
nodes = (
"606 630 CURVE SMOOTH",
"158 -7 LINE",
"158 -7 OFFCURVE",
"132 -7 OFFCURVE",
"132 4 CURVE SMOOTH",
"132 6 OFFCURVE",
"133 8 OFFCURVE",
"134 10 CURVE SMOOTH",
"583 646 LINE",
"583 646 OFFCURVE",
"607 645 OFFCURVE",
"607 634 CURVE SMOOTH",
"607 632 OFFCURVE",
"607 631 OFFCURVE"
);
}
);
width = 718;
}
);
unicode = 00BD;
userData = {
com.fontlab.hintData = {
hhints = (
{
position = 0;
width = 65;
},
{
position = 254;
width = 23;
},
{
position = 341;
width = 50;
}
);
vhints = (
{
position = 592;
width = 84;
}
);
};
};
},
{
glyphname = onequarter;
lastChange = "2017-07-12 19:24:34 +0000";
layers = (
{
layerId = "AF37C979-5169-4EE5-B183-132B179D5F1C";
paths = (
{
closed = 1;
nodes = (
"609 402 CURVE SMOOTH",
"615 402 OFFCURVE",
"622 392 OFFCURVE",
"621 387 CURVE SMOOTH",
"575 152 LINE",
"609 152 LINE SMOOTH",
"613 152 OFFCURVE",
"613 141 OFFCURVE",
"612 132 CURVE SMOOTH",
"612 124 OFFCURVE",
"606 112 OFFCURVE",
"604 108 CURVE",
"566 108 LINE",
"546 2 LINE",
"546 2 OFFCURVE",
"528 -2 OFFCURVE",
"506 -2 CURVE SMOOTH",
"492 -2 OFFCURVE",
"472 0 OFFCURVE",
"473 4 CURVE SMOOTH",
"493 108 LINE",
"330 108 LINE",
"326 110 OFFCURVE",
"325 118 OFFCURVE",
"326 122 CURVE",
"589 394 LINE SMOOTH",
"595 400 OFFCURVE",
"605 402 OFFCURVE"
);
},
{
closed = 1;
nodes = (
"530 298 LINE",
"391 152 LINE",
"501 152 LINE"
);
},
{
closed = 1;
nodes = (
"94 549 CURVE",
"90 551 OFFCURVE",
"88 562 OFFCURVE",
"88 566 CURVE SMOOTH",
"88 567 OFFCURVE",
"89 570 OFFCURVE",
"91 571 CURVE",
"150 600 OFFCURVE",
"228 639 OFFCURVE",
"245 647 CURVE",
"247 647 LINE SMOOTH",
"250 647 OFFCURVE",
"252 636 OFFCURVE",
"252 630 CURVE",
"252 630 OFFCURVE",
"238 603 OFFCURVE",
"228 550 CURVE SMOOTH",
"188 343 LINE SMOOTH",
"184 323 OFFCURVE",
"182 301 OFFCURVE",
"182 291 CURVE SMOOTH",
"182 279 OFFCURVE",
"227 277 OFFCURVE",
"231 277 CURVE SMOOTH",
"233 277 OFFCURVE",
"232 266 OFFCURVE",
"231 262 CURVE SMOOTH",
"230 259 OFFCURVE",
"230 255 OFFCURVE",
"229 254 CURVE",
"207 255 OFFCURVE",
"152 257 OFFCURVE",
"130 257 CURVE SMOOTH",
"108 257 OFFCURVE",
"69 255 OFFCURVE",
"46 254 CURVE",
"44 257 OFFCURVE",
"47 277 OFFCURVE",
"50 277 CURVE SMOOTH",
"57 277 OFFCURVE",
"94 281 OFFCURVE",
"99 289 CURVE SMOOTH",
"104 299 OFFCURVE",
"106 311 OFFCURVE",
"108 323 CURVE SMOOTH",
"145 510 LINE SMOOTH",
"152 546 OFFCURVE",
"156 566 OFFCURVE",
"146 566 CURVE SMOOTH",
"137 566 OFFCURVE",
"104 553 OFFCURVE"
);
},
{
closed = 1;
nodes = (
"606 630 CURVE SMOOTH",
"158 -7 LINE",
"158 -7 OFFCURVE",
"132 -7 OFFCURVE",
"132 4 CURVE SMOOTH",
"132 6 OFFCURVE",
"133 8 OFFCURVE",
"134 10 CURVE SMOOTH",
"583 646 LINE",
"583 646 OFFCURVE",
"607 645 OFFCURVE",
"607 634 CURVE SMOOTH",
"607 632 OFFCURVE",
"607 631 OFFCURVE"
);
}
);
width = 669;
}
);
unicode = 00BC;
userData = {
com.fontlab.hintData = {
hhints = (
{
position = -2;
width = 21;
},
{
position = 108;
width = 44;
},
{
position = 254;
width = 23;
}
);
};
};
},
{
glyphname = threequarters;
lastChange = "2017-07-12 19:24:34 +0000";
layers = (
{
layerId = "AF37C979-5169-4EE5-B183-132B179D5F1C";
paths = (
{
closed = 1;
nodes = (
"619 402 CURVE SMOOTH",
"625 402 OFFCURVE",
"632 392 OFFCURVE",
"631 387 CURVE SMOOTH",
"585 152 LINE",
"619 152 LINE SMOOTH",
"623 152 OFFCURVE",
"623 141 OFFCURVE",
"622 132 CURVE SMOOTH",
"622 124 OFFCURVE",
"616 112 OFFCURVE",
"614 108 CURVE",
"577 108 LINE",
"556 2 LINE",
"556 2 OFFCURVE",
"538 -2 OFFCURVE",
"516 -2 CURVE SMOOTH",
"502 -2 OFFCURVE",
"482 0 OFFCURVE",
"483 4 CURVE SMOOTH",
"503 108 LINE",
"340 108 LINE",
"336 110 OFFCURVE",
"335 118 OFFCURVE",
"336 122 CURVE",
"599 394 LINE SMOOTH",
"605 400 OFFCURVE",
"615 402 OFFCURVE"
);
},
{
closed = 1;
nodes = (
"540 298 LINE",
"401 152 LINE",
"511 152 LINE"
);
},
{
closed = 1;
nodes = (
"225 646 CURVE SMOOTH",
"256 646 OFFCURVE",
"301 628 OFFCURVE",
"301 574 CURVE SMOOTH",
"301 524 OFFCURVE",
"245 492 OFFCURVE",
"219 481 CURVE",
"250 479 OFFCURVE",
"302 454 OFFCURVE",
"302 398 CURVE SMOOTH",
"302 295 OFFCURVE",
"178 246 OFFCURVE",
"114 246 CURVE SMOOTH",
"81 246 OFFCURVE",
"51 255 OFFCURVE",
"39 265 CURVE",
"37 270 OFFCURVE",
"33 281 OFFCURVE",
"34 289 CURVE SMOOTH",
"36 307 OFFCURVE",
"53 330 OFFCURVE",
"71 330 CURVE SMOOTH",
"90 330 OFFCURVE",
"97 313 OFFCURVE",
"105 298 CURVE SMOOTH",
"114 282 OFFCURVE",
"129 277 OFFCURVE",
"145 277 CURVE SMOOTH",
"180 277 OFFCURVE",
"220 318 OFFCURVE",
"220 379 CURVE SMOOTH",
"220 417 OFFCURVE",
"201 449 OFFCURVE",
"163 449 CURVE SMOOTH",
"155 449 OFFCURVE",
"139 448 OFFCURVE",
"131 446 CURVE",
"129 449 OFFCURVE",
"128 450 OFFCURVE",
"128 454 CURVE SMOOTH",
"128 457 OFFCURVE",
"129 466 OFFCURVE",
"130 468 CURVE",
"170 474 OFFCURVE",
"233 502 OFFCURVE",
"233 556 CURVE SMOOTH",
"233 578 OFFCURVE",
"220 601 OFFCURVE",
"190 601 CURVE SMOOTH",
"154 601 OFFCURVE",
"127 562 OFFCURVE",
"121 558 CURVE",
"117 558 OFFCURVE",
"108 568 OFFCURVE",
"110 576 CURVE",
"140 617 OFFCURVE",
"180 646 OFFCURVE"
);
},
{
closed = 1;
nodes = (
"607 630 CURVE SMOOTH",
"158 -7 LINE",
"158 -7 OFFCURVE",
"132 -7 OFFCURVE",
"132 4 CURVE SMOOTH",
"132 6 OFFCURVE",
"133 8 OFFCURVE",
"134 10 CURVE SMOOTH",
"584 646 LINE",
"584 646 OFFCURVE",
"608 645 OFFCURVE",
"608 634 CURVE SMOOTH",
"608 632 OFFCURVE",
"608 631 OFFCURVE"
);
}
);
width = 678;
}
);
unicode = 00BE;
userData = {
com.fontlab.hintData = {
hhints = (
{
position = -2;
width = 21;
},
{
position = 108;
width = 44;
},
{
position = 246;
width = 31;
},
{
position = 446;
width = 22;
},
{
position = 601;
width = 45;
}
);
vhints = (
{
position = 220;
width = 82;
},
{
position = 233;
width = 68;
}
);
};
};
},
{
glyphname = asterisk;
lastChange = "2017-07-12 19:24:34 +0000";
layers = (
{
layerId = "AF37C979-5169-4EE5-B183-132B179D5F1C";
paths = (
{
closed = 1;
nodes = (
"262 515 CURVE SMOOTH",
"287 515 OFFCURVE",
"330 634 OFFCURVE",
"384 634 CURVE SMOOTH",
"398 634 OFFCURVE",
"409 625 OFFCURVE",
"409 606 CURVE SMOOTH",
"409 546 OFFCURVE",
"277 524 OFFCURVE",
"277 492 CURVE SMOOTH",
"277 465 OFFCURVE",
"400 480 OFFCURVE",
"400 422 CURVE SMOOTH",
"400 400 OFFCURVE",
"378 380 OFFCURVE",
"358 380 CURVE SMOOTH",
"315 380 OFFCURVE",
"285 464 OFFCURVE",
"260 464 CURVE SMOOTH",
"237 464 OFFCURVE",
"250 397 OFFCURVE",
"232 340 CURVE SMOOTH",
"223 310 OFFCURVE",
"204 300 OFFCURVE",
"190 300 CURVE SMOOTH",
"176 300 OFFCURVE",
"162 313 OFFCURVE",
"162 330 CURVE SMOOTH",
"162 370 OFFCURVE",
"229 438 OFFCURVE",
"229 464 CURVE SMOOTH",
"229 469 OFFCURVE",
"227 472 OFFCURVE",
"220 472 CURVE SMOOTH",
"199 472 OFFCURVE",
"137 430 OFFCURVE",
"99 430 CURVE SMOOTH",
"82 430 OFFCURVE",
"68 441 OFFCURVE",
"68 457 CURVE SMOOTH",
"68 470 OFFCURVE",
"76 504 OFFCURVE",
"130 504 CURVE SMOOTH",
"159 504 OFFCURVE",
"188 496 OFFCURVE",
"208 496 CURVE SMOOTH",
"230 496 OFFCURVE",
"232 503 OFFCURVE",
"232 510 CURVE SMOOTH",
"232 534 OFFCURVE",
"180 577 OFFCURVE",
"180 620 CURVE SMOOTH",
"180 645 OFFCURVE",
"198 664 OFFCURVE",
"219 664 CURVE SMOOTH",
"252 664 OFFCURVE",
"252 622 OFFCURVE",
"252 582 CURVE SMOOTH",
"252 576 OFFCURVE",
"248 515 OFFCURVE"
);
}
);
width = 412;
}
);
unicode = 002A;
userData = {
com.fontlab.hintData = {
hhints = (
{
position = 430;
width = 74;
},
{
position = 464;
width = 51;
},
{
position = 472;
width = 24;
},
{
position = 644;
width = 20;
}
);
vhints = (
{
position = 162;
width = 70;
},
{
position = 229;
width = 48;
}
);
};
};
},
{
glyphname = backslash;
lastChange = "2017-07-12 19:24:34 +0000";
layers = (
{
layerId = "AF37C979-5169-4EE5-B183-132B179D5F1C";
paths = (
{
closed = 1;
nodes = (
"297 -4 LINE SMOOTH",
"300 -20 OFFCURVE",
"278 -40 OFFCURVE",
"267 -40 CURVE SMOOTH",
"263 -40 OFFCURVE",
"259 -40 OFFCURVE",
"255 -37 CURVE",
"203 269 OFFCURVE",
"119 755 OFFCURVE",
"119 755 CURVE",
"121 758 OFFCURVE",
"127 762 OFFCURVE",
"133 762 CURVE SMOOTH",
"154 762 OFFCURVE",
"170 735 OFFCURVE",
"172 725 CURVE SMOOTH"
);
}
);
width = 378;
}
);
unicode = 005C;
userData = {
com.fontlab.hintData = {
vhints = (
{
position = 119;
width = 178;
}
);
};
};
},
{
glyphname = periodcentered;
lastChange = "2017-07-12 19:24:34 +0000";
layers = (
{
layerId = "AF37C979-5169-4EE5-B183-132B179D5F1C";
paths = (
{
closed = 1;
nodes = (
"51 251 CURVE SMOOTH",
"51 293 OFFCURVE",
"89 330 OFFCURVE",
"127 330 CURVE",
"156 330 OFFCURVE",
"176 308 OFFCURVE",
"176 278 CURVE SMOOTH",
"176 238 OFFCURVE",
"140 196 OFFCURVE",
"102 196 CURVE",
"72 196 OFFCURVE",
"51 221 OFFCURVE"
);
}
);
width = 230;
}
);
unicode = 00B7;
userData = {
com.fontlab.hintData = {
hhints = (
{
position = 196;
width = 134;
}
);
vhints = (
{
position = 51;
width = 125;
}
);
};
};
},
{
glyphname = bullet;
lastChange = "2017-07-12 19:24:34 +0000";
layers = (
{
layerId = "AF37C979-5169-4EE5-B183-132B179D5F1C";
paths = (
{
closed = 1;
nodes = (
"68 263 CURVE SMOOTH",
"81 331 OFFCURVE",
"144 387 OFFCURVE",
"208 387 CURVE SMOOTH",
"272 387 OFFCURVE",
"311 331 OFFCURVE",
"298 263 CURVE SMOOTH",
"285 195 OFFCURVE",
"223 139 OFFCURVE",
"159 139 CURVE SMOOTH",
"95 139 OFFCURVE",
"55 195 OFFCURVE"
);
}
);
width = 369;
}
);
unicode = 2022;
userData = {
com.fontlab.hintData = {
hhints = (
{
position = 139;
width = 248;
}
);
vhints = (
{
position = 68;
width = 230;
}
);
};
};
},
{
glyphname = colon;
lastChange = "2017-07-12 19:24:34 +0000";
layers = (
{
layerId = "AF37C979-5169-4EE5-B183-132B179D5F1C";
paths = (
{
closed = 1;
nodes = (
"81 372 CURVE SMOOTH",
"85 410 OFFCURVE",
"119 441 OFFCURVE",
"153 441 CURVE",
"183 441 OFFCURVE",
"205 416 OFFCURVE",
"201 384 CURVE SMOOTH",
"197 346 OFFCURVE",
"163 312 OFFCURVE",
"129 312 CURVE",
"98 312 OFFCURVE",
"77 340 OFFCURVE"
);
},
{
closed = 1;
nodes = (
"18 47 CURVE SMOOTH",
"22 85 OFFCURVE",
"56 117 OFFCURVE",
"90 117 CURVE",
"120 117 OFFCURVE",
"142 91 OFFCURVE",
"138 59 CURVE SMOOTH",
"134 21 OFFCURVE",
"100 -12 OFFCURVE",
"66 -12 CURVE",
"34 -12 OFFCURVE",
"14 15 OFFCURVE"
);
}
);
width = 240;
}
);
unicode = 003A;
userData = {
com.fontlab.hintData = {
hhints = (
{
position = -12;
width = 129;
},
{
position = 312;
width = 129;
}
);
vhints = (
{
position = 18;
width = 120;
},
{
position = 81;
width = 120;
}
);
};
};
},
{
glyphname = comma;
lastChange = "2017-07-12 19:24:34 +0000";
layers = (
{
layerId = "AF37C979-5169-4EE5-B183-132B179D5F1C";
paths = (
{
closed = 1;
nodes = (
"-32 -112 CURVE",
"-23 -106 OFFCURVE",
"38 -54 OFFCURVE",
"38 -9 CURVE SMOOTH",
"38 20 OFFCURVE",
"12 23 OFFCURVE",
"12 62 CURVE SMOOTH",
"12 110 OFFCURVE",
"51 132 OFFCURVE",
"84 132 CURVE SMOOTH",
"94 132 OFFCURVE",
"112 125 OFFCURVE",
"116 119 CURVE",
"118 114 OFFCURVE",
"118 105 OFFCURVE",
"118 98 CURVE SMOOTH",
"118 60 OFFCURVE",
"109 12 OFFCURVE",
"88 -24 CURVE SMOOTH",
"60 -72 OFFCURVE",
"27 -101 OFFCURVE",
"-18 -131 CURVE",
"-24 -130 OFFCURVE",
"-32 -121 OFFCURVE"
);
}
);
width = 208;
}
);
unicode = 002C;
userData = {
com.fontlab.hintData = {
hhints = (
{
position = -131;
width = 263;
}
);
vhints = (
{
position = 12;
width = 106;
}
);
};
};
},
{
glyphname = ellipsis;
lastChange = "2017-07-12 19:24:34 +0000";
layers = (
{
layerId = "AF37C979-5169-4EE5-B183-132B179D5F1C";
paths = (
{
closed = 1;
nodes = (
"496 46 CURVE SMOOTH",
"500 84 OFFCURVE",
"533 115 OFFCURVE",
"567 115 CURVE",
"597 115 OFFCURVE",
"618 90 OFFCURVE",
"614 58 CURVE SMOOTH",
"610 21 OFFCURVE",
"577 -12 OFFCURVE",
"543 -12 CURVE",
"512 -12 OFFCURVE",
"492 14 OFFCURVE"
);
},
{
closed = 1;
nodes = (
"253 46 CURVE SMOOTH",
"257 83 OFFCURVE",
"289 115 OFFCURVE",
"323 115 CURVE",
"353 115 OFFCURVE",
"374 90 OFFCURVE",
"370 58 CURVE SMOOTH",
"366 21 OFFCURVE",
"333 -12 OFFCURVE",
"299 -12 CURVE",
"268 -12 OFFCURVE",
"249 14 OFFCURVE"
);
},
{
closed = 1;
nodes = (
"8 46 CURVE SMOOTH",
"12 83 OFFCURVE",
"44 115 OFFCURVE",
"78 115 CURVE",
"108 115 OFFCURVE",
"129 90 OFFCURVE",
"125 58 CURVE SMOOTH",
"121 21 OFFCURVE",
"89 -12 OFFCURVE",
"55 -12 CURVE",
"24 -12 OFFCURVE",
"4 14 OFFCURVE"
);
}
);
width = 700;
}
);
unicode = 2026;
userData = {
com.fontlab.hintData = {
hhints = (
{
position = -12;
width = 127;
}
);
vhints = (
{
position = 8;
width = 117;
},
{
position = 253;
width = 117;
},
{
position = 496;
width = 118;
}
);
};
};
},
{
glyphname = exclam;
lastChange = "2017-07-12 19:24:34 +0000";
layers = (
{
layerId = "AF37C979-5169-4EE5-B183-132B179D5F1C";
paths = (
{
closed = 1;
nodes = (
"21 48 CURVE",
"25 85 OFFCURVE",
"56 115 OFFCURVE",
"92 115 CURVE SMOOTH",
"121 115 OFFCURVE",
"143 88 OFFCURVE",
"139 58 CURVE",
"135 20 OFFCURVE",
"105 -12 OFFCURVE",
"69 -12 CURVE SMOOTH",
"38 -12 OFFCURVE",
"17 16 OFFCURVE"
);
},
{
closed = 1;
nodes = (
"198 636 CURVE",
"223 636 OFFCURVE",
"240 613 OFFCURVE",
"236 581 CURVE",
"234 553 OFFCURVE",
"165 331 OFFCURVE",
"128 196 CURVE SMOOTH",
"123 179 OFFCURVE",
"104 169 OFFCURVE",
"95 169 CURVE",
"90 169 OFFCURVE",
"89 179 OFFCURVE",
"89 189 CURVE",
"91 225 OFFCURVE",
"117 476 OFFCURVE",
"132 576 CURVE SMOOTH",
"138 606 OFFCURVE",
"166 636 OFFCURVE"
);
}
);
width = 245;
}
);
unicode = 0021;
userData = {
com.fontlab.hintData = {
hhints = (
{
position = -12;
width = 127;
}
);
vhints = (
{
position = 21;
width = 118;
},
{
position = 89;
width = 39;
}
);
};
};
},
{
glyphname = exclamdown;
lastChange = "2017-07-12 19:24:34 +0000";
layers = (
{
layerId = "AF37C979-5169-4EE5-B183-132B179D5F1C";
paths = (
{
closed = 1;
nodes = (
"192 380 CURVE",
"188 343 OFFCURVE",
"157 314 OFFCURVE",
"121 314 CURVE SMOOTH",
"92 314 OFFCURVE",
"70 340 OFFCURVE",
"74 370 CURVE",
"78 408 OFFCURVE",
"108 441 OFFCURVE",
"144 441 CURVE SMOOTH",
"175 441 OFFCURVE",
"196 412 OFFCURVE"
);
},
{
closed = 1;
nodes = (
"15 -208 CURVE",
"-10 -208 OFFCURVE",
"-27 -184 OFFCURVE",
"-23 -152 CURVE",
"-21 -124 OFFCURVE",
"47 98 OFFCURVE",
"85 233 CURVE SMOOTH",
"90 250 OFFCURVE",
"109 260 OFFCURVE",
"118 260 CURVE",
"123 260 OFFCURVE",
"124 250 OFFCURVE",
"124 240 CURVE",
"122 204 OFFCURVE",
"97 -48 OFFCURVE",
"81 -148 CURVE SMOOTH",
"75 -178 OFFCURVE",
"47 -208 OFFCURVE"
);
}
);
width = 219;
}
);
unicode = 00A1;
userData = {
com.fontlab.hintData = {
hhints = (
{
position = 314;
width = 127;
}
);
vhints = (
{
position = 74;
width = 118;
},
{
position = 85;
width = 39;
}
);
};
};
},
{
glyphname = numbersign;
lastChange = "2017-07-12 19:24:34 +0000";
layers = (
{
layerId = "AF37C979-5169-4EE5-B183-132B179D5F1C";
paths = (
{
closed = 1;
nodes = (
"360 374 CURVE",
"360 374 OFFCURVE",
"422 374 OFFCURVE",
"436 374 CURVE SMOOTH",
"441 374 OFFCURVE",
"442 373 OFFCURVE",
"442 370 CURVE",
"442 354 OFFCURVE",
"428 316 OFFCURVE",
"418 316 CURVE",
"342 316 LINE",
"313 232 LINE",
"388 232 LINE",
"392 232 OFFCURVE",
"394 232 OFFCURVE",
"394 228 CURVE",
"394 212 OFFCURVE",
"380 174 OFFCURVE",
"370 174 CURVE",
"294 174 LINE",
"244 24 LINE",
"244 22 OFFCURVE",
"237 17 OFFCURVE",
"209 17 CURVE SMOOTH",
"199 17 OFFCURVE",
"187 19 OFFCURVE",
"186 21 CURVE",
"187 25 OFFCURVE",
"212 98 OFFCURVE",
"212 99 CURVE SMOOTH",
"212 101 OFFCURVE",
"240 174 OFFCURVE",
"240 174 CURVE",
"154 174 LINE",
"104 24 LINE",
"104 22 OFFCURVE",
"97 17 OFFCURVE",
"69 17 CURVE SMOOTH",
"59 17 OFFCURVE",
"47 19 OFFCURVE",
"46 21 CURVE",
"47 25 OFFCURVE",
"72 98 OFFCURVE",
"72 99 CURVE SMOOTH",
"72 101 OFFCURVE",
"100 174 OFFCURVE",
"100 174 CURVE",
"24 174 LINE",
"20 174 OFFCURVE",
"18 174 OFFCURVE",
"18 178 CURVE",
"18 194 OFFCURVE",
"32 232 OFFCURVE",
"42 232 CURVE",
"118 232 LINE",
"147 316 LINE",
"72 316 LINE",
"68 316 OFFCURVE",
"66 316 OFFCURVE",
"66 320 CURVE",
"66 336 OFFCURVE",
"80 374 OFFCURVE",
"90 374 CURVE",
"166 374 LINE",
"216 524 LINE",
"216 526 OFFCURVE",
"226 531 OFFCURVE",
"254 531 CURVE SMOOTH",
"264 531 OFFCURVE",
"273 528 OFFCURVE",
"274 526 CURVE",
"273 522 OFFCURVE",
"248 450 OFFCURVE",
"248 449 CURVE SMOOTH",
"248 447 OFFCURVE",
"220 374 OFFCURVE",
"220 374 CURVE",
"306 374 LINE",
"356 524 LINE",
"356 526 OFFCURVE",
"366 531 OFFCURVE",
"394 531 CURVE SMOOTH",
"404 531 OFFCURVE",
"413 528 OFFCURVE",
"414 526 CURVE",
"413 522 OFFCURVE",
"388 450 OFFCURVE",
"388 449 CURVE SMOOTH",
"388 447 OFFCURVE",
"360 374 OFFCURVE"
);
},
{
closed = 1;
nodes = (
"287 316 LINE",
"202 316 LINE",
"173 232 LINE",
"258 232 LINE"
);
}
);
width = 460;
}
);
unicode = 0023;
userData = {
com.fontlab.hintData = {
hhints = (
{
position = 174;
width = 58;
},
{
position = 316;
width = 58;
}
);
};
};
},
{
glyphname = onedotenleader;
lastChange = "2017-07-12 19:24:34 +0000";
layers = (
{
layerId = "AF37C979-5169-4EE5-B183-132B179D5F1C";
paths = (
{
closed = 1;
nodes = (
"8 46 CURVE SMOOTH",
"12 83 OFFCURVE",
"44 115 OFFCURVE",
"78 115 CURVE",
"108 115 OFFCURVE",
"129 90 OFFCURVE",
"125 58 CURVE SMOOTH",
"121 21 OFFCURVE",
"89 -12 OFFCURVE",
"55 -12 CURVE",
"24 -12 OFFCURVE",
"4 14 OFFCURVE"
);
}
);
width = 211;
}
);
unicode = 2024;
userData = {
com.fontlab.hintData = {
hhints = (
{
position = -12;
width = 127;
}
);
vhints = (
{
position = 8;
width = 117;
}
);
};
};
},
{
glyphname = period;
lastChange = "2017-07-12 19:24:34 +0000";
layers = (
{
layerId = "AF37C979-5169-4EE5-B183-132B179D5F1C";
paths = (
{
closed = 1;
nodes = (
"7 46 CURVE SMOOTH",
"11 83 OFFCURVE",
"45 115 OFFCURVE",
"79 115 CURVE",
"109 115 OFFCURVE",
"128 90 OFFCURVE",
"125 58 CURVE SMOOTH",
"121 21 OFFCURVE",
"89 -12 OFFCURVE",
"55 -12 CURVE",
"24 -12 OFFCURVE",
"3 14 OFFCURVE"
);
}
);
width = 212;
}
);
unicode = 002E;
userData = {
com.fontlab.hintData = {
hhints = (
{
position = -12;
width = 127;
}
);
vhints = (
{
position = 7;
width = 118;
}
);
};
};
},
{
glyphname = question;
lastChange = "2017-07-12 19:24:34 +0000";
layers = (
{
layerId = "AF37C979-5169-4EE5-B183-132B179D5F1C";
paths = (
{
closed = 1;
nodes = (
"39 46 CURVE SMOOTH",
"43 84 OFFCURVE",
"76 115 OFFCURVE",
"110 115 CURVE",
"140 115 OFFCURVE",
"161 90 OFFCURVE",
"157 58 CURVE SMOOTH",
"153 21 OFFCURVE",
"120 -12 OFFCURVE",
"86 -12 CURVE",
"55 -12 OFFCURVE",
"35 14 OFFCURVE"
);
},
{
closed = 1;
nodes = (
"189 206 CURVE",
"189 201 OFFCURVE",
"182 191 OFFCURVE",
"177 188 CURVE",
"153 188 OFFCURVE",
"71 236 OFFCURVE",
"71 292 CURVE SMOOTH",
"71 346 OFFCURVE",
"110 371 OFFCURVE",
"136 389 CURVE SMOOTH",
"173 414 OFFCURVE",
"210 432 OFFCURVE",
"249 462 CURVE SMOOTH",
"269 477 OFFCURVE",
"288 497 OFFCURVE",
"288 528 CURVE SMOOTH",
"288 560 OFFCURVE",
"271 578 OFFCURVE",
"243 578 CURVE SMOOTH",
"206 578 OFFCURVE",
"191 529 OFFCURVE",
"157 529 CURVE SMOOTH",
"119 529 OFFCURVE",
"110 570 OFFCURVE",
"118 598 CURVE",
"126 613 OFFCURVE",
"161 639 OFFCURVE",
"203 639 CURVE SMOOTH",
"282 639 OFFCURVE",
"350 569 OFFCURVE",
"350 501 CURVE SMOOTH",
"350 453 OFFCURVE",
"338 416 OFFCURVE",
"284 378 CURVE SMOOTH",
"264 362 OFFCURVE",
"227 345 OFFCURVE",
"188 318 CURVE SMOOTH",
"165 302 OFFCURVE",
"152 286 OFFCURVE",
"152 264 CURVE SMOOTH",
"152 235 OFFCURVE",
"179 212 OFFCURVE"
);
}
);
width = 345;
}
);
unicode = 003F;
userData = {
com.fontlab.hintData = {
hhints = (
{
position = -12;
width = 127;
},
{
position = 578;
width = 61;
}
);
vhints = (
{
position = 39;
width = 118;
},
{
position = 71;
width = 81;
},
{
position = 288;
width = 62;
}
);
};
};
},
{
glyphname = questiondown;
lastChange = "2017-07-12 19:24:34 +0000";
layers = (
{
layerId = "AF37C979-5169-4EE5-B183-132B179D5F1C";
paths = (
{
closed = 1;
nodes = (
"284 384 CURVE SMOOTH",
"280 346 OFFCURVE",
"248 316 OFFCURVE",
"214 316 CURVE",
"184 316 OFFCURVE",
"162 340 OFFCURVE",
"166 372 CURVE SMOOTH",
"170 409 OFFCURVE",
"204 443 OFFCURVE",
"238 443 CURVE",
"269 443 OFFCURVE",
"288 416 OFFCURVE"
);
},
{
closed = 1;
nodes = (
"135 224 CURVE",
"135 229 OFFCURVE",
"141 239 OFFCURVE",
"146 242 CURVE",
"170 242 OFFCURVE",
"253 194 OFFCURVE",
"253 138 CURVE SMOOTH",
"253 84 OFFCURVE",
"214 59 OFFCURVE",
"188 41 CURVE SMOOTH",
"151 15 OFFCURVE",
"113 -2 OFFCURVE",
"74 -32 CURVE SMOOTH",
"54 -48 OFFCURVE",
"36 -66 OFFCURVE",
"36 -98 CURVE SMOOTH",
"36 -130 OFFCURVE",
"52 -147 OFFCURVE",
"80 -147 CURVE SMOOTH",
"117 -147 OFFCURVE",
"133 -99 OFFCURVE",
"167 -99 CURVE SMOOTH",
"205 -99 OFFCURVE",
"214 -140 OFFCURVE",
"206 -168 CURVE",
"198 -183 OFFCURVE",
"163 -208 OFFCURVE",
"121 -208 CURVE SMOOTH",
"42 -208 OFFCURVE",
"-26 -139 OFFCURVE",
"-26 -71 CURVE SMOOTH",
"-26 -23 OFFCURVE",
"-14 14 OFFCURVE",
"40 52 CURVE SMOOTH",
"60 68 OFFCURVE",
"96 85 OFFCURVE",
"136 112 CURVE SMOOTH",
"160 128 OFFCURVE",
"172 144 OFFCURVE",
"172 166 CURVE SMOOTH",
"172 195 OFFCURVE",
"145 218 OFFCURVE"
);
}
);
width = 337;
}
);
unicode = 00BF;
userData = {
com.fontlab.hintData = {
hhints = (
{
position = -208;
width = 61;
},
{
position = 316;
width = 127;
}
);
vhints = (
{
position = -26;
width = 62;
},
{
position = 166;
width = 118;
},
{
position = 172;
width = 81;
}
);
};
};
},
{
glyphname = quotedbl;
lastChange = "2017-07-12 19:24:34 +0000";
layers = (
{
layerId = "AF37C979-5169-4EE5-B183-132B179D5F1C";
paths = (
{
closed = 1;
nodes = (
"329 698 CURVE SMOOTH",
"357 698 OFFCURVE",
"368 692 OFFCURVE",
"357 633 CURVE SMOOTH",
"346 577 OFFCURVE",
"314 516 OFFCURVE",
"295 449 CURVE SMOOTH",
"292 439 OFFCURVE",
"281 434 OFFCURVE",
"274 434 CURVE SMOOTH",
"267 434 OFFCURVE",
"258 439 OFFCURVE",
"259 447 CURVE SMOOTH",
"268 537 OFFCURVE",
"259 590 OFFCURVE",
"259 636 CURVE",
"262 654 OFFCURVE",
"293 698 OFFCURVE"
);
},
{
closed = 1;
nodes = (
"177 698 CURVE SMOOTH",
"205 698 OFFCURVE",
"216 692 OFFCURVE",
"205 633 CURVE SMOOTH",
"194 577 OFFCURVE",
"162 516 OFFCURVE",
"143 449 CURVE SMOOTH",
"140 439 OFFCURVE",
"129 434 OFFCURVE",
"122 434 CURVE SMOOTH",
"115 434 OFFCURVE",
"106 439 OFFCURVE",
"107 447 CURVE SMOOTH",
"116 537 OFFCURVE",
"107 590 OFFCURVE",
"107 636 CURVE",
"110 654 OFFCURVE",
"141 698 OFFCURVE"
);
}
);
width = 334;
}
);
unicode = 0022;
userData = {
com.fontlab.hintData = {
hhints = (
{
position = 434;
width = 264;
}
);
vhints = (
{
position = 107;
width = 98;
},
{
position = 259;
width = 98;
}
);
};
};
},
{
glyphname = quotesingle;
lastChange = "2017-07-12 19:24:34 +0000";
layers = (
{
layerId = "AF37C979-5169-4EE5-B183-132B179D5F1C";
paths = (
{
closed = 1;
nodes = (
"177 698 CURVE SMOOTH",
"205 698 OFFCURVE",
"216 692 OFFCURVE",
"205 633 CURVE SMOOTH",
"194 577 OFFCURVE",
"162 516 OFFCURVE",
"143 449 CURVE SMOOTH",
"140 439 OFFCURVE",
"129 434 OFFCURVE",
"122 434 CURVE SMOOTH",
"115 434 OFFCURVE",
"106 439 OFFCURVE",
"107 447 CURVE SMOOTH",
"116 537 OFFCURVE",
"107 590 OFFCURVE",
"107 636 CURVE",
"110 654 OFFCURVE",
"141 698 OFFCURVE"
);
}
);
width = 182;
}
);
unicode = 0027;
userData = {
com.fontlab.hintData = {
hhints = (
{
position = 434;
width = 264;
}
);
vhints = (
{
position = 107;
width = 98;
}
);
};
};
},
{
glyphname = semicolon;
lastChange = "2017-07-12 19:24:34 +0000";
layers = (
{
layerId = "AF37C979-5169-4EE5-B183-132B179D5F1C";
paths = (
{
closed = 1;
nodes = (
"-19 -112 CURVE",
"-10 -106 OFFCURVE",
"51 -54 OFFCURVE",
"51 -9 CURVE SMOOTH",
"51 20 OFFCURVE",
"26 23 OFFCURVE",
"26 62 CURVE SMOOTH",
"26 110 OFFCURVE",
"64 132 OFFCURVE",
"97 132 CURVE SMOOTH",
"107 132 OFFCURVE",
"126 125 OFFCURVE",
"130 119 CURVE",
"132 114 OFFCURVE",
"132 105 OFFCURVE",
"132 98 CURVE SMOOTH",
"132 60 OFFCURVE",
"122 12 OFFCURVE",
"101 -24 CURVE SMOOTH",
"73 -72 OFFCURVE",
"41 -101 OFFCURVE",
"-4 -131 CURVE",
"-10 -130 OFFCURVE",
"-19 -121 OFFCURVE"
);
},
{
closed = 1;
nodes = (
"204 384 CURVE SMOOTH",
"200 346 OFFCURVE",
"166 312 OFFCURVE",
"132 312 CURVE",
"100 312 OFFCURVE",
"80 340 OFFCURVE",
"84 372 CURVE SMOOTH",
"88 410 OFFCURVE",
"122 441 OFFCURVE",
"156 441 CURVE",
"186 441 OFFCURVE",
"208 416 OFFCURVE"
);
}
);
width = 237;
}
);
unicode = 003B;
userData = {
com.fontlab.hintData = {
hhints = (
{
position = 312;
width = 129;
}
);
vhints = (
{
position = 26;
width = 106;
},
{
position = 84;
width = 120;
}
);
};
};
},
{
glyphname = slash;
lastChange = "2017-07-12 19:24:34 +0000";
layers = (
{
layerId = "AF37C979-5169-4EE5-B183-132B179D5F1C";
paths = (
{
closed = 1;
nodes = (
"458 755 CURVE",
"34 -12 LINE SMOOTH",
"31 -17 OFFCURVE",
"7 -34 OFFCURVE",
"-16 -34 CURVE SMOOTH",
"-20 -34 OFFCURVE",
"-27 -30 OFFCURVE",
"-28 -28 CURVE",
"397 739 LINE SMOOTH",
"402 747 OFFCURVE",
"428 761 OFFCURVE",
"446 761 CURVE SMOOTH",
"452 761 OFFCURVE",
"456 758 OFFCURVE"
);
}
);
width = 393;
}
);
unicode = 002F;
},
{
glyphname = underscore;
lastChange = "2017-07-12 19:24:34 +0000";
layers = (
{
layerId = "AF37C979-5169-4EE5-B183-132B179D5F1C";
paths = (
{
closed = 1;
nodes = (
"-36 -36 CURVE",
"-36 -34 OFFCURVE",
"-23 15 OFFCURVE",
"-12 15 CURVE SMOOTH",
"404 15 LINE SMOOTH",
"407 15 OFFCURVE",
"408 13 OFFCURVE",
"408 9 CURVE SMOOTH",
"408 4 OFFCURVE",
"402 -14 OFFCURVE",
"391 -38 CURVE SMOOTH",
"388 -44 OFFCURVE",
"384 -44 OFFCURVE",
"384 -44 CURVE",
"-31 -44 LINE",
"-31 -44 OFFCURVE",
"-37 -44 OFFCURVE"
);
}
);
width = 478;
}
);
unicode = 005F;
userData = {
com.fontlab.hintData = {
hhints = (
{
position = -44;
width = 59;
}
);
};
};
},
{
glyphname = uni2038;
lastChange = "2017-07-12 19:24:34 +0000";
layers = (
{
layerId = "AF37C979-5169-4EE5-B183-132B179D5F1C";
paths = (
{
closed = 1;
nodes = (
"280 -48 CURVE SMOOTH",
"268 -48 OFFCURVE",
"221 -2 OFFCURVE",
"194 38 CURVE",
"154 -3 OFFCURVE",
"86 -48 OFFCURVE",
"74 -48 CURVE SMOOTH",
"68 -48 OFFCURVE",
"69 -32 OFFCURVE",
"69 -30 CURVE",
"73 -17 OFFCURVE",
"139 17 OFFCURVE",
"195 102 CURVE",
"199 110 OFFCURVE",
"199 112 OFFCURVE",
"205 112 CURVE SMOOTH",
"224 112 OFFCURVE",
"212 95 OFFCURVE",
"246 37 CURVE SMOOTH",
"258 15 OFFCURVE",
"294 -23 OFFCURVE",
"295 -27 CURVE",
"294 -31 OFFCURVE",
"286 -48 OFFCURVE"
);
}
);
width = 363;
}
);
unicode = 2038;
userData = {
com.fontlab.hintData = {
hhints = (
{
position = -48;
width = 160;
}
);
vhints = (
{
position = 69;
width = 226;
}
);
};
};
},
{
glyphname = uni203E;
lastChange = "2017-07-12 19:24:34 +0000";
layers = (
{
layerId = "AF37C979-5169-4EE5-B183-132B179D5F1C";
paths = (
{
closed = 1;
nodes = (
"758 804 LINE SMOOTH",
"764 804 OFFCURVE",
"764 796 OFFCURVE",
"764 790 CURVE SMOOTH",
"764 772 OFFCURVE",
"750 742 OFFCURVE",
"742 736 CURVE",
"226 736 LINE SMOOTH",
"220 736 OFFCURVE",
"220 744 OFFCURVE",
"220 750 CURVE SMOOTH",
"220 768 OFFCURVE",
"234 798 OFFCURVE",
"242 804 CURVE"
);
}
);
width = 789;
}
);
unicode = 203E;
userData = {
com.fontlab.hintData = {
hhints = (
{
position = 736;
width = 68;
}
);
};
};
},
{
glyphname = braceleft;
lastChange = "2017-07-12 19:24:34 +0000";
layers = (
{
layerId = "AF37C979-5169-4EE5-B183-132B179D5F1C";
paths = (
{
closed = 1;
nodes = (
"127 403 CURVE SMOOTH",
"132 430 OFFCURVE",
"126 453 OFFCURVE",
"122 479 CURVE SMOOTH",
"117 503 OFFCURVE",
"113 527 OFFCURVE",
"119 557 CURVE SMOOTH",
"138 655 OFFCURVE",
"228 725 OFFCURVE",
"272 739 CURVE",
"278 739 OFFCURVE",
"285 727 OFFCURVE",
"282 719 CURVE",
"253 705 OFFCURVE",
"195 658 OFFCURVE",
"185 604 CURVE SMOOTH",
"177 566 OFFCURVE",
"183 542 OFFCURVE",
"189 516 CURVE SMOOTH",
"194 493 OFFCURVE",
"199 468 OFFCURVE",
"191 428 CURVE SMOOTH",
"177 358 OFFCURVE",
"115 310 OFFCURVE",
"87 302 CURVE",
"112 294 OFFCURVE",
"156 247 OFFCURVE",
"142 177 CURVE SMOOTH",
"134 137 OFFCURVE",
"120 111 OFFCURVE",
"106 88 CURVE SMOOTH",
"91 62 OFFCURVE",
"76 40 OFFCURVE",
"68 2 CURVE SMOOTH",
"58 -52 OFFCURVE",
"96 -100 OFFCURVE",
"119 -114 CURVE",
"119 -122 OFFCURVE",
"108 -134 OFFCURVE",
"102 -134 CURVE",
"63 -120 OFFCURVE",
"1 -50 OFFCURVE",
"20 48 CURVE SMOOTH",
"26 79 OFFCURVE",
"41 105 OFFCURVE",
"55 130 CURVE SMOOTH",
"69 154 OFFCURVE",
"83 176 OFFCURVE",
"88 202 CURVE SMOOTH",
"98 255 OFFCURVE",
"66 281 OFFCURVE",
"32 292 CURVE",
"31 294 OFFCURVE",
"31 298 OFFCURVE",
"32 302 CURVE SMOOTH",
"33 306 OFFCURVE",
"34 312 OFFCURVE",
"36 314 CURVE",
"75 325 OFFCURVE",
"117 350 OFFCURVE"
);
}
);
width = 228;
}
);
unicode = 007B;
userData = {
com.fontlab.hintData = {
hhints = (
{
position = 719;
width = 20;
}
);
vhints = (
{
position = 20;
width = 262;
}
);
};
};
},
{
glyphname = braceright;
lastChange = "2017-07-12 19:24:34 +0000";
layers = (
{
layerId = "AF37C979-5169-4EE5-B183-132B179D5F1C";
paths = (
{
closed = 1;
nodes = (
"140 740 CURVE",
"179 726 OFFCURVE",
"241 655 OFFCURVE",
"222 557 CURVE SMOOTH",
"216 527 OFFCURVE",
"202 502 OFFCURVE",
"188 478 CURVE SMOOTH",
"174 454 OFFCURVE",
"159 429 OFFCURVE",
"154 403 CURVE SMOOTH",
"144 350 OFFCURVE",
"176 325 OFFCURVE",
"210 314 CURVE",
"211 312 OFFCURVE",
"211 306 OFFCURVE",
"210 302 CURVE SMOOTH",
"209 298 OFFCURVE",
"208 294 OFFCURVE",
"206 292 CURVE",
"167 281 OFFCURVE",
"125 255 OFFCURVE",
"115 202 CURVE SMOOTH",
"110 176 OFFCURVE",
"116 153 OFFCURVE",
"120 129 CURVE SMOOTH",
"125 104 OFFCURVE",
"129 78 OFFCURVE",
"123 48 CURVE SMOOTH",
"104 -50 OFFCURVE",
"14 -120 OFFCURVE",
"-30 -134 CURVE",
"-37 -134 OFFCURVE",
"-41 -122 OFFCURVE",
"-38 -114 CURVE",
"-10 -100 OFFCURVE",
"47 -52 OFFCURVE",
"57 2 CURVE SMOOTH",
"64 40 OFFCURVE",
"59 62 OFFCURVE",
"53 88 CURVE SMOOTH",
"48 111 OFFCURVE",
"43 137 OFFCURVE",
"51 177 CURVE SMOOTH",
"65 247 OFFCURVE",
"127 294 OFFCURVE",
"155 302 CURVE",
"130 310 OFFCURVE",
"86 358 OFFCURVE",
"100 428 CURVE SMOOTH",
"108 470 OFFCURVE",
"123 496 OFFCURVE",
"138 520 CURVE SMOOTH",
"153 545 OFFCURVE",
"167 568 OFFCURVE",
"174 604 CURVE SMOOTH",
"184 658 OFFCURVE",
"147 705 OFFCURVE",
"124 719 CURVE",
"124 727 OFFCURVE",
"134 740 OFFCURVE"
);
}
);
width = 230;
}
);
unicode = 007D;
userData = {
com.fontlab.hintData = {
hhints = (
{
position = -134;
width = 20;
}
);
vhints = (
{
position = -38;
width = 260;
}
);
};
};
},
{
glyphname = bracketleft;
lastChange = "2017-07-12 19:24:34 +0000";
layers = (
{
layerId = "AF37C979-5169-4EE5-B183-132B179D5F1C";
paths = (
{
closed = 1;
nodes = (
"167 734 CURVE SMOOTH",
"168 737 OFFCURVE",
"173 749 OFFCURVE",
"183 749 CURVE SMOOTH",
"247 749 OFFCURVE",
"314 755 OFFCURVE",
"340 757 CURVE",
"342 755 OFFCURVE",
"344 754 OFFCURVE",
"344 748 CURVE SMOOTH",
"344 732 OFFCURVE",
"328 719 OFFCURVE",
"323 717 CURVE",
"307 710 OFFCURVE",
"258 702 OFFCURVE",
"224 701 CURVE SMOOTH",
"219 701 OFFCURVE",
"218 696 OFFCURVE",
"217 694 CURVE",
"70 -52 LINE",
"70 -54 OFFCURVE",
"70 -59 OFFCURVE",
"75 -60 CURVE SMOOTH",
"103 -64 OFFCURVE",
"147 -75 OFFCURVE",
"168 -88 CURVE SMOOTH",
"173 -91 OFFCURVE",
"183 -101 OFFCURVE",
"183 -109 CURVE SMOOTH",
"183 -119 OFFCURVE",
"177 -124 OFFCURVE",
"175 -126 CURVE",
"141 -120 OFFCURVE",
"63 -104 OFFCURVE",
"13 -104 CURVE SMOOTH",
"9 -104 OFFCURVE",
"5 -100 OFFCURVE",
"6 -94 CURVE",
"33 45 OFFCURVE",
"167 734 OFFCURVE"
);
}
);
width = 263;
}
);
unicode = 005B;
userData = {
com.fontlab.hintData = {
hhints = (
{
position = 701;
width = 48;
}
);
vhints = (
{
position = 6;
width = 338;
}
);
};
};
},
